{
.appVersion = "3234";
.formatVersion = 3;
DisplayStrings = (
"",
S,
"/minus.tnum",
tc,
l,
"lǉ",
j,
z,
p,
"/c_t",
"/numbersign.tnum",
B,
"đ",
"∙",
"∕",
T,
"⅞",
"¾",
"⅜",
"¼",
"½",
"⅛",
S,
"ø",
"ǿ",
"%",
"/percent.tnum",
"0",
"/slash.tnum",
"Ǿ",
D,
f,
"₈",
"?",
"/divide.tnum",
"÷",
"/dieresis.cap"
);
customParameters = (
{
name = vendorID;
value = BWRS;
},
{
name = panose;
value = (
2,
2,
6,
2,
6,
3,
0,
0,
0,
4
);
},
{
name = unicodeRanges;
value = (
0,
1,
2,
3,
4,
5,
7,
29,
31,
32,
33,
35,
36,
38,
60,
62
);
},
{
name = fsType;
value = (
);
},
{
name = blueScale;
value = 0.0166669990867;
},
{
name = blueShift;
value = 10;
},
{
name = glyphOrder;
value = (
.notdef,
A,
AE,
AEacute,
Aacute,
Abreve,
Acircumflex,
Adieresis,
Agrave,
Amacron,
Aogonek,
Aring,
Aringacute,
Atilde,
B,
C,
CR,
Cacute,
Ccaron,
Ccedilla,
Ccircumflex,
Cdotaccent,
D,
Dcaron,
Dcroat,
Ddotbelow,
E,
Eacute,
Ebreve,
Ecaron,
Ecircumflex,
Edieresis,
Edotaccent,
Edotbelow,
Egrave,
Emacron,
Eng,
Eogonek,
Eth,
Etilde,
Euro,
Euro.tnum,
F,
G,
Gbreve,
Gcircumflex,
Gcommaaccent,
Gdotaccent,
H,
Hbar,
Hcircumflex,
Hdotbelow,
I,
IJ,
Iacute,
Ibreve,
Icircumflex,
Idieresis,
Idotaccent,
Idotbelow,
Igrave,
Imacron,
Iogonek,
Itilde,
J,
Jcircumflex,
K,
Kcommaaccent,
L,
Lacute,
Lcaron,
Lcommaaccent,
Ldot,
Lslash,
M,
N,
NULL,
Nacute,
Ncaron,
Ncommaaccent,
Ndotaccent,
Ntilde,
O,
OE,
Oacute,
Obreve,
Ocircumflex,
Odieresis,
Odotbelow,
Ograve,
Ohungarumlaut,
Omacron,
Oogonek,
Oslash,
Oslashacute,
Otilde,
P,
Q,
R,
Racute,
Rcaron,
Rcommaaccent,
Rdotbelow,
S,
Sacute,
Scaron,
Schwa,
Scircumflex,
Sdotbelow,
T,
Tbar,
Tcaron,
Tdotbelow,
Thorn,
U,
Uacute,
Ubreve,
Ucircumflex,
Udieresis,
Udotbelow,
Ugrave,
Uhungarumlaut,
Umacron,
Uogonek,
Uring,
Utilde,
V,
W,
Wacute,
Wcircumflex,
Wdieresis,
Wgrave,
X,
Y,
Yacute,
Ycircumflex,
Ydieresis,
Ygrave,
Ytilde,
Z,
Zacute,
Zcaron,
Zdotaccent,
Zdotbelow,
a,
aacute,
abreve,
acircumflex,
acute,
acute.cap,
adieresis,
ae,
aeacute,
agrave,
amacron,
ampersand,
aogonek,
apostrophe,
aring,
aringacute,

glyphs = (
{
glyphname = .notdef;
layers = (
{
hints = (
{
horizontal = 1;
place = (887,83);
type = Stem;
},
{
horizontal = 1;
place = (-260,82);
type = Stem;
},
{
place = (485,90);
type = Stem;
},
{
place = (50,90);
type = Stem;
}
);
layerId = m01;
shapes = (
{
closed = 1;
nodes = (
(50,-260,l),
(575,-260,l),
(575,970,l),
(50,970,l)
);
},
{
closed = 1;
nodes = (
(174,-178,l),
(485,779,l),
(485,-178,l)
);
},
{
closed = 1;
nodes = (
(140,887,l),
(450,887,l),
(140,-70,l)
);
}
);
width = 625;
}
);
note = .notdef;
},
{
glyphname = A;
kernLeft = A;
kernRight = A;
lastChange = "2023-12-30 23:44:54 +0000";
layers = (
{
hints = (
{
horizontal = 1;
place = (790,-20);
target = down;
type = TopGhost;
},
{
horizontal = 1;
place = (283,40);
type = Stem;
},
{
horizontal = 1;
place = (0,23);
type = Stem;
}
);
layerId = m01;
shapes = (
{
closed = 1;
nodes = (
(96,64,o),
(82,39,o),
(-24,23,c),
(-24,0,l),
(257,0,l),
(257,23,l),
(190,33,o),
(154,49,o),
(154,85,cs),
(154,97,o),
(158,112,o),
(165,132,c),
(121,134,l)
);
},
{
closed = 1;
nodes = (
(668,38,o),
(683,28,o),
(753,23,c),
(753,0,l),
(435,0,l),
(435,23,l),
(527,27,o),
(538,35,o),
(538,56,cs),
(538,65,o),
(536,76,o),
(527,100,c),
(651,84,l)
);
},
{
closed = 1;
nodes = (
(387,790,l),
(289,736,l),
(315,677,l),
(416,715,l)
);
}
);
width = 744;
}
);
note = A;
unicode = 65;
},
{
glyphname = AE;
kernLeft = AE;
kernRight = AE;
lastChange = "2023-12-30 23:46:21 +0000";
layers = (
{
hints = (
{
horizontal = 1;
place = (550,-20);
target = down;
type = TopGhost;
},
{
horizontal = 1;
place = (730,40);
type = Stem;
},
{
horizontal = 1;
place = (367,40);
type = Stem;
},
{
horizontal = 1;
place = (292,40);
type = Stem;
},
{
horizontal = 1;
place = (0,40);
type = Stem;
},
{
place = (470,106);
type = Stem;
}
);
layerId = m01;
shapes = (
{
closed = 1;
nodes = (
(774,447,o),
(785,487,o),
(792,527,c),
(816,527,l),
(816,247,l),
(792,247,l),
(786,287,o),
(774,327,o),
(755,367,c),
(755,407,l)
);
},
{
closed = 1;
nodes = (
(942,770,l),
(959,550,l),
(935,550,l),
(919,607,o),
(896,673,o),
(863,730,c),
(864,770,l)
);
},
{
closed = 1;
nodes = (
(386,23,l),
(386,0,l),
(470,0,l),
(471,42,l)
);
},
{
closed = 1;
nodes = (
(109,62,o),
(86,39,o),
(-22,23,c),
(-22,0,l),
(258,0,l),
(258,23,l),
(196,33,o),
(169,44,o),
(169,72,cs),
(169,87,o),
(176,106,o),
(190,132,c),
(147,134,l)
);
},
{
closed = 1;
nodes = (
(376,747,l),
(376,770,l),
(460,770,l),
(461,730,l)
);
},
{
closed = 1;
nodes = (
(898,105,o),
(920,169,o),
(942,234,c),
(975,234,l),
(938,0,l),
(857,0,l),
(858,40,l)
);
}
);
width = 1029;
}
);
note = AE;
unicode = 198;
},
{
glyphname = AEacute;
kernLeft = AE;
kernRight = AE;
lastChange = "2023-12-30 23:46:29 +0000";
layers = (
{
hints = (
{
horizontal = 1;
place = (550,-20);
target = down;
type = TopGhost;
},
{
horizontal = 1;
place = (730,230);
type = Stem;
},
{
horizontal = 1;
place = (730,40);
type = Stem;
},
{
horizontal = 1;
place = (367,40);
type = Stem;
},
{
horizontal = 1;
place = (292,40);
type = Stem;
},
{
horizontal = 1;
place = (0,40);
type = Stem;
}
);
layerId = m01;
shapes = (
{
closed = 1;
nodes = (
(583,816,l),
(735,860,ls),
(787,875,o),
(803,894,o),
(803,917,cs),
(803,942,o),
(782,960,o),
(760,960,cs),
(744,960,o),
(731,955,o),
(716,944,cs),
(572,837,l)
);
},
{
ref = AE;
}
);
width = 1029;
}
);
note = AEacute;
unicode = 508;
},
{
glyphname = Aacute;
kernLeft = A;
kernRight = A;
lastChange = "2023-12-30 23:46:35 +0000";
layers = (
{
hints = (
{
horizontal = 1;
place = (960,-20);
target = down;
type = TopGhost;
},
{
horizontal = 1;
place = (283,40);
type = Stem;
},
{
horizontal = 1;
place = (0,23);
type = Stem;
}
);
layerId = m01;
shapes = (
{
closed = 1;
nodes = (
(276,816,l),
(428,860,ls),
(480,875,o),
(496,894,o),
(496,917,cs),
(496,942,o),
(475,960,o),
(453,960,cs),
(437,960,o),
(424,955,o),
(409,944,cs),
(265,837,l)
);
},
{
ref = A;
}
);
width = 744;
}
);
note = Aacute;
unicode = 193;
},
{
glyphname = Abreve;
kernLeft = A;
kernRight = A;
lastChange = "2023-12-30 23:46:39 +0000";
layers = (
{
hints = (
{
horizontal = 1;
place = (830,129);
type = Stem;
},
{
horizontal = 1;
place = (830,74);
type = Stem;
},
{
horizontal = 1;
place = (283,40);
type = Stem;
},
{
horizontal = 1;
place = (0,23);
type = Stem;
}
);
layerId = m01;
shapes = (
{
closed = 1;
nodes = (
(203,959,l),
(214,862,o),
(282,830,o),
(340,830,cs),
(383,830,o),
(455,844,o),
(487,959,c),
(453,959,l),
(430,920,o),
(388,904,o),
(344,904,cs),
(297,904,o),
(254,920,o),
(238,959,c)
);
},
{
ref = A;
}
);
width = 744;
}
);
note = Abreve;
unicode = 258;
},
{
glyphname = Acircumflex;
kernLeft = A;
kernRight = A;
lastChange = "2023-12-30 23:46:41 +0000";
layers = (
{
hints = (
{
horizontal = 1;
place = (960,-20);
target = down;
type = TopGhost;
},
{
horizontal = 1;
place = (283,40);
type = Stem;
},
{
horizontal = 1;
place = (0,23);
type = Stem;
}
);
layerId = m01;
shapes = (
{
closed = 1;
nodes = (
(329,960,o),
(318,950,o),
(301,933,cs),
(207,837,l),
(227,820,l),
(354,878,l),
(483,820,l),
(502,837,l),
(409,933,ls),
(390,952,o),
(377,960,o),
(354,960,cs)
);
},
{
ref = A;
}
);
width = 744;
}
);
note = Acircumflex;
unicode = 194;
},
{
glyphname = Adieresis;
kernLeft = A;
kernRight = A;
lastChange = "2023-12-30 23:46:44 +0000";
layers = (
{
hints = (
{
horizontal = 1;
place = (830,110);
type = Stem;
},
{
horizontal = 1;
place = (283,40);
type = Stem;
},
{
horizontal = 1;
place = (0,23);
type = Stem;
},
{
place = (327,77);
type = Stem;
}
);
layerId = m01;
shapes = (
{
closed = 1;
nodes = (
(217,855,o),
(239,830,o),
(272,830,cs),
(306,830,o),
(327,855,o),
(327,885,cs),
(327,917,o),
(306,940,o),
(272,940,cs),
(239,940,o),
(217,917,o),
(217,885,cs)
);
},
{
closed = 1;
nodes = (
(404,855,o),
(426,830,o),
(459,830,cs),
(493,830,o),
(514,855,o),
(514,885,cs),
(514,917,o),
(493,940,o),
(459,940,cs),
(426,940,o),
(404,917,o),
(404,885,cs)
);
},
{
ref = A;
}
);
width = 744;
}
);
note = Adieresis;
unicode = 196;
},
{
glyphname = Agrave;
kernLeft = A;
kernRight = A;
lastChange = "2023-12-30 23:47:05 +0000";
layers = (
{
hints = (
{
horizontal = 1;
place = (960,-20);
target = down;
type = TopGhost;
},
{
horizontal = 1;
place = (283,40);
type = Stem;
},
{
horizontal = 1;
place = (0,23);
type = Stem;
}
);
layerId = m01;
shapes = (
{
closed = 1;
nodes = (
(438,837,l),
(294,944,ls),
(279,955,o),
(266,960,o),
(250,960,cs),
(228,960,o),
(207,942,o),
(207,917,cs),
(207,894,o),
(223,875,o),
(275,860,cs),
(427,816,l)
);
},
{
ref = A;
}
);
width = 744;
}
);
note = Agrave;
unicode = 192;
},
{
glyphname = Amacron;
kernLeft = A;
kernRight = A;
lastChange = "2023-12-30 23:47:08 +0000";
layers = (
{
hints = (
{
horizontal = 1;
place = (877,71);
type = Stem;
},
{
horizontal = 1;
place = (283,40);
type = Stem;
},
{
horizontal = 1;
place = (0,23);
type = Stem;
}
);
layerId = m01;
shapes = (
{
closed = 1;
nodes = (
(483,877,l),
(483,948,l),
(196,948,l),
(196,877,l)
);
},
{
ref = A;
}
);
width = 744;
}
);
note = Amacron;
unicode = 256;
},
{
glyphname = Aogonek;
kernLeft = A;
kernRight = A;
lastChange = "2023-12-30 23:47:17 +0000";
layers = (
{
hints = (
{
horizontal = 1;
place = (790,-20);
target = down;
type = TopGhost;
},
{
horizontal = 1;
place = (283,40);
type = Stem;
},
{
horizontal = 1;
place = (0,23);
type = Stem;
},
{
horizontal = 1;
place = (-256,55);
type = Stem;
},
{
place = (474,88);
type = Stem;
}
);
layerId = m01;
shapes = (
{
closed = 1;
nodes = (
(585,-55,o),
(562,-102,o),
(562,-144,cs),
(562,-182,o),
(580,-201,o),
(615,-201,cs),
(634,-201,o),
(649,-195,o),
(671,-180,c),
(686,-202,l),
(654,-239,o),
(619,-256,o),
(576,-256,cs),
(514,-256,o),
(474,-222,o),
(474,-168,cs),
(474,-116,o),
(517,-54,o),
(588,0,c),
(631,0,l)
);
},
{
ref = A;
}
);
width = 744;
}
);
note = Aogonek;
unicode = 260;
},
{
glyphname = Aring;
kernLeft = A;
kernRight = A;
lastChange = "2023-12-30 23:47:24 +0000";
layers = (
{
hints = (
{
horizontal = 1;
place = (935,35);
type = Stem;
},
{
horizontal = 1;
place = (830,35);
type = Stem;
},
{
horizontal = 1;
place = (283,40);
type = Stem;
},
{
horizontal = 1;
place = (0,23);
type = Stem;
},
{
place = (310,70);
type = Stem;
}
);
layerId = m01;
shapes = (
{
closed = 1;
nodes = (
(385,830,o),
(415,860,o),
(415,900,cs),
(415,940,o),
(385,970,o),
(345,970,cs),
(305,970,o),
(275,940,o),
(275,900,cs),
(275,860,o),
(303,830,o),
(345,830,cs)
);
},
{
closed = 1;
nodes = (
(310,921,o),
(324,935,o),
(345,935,cs),
(366,935,o),
(380,921,o),
(380,900,cs),
(380,879,o),
(366,865,o),
(345,865,cs),
(324,865,o),
(310,879,o),
(310,900,cs)
);
},
{
ref = A;
}
);
width = 744;
}
);
note = Aring;
unicode = 197;
},
{
glyphname = Aringacute;
kernLeft = A;
kernRight = A;
lastChange = "2023-12-30 23:47:27 +0000";
layers = (
{
hints = (
{
horizontal = 1;
place = (970,-20);
target = down;
type = TopGhost;
},
{
horizontal = 1;
place = (935,34);
type = Stem;
},
{
horizontal = 1;
place = (830,35);
type = Stem;
},
{
horizontal = 1;
place = (283,40);
type = Stem;
},
{
horizontal = 1;
place = (0,23);
type = Stem;
},
{
place = (309,70);
type = Stem;
}
);
layerId = m01;
shapes = (
{
closed = 1;
nodes = (
(245,825,l),
(302,842,l),
(313,834,o),
(328,830,o),
(344,830,cs),
(378,830,o),
(404,851,o),
(412,882,c),
(457,895,o),
(466,914,o),
(466,934,cs),
(466,958,o),
(442,969,o),
(422,969,cs),
(408,969,o),
(397,965,o),
(385,958,c),
(373,966,o),
(359,970,o),
(344,970,cs),
(304,970,o),
(274,940,o),
(274,900,cs),
(274,892,o),
(275,885,o),
(277,878,c),
(234,846,l)
);
},
{
closed = 1;
nodes = (
(323,865,o),
(309,879,o),
(309,900,cs),
(309,921,o),
(323,935,o),
(344,935,cs),
(365,935,o),
(379,921,o),
(379,900,cs),
(379,879,o),
(365,865,o),
(344,865,cs)
);
},
{
ref = A;
}
);
width = 744;
}
);
note = Aringacute;
unicode = 506;
},
{
glyphname = Atilde;
kernLeft = A;
kernRight = A;
lastChange = "2023-12-30 23:47:29 +0000";
layers = (
{
hints = (
{
horizontal = 1;
place = (960,-20);
target = down;
type = TopGhost;
},
{
horizontal = 1;
place = (881,76);
type = Stem;
},
{
horizontal = 1;
place = (881,41);
type = Stem;
},
{
horizontal = 1;
place = (842,80);
type = Stem;
},
{
horizontal = 1;
place = (283,40);
type = Stem;
},
{
horizontal = 1;
place = (0,23);
type = Stem;
}
);
layerId = m01;
shapes = (
{
closed = 1;
nodes = (
(224,843,l),
(227,867,o),
(246,881,o),
(275,881,cs),
(322,881,o),
(376,842,o),
(423,842,cs),
(472,842,o),
(507,891,o),
(507,960,c),
(483,960,l),
(478,935,o),
(461,922,o),
(433,922,cs),
(388,922,o),
(330,957,o),
(284,957,cs),
(235,957,o),
(200,910,o),
(200,843,c)
);
},
{
ref = A;
}
);
width = 744;
}
);
note = Atilde;
unicode = 195;
},
{
glyphname = B;
kernLeft = B;
lastChange = "2023-12-30 23:47:59 +0000";
layers = (
{
hints = (
{
horizontal = 1;
place = (730,40);
type = Stem;
},
{
horizontal = 1;
place = (389,40);
type = Stem;
},
{
horizontal = 1;
place = (0,38);
type = Stem;
},
{
place = (529,116);
type = Stem;
},
{
place = (529,82);
type = Stem;
},
{
place = (499,112);
type = Stem;
},
{
place = (134,105);
type = Stem;
}
);
layerId = m01;
shapes = (
{
closed = 1;
nodes = (
(49,0,l),
(49,23,l),
(134,42,l),
(134,0,l)
);
},
{
closed = 1;
nodes = (
(49,747,l),
(49,770,l),
(134,770,l),
(134,728,l)
);
}
);
width = 699;
}
);
note = B;
unicode = 66;
},
{
glyphname = C;
kernLeft = C;
lastChange = "2023-12-30 23:48:10 +0000";
layers = (
{
hints = (
{
horizontal = 1;
place = (770,-20);
target = down;
type = TopGhost;
},
{
horizontal = 1;
place = (540,-20);
target = down;
type = TopGhost;
},
{
horizontal = 1;
place = (736,44);
type = Stem;
},
{
horizontal = 1;
place = (-10,45);
type = Stem;
},
{
horizontal = 1;
place = (0,21);
target = up;
type = BottomGhost;
},
{
place = (56,126);
type = Stem;
}
);
layerId = m01;
shapes = (
{
closed = 1;
nodes = (
(684,0,l),
(708,0,l),
(708,262,l),
(681,262,l),
(671,209,o),
(653,164,o),
(628,129,c),
(638,66,l)
);
},
{
closed = 1;
nodes = (
(652,605,o),
(666,576,o),
(678,540,c),
(708,540,l),
(708,770,l),
(690,770,l),
(641,719,l),
(637,630,l)
);
}
);
width = 774;
}
);
note = C;
unicode = 67;
},
{
glyphname = Cacute;
kernLeft = C;
lastChange = "2023-12-30 23:48:18 +0000";
layers = (
{
hints = (
{
horizontal = 1;
place = (770,-20);
target = down;
type = TopGhost;
},
{
horizontal = 1;
place = (540,-20);
target = down;
type = TopGhost;
},
{
horizontal = 1;
place = (736,224);
type = Stem;
},
{
horizontal = 1;
place = (736,44);
type = Stem;
},
{
horizontal = 1;
place = (-10,45);
type = Stem;
},
{
horizontal = 1;
place = (0,21);
target = up;
type = BottomGhost;
},
{
place = (56,126);
type = Stem;
}
);
layerId = m01;
shapes = (
{
closed = 1;
nodes = (
(331,816,l),
(483,860,ls),
(535,875,o),
(551,894,o),
(551,917,cs),
(551,942,o),
(530,960,o),
(508,960,cs),
(492,960,o),
(479,955,o),
(464,944,cs),
(320,837,l)
);
},
{
ref = C;
}
);
width = 774;
}
);
note = Cacute;
unicode = 262;
},
{
glyphname = Ccaron;
kernLeft = C;
lastChange = "2023-12-30 23:48:21 +0000";
layers = (
{
hints = (
{
horizontal = 1;
place = (970,-20);
target = down;
type = TopGhost;
},
{
horizontal = 1;
place = (770,-20);
target = down;
type = TopGhost;
},
{
horizontal = 1;
place = (540,-20);
target = down;
type = TopGhost;
},
{
horizontal = 1;
place = (780,50);
type = Stem;
},
{
horizontal = 1;
place = (736,44);
type = Stem;
},
{
horizontal = 1;
place = (-10,45);
type = Stem;
},
{
horizontal = 1;
place = (0,21);
target = up;
type = BottomGhost;
},
{
place = (56,126);
type = Stem;
}
);
layerId = m01;
shapes = (
{
closed = 1;
nodes = (
(464,830,o),
(477,838,o),
(496,857,cs),
(589,953,l),
(570,970,l),
(441,912,l),
(314,970,l),
(294,953,l),
(388,857,ls),
(405,840,o),
(416,830,o),
(441,830,cs)
);
},
{
ref = C;
}
);
width = 774;
}
);
note = Ccaron;
unicode = 268;
},
{
glyphname = Ccedilla;
kernLeft = C;
lastChange = "2023-12-30 23:48:31 +0000";
layers = (
{
hints = (
{
horizontal = 1;
place = (770,-20);
target = down;
type = TopGhost;
},
{
horizontal = 1;
place = (540,-20);
target = down;
type = TopGhost;
},
{
horizontal = 1;
place = (736,44);
type = Stem;
},
{
horizontal = 1;
place = (-9,44);
type = Stem;
},
{
horizontal = 1;
place = (-125,67);
type = Stem;
},
{
horizontal = 1;
place = (-257,37);
type = Stem;
},
{
horizontal = 1;
place = (0,21);
target = up;
type = BottomGhost;
},
{
place = (458,75);
type = Stem;
},
{
place = (56,126);
type = Stem;
}
);
layerId = m01;
shapes = (
{
closed = 1;
nodes = (
(350,-124,l),
(359,-133,l),
(375,-128,o),
(395,-125,o),
(410,-125,cs),
(441,-125,o),
(458,-141,o),
(458,-168,cs),
(458,-198,o),
(433,-220,o),
(393,-220,cs),
(373,-220,o),
(360,-216,o),
(337,-203,c),
(323,-233,l),
(340,-248,o),
(370,-257,o),
(401,-257,cs),
(482,-257,o),
(533,-214,o),
(533,-156,cs),
(533,-100,o),
(489,-58,o),
(418,-58,c),
(436,-9,l),
(399,-9,l)
);
},
{
ref = C;
}
);
width = 774;
}
);
note = Ccedilla;
unicode = 199;
},
{
glyphname = Ccircumflex;
kernLeft = C;
lastChange = "2023-12-30 23:48:36 +0000";
layers = (
{
hints = (
{
horizontal = 1;
place = (770,-20);
target = down;
type = TopGhost;
},
{
horizontal = 1;
place = (540,-20);
target = down;
type = TopGhost;
},
{
horizontal = 1;
place = (736,224);
type = Stem;
},
{
horizontal = 1;
place = (736,44);
type = Stem;
},
{
horizontal = 1;
place = (-10,45);
type = Stem;
},
{
horizontal = 1;
place = (0,21);
target = up;
type = BottomGhost;
},
{
place = (56,126);
type = Stem;
}
);
layerId = m01;
shapes = (
{
closed = 1;
nodes = (
(408,960,o),
(397,950,o),
(380,933,cs),
(286,837,l),
(306,820,l),
(433,878,l),
(562,820,l),
(581,837,l),
(488,933,ls),
(469,952,o),
(456,960,o),
(433,960,cs)
);
},
{
ref = C;
}
);
width = 774;
}
);
note = Ccircumflex;
unicode = 264;
},
{
glyphname = Cdotaccent;
kernLeft = C;
lastChange = "2023-12-30 23:48:38 +0000";
layers = (
{
hints = (
{
horizontal = 1;
place = (770,-20);
target = down;
type = TopGhost;
},
{
horizontal = 1;
place = (540,-20);
target = down;
type = TopGhost;
},
{
horizontal = 1;
place = (830,129);
type = Stem;
},
{
horizontal = 1;
place = (736,44);
type = Stem;
},
{
horizontal = 1;
place = (-10,45);
type = Stem;
},
{
horizontal = 1;
place = (0,21);
target = up;
type = BottomGhost;
},
{
place = (377,129);
type = Stem;
},
{
place = (56,126);
type = Stem;
}
);
layerId = m01;
shapes = (
{
closed = 1;
nodes = (
(377,859,o),
(402,830,o),
(441,830,cs),
(481,830,o),
(506,859,o),
(506,894,cs),
(506,931,o),
(481,959,o),
(441,959,cs),
(402,959,o),
(377,931,o),
(377,894,cs)
);
},
{
ref = C;
}
);
width = 774;
}
);
note = Cdotaccent;
unicode = 266;
},
{
glyphname = Dcaron;
kernLeft = B;
kernRight = D;
lastChange = "2023-12-30 23:48:47 +0000";
layers = (
{
hints = (
{
horizontal = 1;
place = (960,-20);
target = down;
type = TopGhost;
},
{
horizontal = 1;
place = (770,50);
type = Stem;
},
{
horizontal = 1;
place = (730,40);
type = Stem;
},
{
horizontal = 1;
place = (0,38);
type = Stem;
},
{
place = (628,125);
type = Stem;
},
{
place = (134,105);
type = Stem;
}
);
layerId = m01;
shapes = (
{
closed = 1;
nodes = (
(407,820,o),
(420,828,o),
(439,847,cs),
(532,943,l),
(513,960,l),
(384,902,l),
(257,960,l),
(237,943,l),
(331,847,ls),
(348,830,o),
(359,820,o),
(384,820,cs)
);
},
{
ref = B;
}
);
width = 810;
}
);
note = Dcaron;
unicode = 270;
},
{
glyphname = Dcroat;
kernLeft = B;
kernRight = D;
lastChange = "2023-12-30 23:49:07 +0000";
layers = (
{
hints = (
{
horizontal = 1;
place = (730,40);
type = Stem;
},
{
horizontal = 1;
place = (364,65);
type = Stem;
},
{
horizontal = 1;
place = (0,38);
type = Stem;
},
{
place = (629,125);
type = Stem;
},
{
place = (135,105);
type = Stem;
}
);
layerId = m01;
shapes = (
{
closed = 1;
nodes = (
(363,429,l),
(56,429,l),
(56,364,l),
(363,364,l)
);
},
{
ref = B;
}
);
width = 811;
}
);
note = Dcroat;
unicode = 272;
},
{
glyphname = Ddotbelow;
kernLeft = B;
kernRight = D;
lastChange = "2023-12-30 23:49:12 +0000";
layers = (
{
hints = (
{
horizontal = 1;
place = (730,40);
type = Stem;
},
{
horizontal = 1;
place = (0,38);
type = Stem;
},
{
horizontal = 1;
place = (-256,129);
type = Stem;
},
{
place = (628,125);
type = Stem;
},
{
place = (335,129);
type = Stem;
},
{
place = (134,105);
type = Stem;
}
);
layerId = m01;
shapes = (
{
closed = 1;
nodes = (
(335,-227,o),
(360,-256,o),
(399,-256,cs),
(439,-256,o),
(464,-227,o),
(464,-192,cs),
(464,-155,o),
(439,-127,o),
(399,-127,cs),
(360,-127,o),
(335,-155,o),
(335,-192,cs)
);
},
{
ref = B;
}
);
width = 810;
}
);
note = Ddotbelow;
unicode = 7692;
},
{
glyphname = E;
kernLeft = B;
kernRight = AE;
lastChange = "2023-12-30 23:49:48 +0000";
layers = (
{
hints = (
{
horizontal = 1;
place = (550,-20);
target = down;
type = TopGhost;
},
{
horizontal = 1;
place = (546,-20);
target = down;
type = TopGhost;
},
{
horizontal = 1;
place = (730,40);
type = Stem;
},
{
horizontal = 1;
place = (386,40);
type = Stem;
},
{
horizontal = 1;
place = (0,40);
type = Stem;
},
{
place = (134,105);
type = Stem;
}
);
layerId = m01;
shapes = (
{
closed = 1;
nodes = (
(437,466,o),
(448,506,o),
(455,546,c),
(479,546,l),
(479,266,l),
(455,266,l),
(449,306,o),
(437,346,o),
(418,386,c),
(418,426,l)
);
},
{
ref = B;
},
{
closed = 1;
nodes = (
(605,770,l),
(622,550,l),
(598,550,l),
(582,607,o),
(559,673,o),
(526,730,c),
(525,770,l)
);
},
{
closed = 1;
nodes = (
(561,105,o),
(583,169,o),
(605,234,c),
(638,234,l),
(601,0,l),
(520,0,l),
(521,40,l)
);
}
);
width = 692;
}
);
note = E;
unicode = 69;
},
{
glyphname = Eacute;
kernLeft = B;
kernRight = AE;
lastChange = "2023-12-30 23:49:57 +0000";
layers = (
{
hints = (
{
horizontal = 1;
place = (550,-20);
target = down;
type = TopGhost;
},
{
horizontal = 1;
place = (546,-20);
target = down;
type = TopGhost;
},
{
horizontal = 1;
place = (730,230);
type = Stem;
},
{
horizontal = 1;
place = (730,40);
type = Stem;
},
{
horizontal = 1;
place = (386,40);
type = Stem;
},
{
horizontal = 1;
place = (0,40);
type = Stem;
},
{
place = (134,105);
type = Stem;
}
);
layerId = m01;
shapes = (
{
closed = 1;
nodes = (
(265,816,l),
(417,860,ls),
(469,875,o),
(485,894,o),
(485,917,cs),
(485,942,o),
(464,960,o),
(442,960,cs),
(426,960,o),
(413,955,o),
(398,944,cs),
(254,837,l)
);
},
{
ref = E;
}
);
width = 692;
}
);
note = Eacute;
unicode = 201;
},
{
glyphname = Ebreve;
kernLeft = B;
kernRight = AE;
lastChange = "2023-12-30 23:50:00 +0000";
layers = (
{
hints = (
{
horizontal = 1;
place = (550,-20);
target = down;
type = TopGhost;
},
{
horizontal = 1;
place = (546,-20);
target = down;
type = TopGhost;
},
{
horizontal = 1;
place = (830,129);
type = Stem;
},
{
horizontal = 1;
place = (830,74);
type = Stem;
},
{
horizontal = 1;
place = (730,40);
type = Stem;
},
{
horizontal = 1;
place = (386,40);
type = Stem;
},
{
horizontal = 1;
place = (0,40);
type = Stem;
},
{
place = (134,105);
type = Stem;
}
);
layerId = m01;
shapes = (
{
closed = 1;
nodes = (
(219,959,l),
(230,862,o),
(298,830,o),
(356,830,cs),
(399,830,o),
(471,844,o),
(503,959,c),
(469,959,l),
(446,920,o),
(404,904,o),
(360,904,cs),
(313,904,o),
(270,920,o),
(254,959,c)
);
},
{
ref = E;
}
);
width = 692;
}
);
note = Ebreve;
unicode = 276;
},
{
glyphname = Ecaron;
kernLeft = B;
kernRight = AE;
lastChange = "2023-12-30 23:50:03 +0000";
layers = (
{
hints = (
{
horizontal = 1;
place = (960,-20);
target = down;
type = TopGhost;
},
{
horizontal = 1;
place = (550,-20);
target = down;
type = TopGhost;
},
{
horizontal = 1;
place = (546,-20);
target = down;
type = TopGhost;
},
{
horizontal = 1;
place = (770,50);
type = Stem;
},
{
horizontal = 1;
place = (730,40);
type = Stem;
},
{
horizontal = 1;
place = (386,40);
type = Stem;
},
{
horizontal = 1;
place = (0,40);
type = Stem;
},
{
place = (134,105);
type = Stem;
}
);
layerId = m01;
shapes = (
{
closed = 1;
nodes = (
(375,820,o),
(388,828,o),
(407,847,cs),
(500,943,l),
(481,960,l),
(352,902,l),
(225,960,l),
(205,943,l),
(299,847,ls),
(316,830,o),
(327,820,o),
(352,820,cs)
);
},
{
ref = E;
}
);
width = 692;
}
);
note = Ecaron;
unicode = 282;
},
{
glyphname = Ecircumflex;
kernLeft = B;
kernRight = AE;
lastChange = "2023-12-30 23:50:07 +0000";
layers = (
{
hints = (
{
horizontal = 1;
place = (550,-20);
target = down;
type = TopGhost;
},
{
horizontal = 1;
place = (546,-20);
target = down;
type = TopGhost;
},
{
horizontal = 1;
place = (730,230);
type = Stem;
},
{
horizontal = 1;
place = (730,40);
type = Stem;
},
{
horizontal = 1;
place = (386,40);
type = Stem;
},
{
horizontal = 1;
place = (0,40);
type = Stem;
},
{
place = (134,105);
type = Stem;
}
);
layerId = m01;
shapes = (
{
closed = 1;
nodes = (
(339,960,o),
(328,950,o),
(311,933,cs),
(217,837,l),
(237,820,l),
(364,878,l),
(493,820,l),
(512,837,l),
(419,933,ls),
(400,952,o),
(387,960,o),
(364,960,cs)
);
},
{
ref = E;
}
);
width = 692;
}
);
note = Ecircumflex;
unicode = 202;
},
{
glyphname = Edieresis;
kernLeft = B;
kernRight = AE;
lastChange = "2023-12-30 23:50:11 +0000";
layers = (
{
hints = (
{
horizontal = 1;
place = (550,-20);
target = down;
type = TopGhost;
},
{
horizontal = 1;
place = (546,-20);
target = down;
type = TopGhost;
},
{
horizontal = 1;
place = (830,110);
type = Stem;
},
{
horizontal = 1;
place = (730,40);
type = Stem;
},
{
horizontal = 1;
place = (386,40);
type = Stem;
},
{
horizontal = 1;
place = (0,40);
type = Stem;
},
{
place = (395,110);
type = Stem;
},
{
place = (208,110);
type = Stem;
},
{
place = (134,105);
type = Stem;
}
);
layerId = m01;
shapes = (
{
closed = 1;
nodes = (
(208,855,o),
(230,830,o),
(263,830,cs),
(297,830,o),
(318,855,o),
(318,885,cs),
(318,917,o),
(297,940,o),
(263,940,cs),
(230,940,o),
(208,917,o),
(208,885,cs)
);
},
{
closed = 1;
nodes = (
(395,855,o),
(417,830,o),
(450,830,cs),
(484,830,o),
(505,855,o),
(505,885,cs),
(505,917,o),
(484,940,o),
(450,940,cs),
(417,940,o),
(395,917,o),
(395,885,cs)
);
},
{
ref = E;
}
);
width = 692;
}
);
note = Edieresis;
unicode = 203;
},
{
glyphname = Edotaccent;
kernLeft = B;
kernRight = AE;
lastChange = "2023-12-30 23:50:13 +0000";
layers = (
{
hints = (
{
horizontal = 1;
place = (550,-20);
target = down;
type = TopGhost;
},
{
horizontal = 1;
place = (546,-20);
target = down;
type = TopGhost;
},
{
horizontal = 1;
place = (830,129);
type = Stem;
},
{
horizontal = 1;
place = (730,40);
type = Stem;
},
{
horizontal = 1;
place = (386,40);
type = Stem;
},
{
horizontal = 1;
place = (0,40);
type = Stem;
},
{
place = (303,129);
type = Stem;
},
{
place = (134,105);
type = Stem;
}
);
layerId = m01;
shapes = (
{
closed = 1;
nodes = (
(303,859,o),
(328,830,o),
(367,830,cs),
(407,830,o),
(432,859,o),
(432,894,cs),
(432,931,o),
(407,959,o),
(367,959,cs),
(328,959,o),
(303,931,o),
(303,894,cs)
);
},
{
ref = E;
}
);
width = 692;
}
);
note = Edotaccent;
unicode = 278;
},
{
glyphname = Edotbelow;
kernLeft = B;
kernRight = AE;
lastChange = "2023-12-30 23:50:15 +0000";
layers = (
{
hints = (
{
horizontal = 1;
place = (550,-20);
target = down;
type = TopGhost;
},
{
horizontal = 1;
place = (546,-20);
target = down;
type = TopGhost;
},
{
horizontal = 1;
place = (730,40);
type = Stem;
},
{
horizontal = 1;
place = (386,40);
type = Stem;
},
{
horizontal = 1;
place = (0,40);
type = Stem;
},
{
horizontal = 1;
place = (-256,129);
type = Stem;
},
{
place = (294,129);
type = Stem;
},
{
place = (134,105);
type = Stem;
}
);
layerId = m01;
shapes = (
{
closed = 1;
nodes = (
(294,-227,o),
(319,-256,o),
(358,-256,cs),
(398,-256,o),
(423,-227,o),
(423,-192,cs),
(423,-155,o),
(398,-127,o),
(358,-127,cs),
(319,-127,o),
(294,-155,o),
(294,-192,cs)
);
},
{
ref = E;
}
);
width = 692;
}
);
note = Edotbelow;
unicode = 7864;
},
{
glyphname = Egrave;
kernLeft = B;
kernRight = AE;
lastChange = "2023-12-30 23:50:18 +0000";
layers = (
{
hints = (
{
horizontal = 1;
place = (550,-20);
target = down;
type = TopGhost;
},
{
horizontal = 1;
place = (546,-20);
target = down;
type = TopGhost;
},
{
horizontal = 1;
place = (730,230);
type = Stem;
},
{
horizontal = 1;
place = (730,40);
type = Stem;
},
{
horizontal = 1;
place = (386,40);
type = Stem;
},
{
horizontal = 1;
place = (0,40);
type = Stem;
},
{
place = (134,105);
type = Stem;
}
);
layerId = m01;
shapes = (
{
closed = 1;
nodes = (
(452,837,l),
(308,944,ls),
(293,955,o),
(280,960,o),
(264,960,cs),
(242,960,o),
(221,942,o),
(221,917,cs),
(221,894,o),
(237,875,o),
(289,860,cs),
(441,816,l)
);
},
{
ref = E;
}
);
width = 692;
}
);
note = Egrave;
unicode = 200;
},
{
glyphname = Emacron;
kernLeft = B;
kernRight = AE;
lastChange = "2023-12-30 23:50:20 +0000";
layers = (
{
hints = (
{
horizontal = 1;
place = (550,-20);
target = down;
type = TopGhost;
},
{
horizontal = 1;
place = (546,-20);
target = down;
type = TopGhost;
},
{
horizontal = 1;
place = (877,71);
type = Stem;
},
{
horizontal = 1;
place = (730,40);
type = Stem;
},
{
horizontal = 1;
place = (386,40);
type = Stem;
},
{
horizontal = 1;
place = (0,40);
type = Stem;
},
{
place = (134,105);
type = Stem;
}
);
layerId = m01;
shapes = (
{
closed = 1;
nodes = (
(501,877,l),
(501,948,l),
(214,948,l),
(214,877,l)
);
},
{
ref = E;
}
);
width = 692;
}
);
note = Emacron;
unicode = 274;
},
{
glyphname = Eng;
kernLeft = Eng;
kernRight = Eng;
lastChange = "2023-12-30 23:50:56 +0000";
layers = (
{
hints = (
{
horizontal = 1;
place = (770,-20);
target = down;
type = TopGhost;
},
{
horizontal = 1;
place = (-260,152);
type = Stem;
},
{
horizontal = 1;
place = (-260,52);
type = Stem;
},
{
horizontal = 1;
place = (0,21);
target = up;
type = BottomGhost;
},
{
place = (659,40);
type = Stem;
},
{
place = (594,105);
type = Stem;
},
{
place = (135,40);
type = Stem;
}
);
layerId = m01;
shapes = (
{
closed = 1;
nodes = (
(264,23,l),
(264,0,l),
(45,0,l),
(45,23,l),
(135,42,l),
(175,42,l)
);
},
{
closed = 1;
nodes = (
(570,747,l),
(570,770,l),
(789,770,l),
(789,747,l),
(699,728,l),
(659,728,l)
);
},
{
closed = 1;
nodes = (
(486,-208,o),
(465,-192,o),
(451,-154,cs),
(440,-124,o),
(424,-108,o),
(396,-108,cs),
(360,-108,o),
(337,-133,o),
(337,-173,cs),
(337,-227,o),
(383,-260,o),
(457,-260,c),
(512,-208,l)
);
},
{
closed = 1;
nodes = (
(45,747,l),
(45,770,l),
(135,770,l),
(135,728,l)
);
}
);
width = 827;
}
);
note = Eng;
unicode = 330;
},
{
glyphname = Eogonek;
kernLeft = B;
kernRight = AE;
lastChange = "2023-12-30 23:51:45 +0000";
layers = (
{
hints = (
{
horizontal = 1;
place = (550,-20);
target = down;
type = TopGhost;
},
{
horizontal = 1;
place = (546,-20);
target = down;
type = TopGhost;
},
{
horizontal = 1;
place = (730,40);
type = Stem;
},
{
horizontal = 1;
place = (386,40);
type = Stem;
},
{
horizontal = 1;
place = (0,40);
type = Stem;
},
{
horizontal = 1;
place = (-256,55);
type = Stem;
},
{
place = (385,94);
type = Stem;
},
{
place = (134,105);
type = Stem;
},
{
horizontal = 1;
place = (550,-20);
target = down;
type = TopGhost;
},
{
horizontal = 1;
place = (546,-20);
target = down;
type = TopGhost;
},
{
horizontal = 1;
place = (730,40);
type = Stem;
},
{
horizontal = 1;
place = (386,40);
type = Stem;
},
{
horizontal = 1;
place = (0,40);
type = Stem;
},
{
place = (134,105);
type = Stem;
}
);
layerId = m01;
shapes = (
{
closed = 1;
nodes = (
(530,-256,o),
(565,-239,o),
(597,-202,c),
(582,-180,l),
(560,-195,o),
(545,-201,o),
(526,-201,cs),
(491,-201,o),
(473,-182,o),
(473,-144,cs),
(473,-102,o),
(496,-55,o),
(542,0,c),
(521,40,l),
(499,0,l),
(428,-54,o),
(385,-116,o),
(385,-168,cs),
(385,-222,o),
(425,-256,o),
(487,-256,cs)
);
},
{
ref = B;
},
{
closed = 1;
nodes = (
(601,0,l),
(638,234,l),
(605,234,l),
(583,169,o),
(561,105,o),
(521,40,c),
(520,0,l)
);
},
{
closed = 1;
nodes = (
(479,266,l),
(479,546,l),
(455,546,l),
(448,506,o),
(437,466,o),
(418,426,c),
(418,386,l),
(437,346,o),
(449,306,o),
(455,266,c)
);
},
{
closed = 1;
nodes = (
(622,550,l),
(605,770,l),
(525,770,l),
(526,730,l),
(559,673,o),
(582,607,o),
(598,550,c)
);
}
);
width = 692;
}
);
note = Eogonek;
unicode = 280;
},
{
glyphname = Etilde;
kernLeft = B;
kernRight = AE;
lastChange = "2023-12-30 23:52:11 +0000";
layers = (
{
hints = (
{
horizontal = 1;
place = (960,-20);
target = down;
type = TopGhost;
},
{
horizontal = 1;
place = (550,-20);
target = down;
type = TopGhost;
},
{
horizontal = 1;
place = (546,-20);
target = down;
type = TopGhost;
},
{
horizontal = 1;
place = (881,76);
type = Stem;
},
{
horizontal = 1;
place = (881,41);
type = Stem;
},
{
horizontal = 1;
place = (842,80);
type = Stem;
},
{
horizontal = 1;
place = (730,40);
type = Stem;
},
{
horizontal = 1;
place = (386,40);
type = Stem;
},
{
horizontal = 1;
place = (0,40);
type = Stem;
},
{
place = (134,105);
type = Stem;
}
);
layerId = m01;
shapes = (
{
closed = 1;
nodes = (
(235,843,l),
(238,867,o),
(257,881,o),
(286,881,cs),
(333,881,o),
(387,842,o),
(434,842,cs),
(483,842,o),
(518,891,o),
(518,960,c),
(494,960,l),
(489,935,o),
(472,922,o),
(444,922,cs),
(399,922,o),
(341,957,o),
(295,957,cs),
(246,957,o),
(211,910,o),
(211,843,c)
);
},
{
ref = E;
}
);
width = 692;
}
);
note = Etilde;
unicode = 7868;
},
{
glyphname = Euro;
lastChange = "2023-12-30 23:52:53 +0000";
layers = (
{
hints = (
{
horizontal = 1;
place = (739,41);
type = Stem;
},
{
horizontal = 1;
place = (591,189);
type = Stem;
},
{
horizontal = 1;
place = (421,44);
type = Stem;
},
{
horizontal = 1;
place = (300,44);
type = Stem;
},
{
horizontal = 1;
place = (-10,199);
type = Stem;
},
{
horizontal = 1;
place = (-10,41);
type = Stem;
},
{
place = (124,124);
type = Stem;
}
);
layerId = m01;
shapes = (
{
closed = 1;
nodes = (
(45,344,l),
(35,300,l),
(466,300,l),
(476,344,l)
);
},
{
closed = 1;
nodes = (
(496,465,l),
(486,421,l),
(55,421,l),
(65,465,l)
);
},
{
closed = 1;
nodes = (
(501,780,o),
(579,722,o),
(579,651,cs),
(579,614,o),
(558,591,o),
(525,591,cs),
(493,591,o),
(472,615,o),
(464,659,cs),
(453,716,o),
(429,739,o),
(385,739,c),
(403,780,l)
);
},
{
closed = 1;
nodes = (
(422,31,o),
(447,63,o),
(459,121,cs),
(469,166,o),
(490,189,o),
(524,189,cs),
(559,189,o),
(579,167,o),
(579,127,cs),
(579,50,o),
(500,-10,o),
(398,-10,c),
(380,31,l)
);
}
);
width = 639;
}
);
note = Euro;
unicode = 8364;
},
{
glyphname = F;
kernLeft = B;
lastChange = "2023-12-30 23:53:45 +0000";
layers = (
{
hints = (
{
horizontal = 1;
place = (550,-20);
target = down;
type = TopGhost;
},
{
horizontal = 1;
place = (546,-20);
target = down;
type = TopGhost;
},
{
horizontal = 1;
place = (730,40);
type = Stem;
},
{
horizontal = 1;
place = (386,40);
type = Stem;
},
{
horizontal = 1;
place = (0,21);
target = up;
type = BottomGhost;
},
{
place = (134,105);
type = Stem;
}
);
layerId = m01;
shapes = (
{
closed = 1;
nodes = (
(49,23,l),
(49,0,l),
(353,0,l),
(353,23,l),
(239,42,l),
(134,42,l)
);
},
{
closed = 1;
nodes = (
(437,466,o),
(448,506,o),
(455,546,c),
(479,546,l),
(479,266,l),
(455,266,l),
(449,306,o),
(437,346,o),
(418,386,c),
(418,426,l)
);
},
{
closed = 1;
nodes = (
(49,770,l),
(49,747,l),
(134,728,l),
(135,770,l)
);
},
{
closed = 1;
nodes = (
(605,770,l),
(622,550,l),
(598,550,l),
(582,607,o),
(559,673,o),
(526,730,c),
(525,770,l)
);
}
);
width = 650;
}
);
note = F;
unicode = 70;
},
{
glyphname = G;
kernLeft = G;
kernRight = G;
lastChange = "2023-12-30 23:54:04 +0000";
layers = (
{
hints = (
{
horizontal = 1;
place = (770,-20);
target = down;
type = TopGhost;
},
{
horizontal = 1;
place = (540,-20);
target = down;
type = TopGhost;
},
{
horizontal = 1;
place = (735,45);
type = Stem;
},
{
horizontal = 1;
place = (-10,46);
type = Stem;
},
{
place = (586,105);
type = Stem;
},
{
place = (55,128);
type = Stem;
}
);
layerId = m01;
shapes = (
{
closed = 1;
nodes = (
(780,363,l),
(780,386,l),
(496,386,l),
(496,363,l),
(586,344,l),
(691,344,l)
);
},
{
closed = 1;
nodes = (
(680,770,l),
(702,770,l),
(702,540,l),
(679,540,l),
(650,605,o),
(623,650,o),
(591,681,c),
(626,719,l)
);
}
);
width = 808;
}
);
note = G;
unicode = 71;
},
{
glyphname = Gbreve;
kernLeft = G;
kernRight = G;
lastChange = "2023-12-30 23:54:10 +0000";
layers = (
{
hints = (
{
horizontal = 1;
place = (770,-20);
target = down;
type = TopGhost;
},
{
horizontal = 1;
place = (540,-20);
target = down;
type = TopGhost;
},
{
horizontal = 1;
place = (830,129);
type = Stem;
},
{
horizontal = 1;
place = (830,74);
type = Stem;
},
{
horizontal = 1;
place = (735,45);
type = Stem;
},
{
horizontal = 1;
place = (-10,46);
type = Stem;
},
{
place = (586,105);
type = Stem;
},
{
place = (55,128);
type = Stem;
}
);
layerId = m01;
shapes = (
{
closed = 1;
nodes = (
(300,959,l),
(311,862,o),
(379,830,o),
(437,830,cs),
(480,830,o),
(552,844,o),
(584,959,c),
(550,959,l),
(527,920,o),
(485,904,o),
(441,904,cs),
(394,904,o),
(351,920,o),
(335,959,c)
);
},
{
ref = G;
}
);
width = 808;
}
);
note = Gbreve;
unicode = 286;
},
{
glyphname = Gcircumflex;
kernLeft = G;
kernRight = G;
lastChange = "2023-12-30 23:54:12 +0000";
layers = (
{
hints = (
{
horizontal = 1;
place = (770,-20);
target = down;
type = TopGhost;
},
{
horizontal = 1;
place = (540,-20);
target = down;
type = TopGhost;
},
{
horizontal = 1;
place = (735,225);
type = Stem;
},
{
horizontal = 1;
place = (735,45);
type = Stem;
},
{
horizontal = 1;
place = (-10,46);
type = Stem;
},
{
place = (586,105);
type = Stem;
},
{
place = (55,128);
type = Stem;
}
);
layerId = m01;
shapes = (
{
closed = 1;
nodes = (
(412,960,o),
(401,950,o),
(384,933,cs),
(290,837,l),
(310,820,l),
(437,878,l),
(566,820,l),
(585,837,l),
(492,933,ls),
(473,952,o),
(460,960,o),
(437,960,cs)
);
},
{
ref = G;
}
);
width = 808;
}
);
note = Gcircumflex;
unicode = 284;
},
{
glyphname = Gcommaaccent;
kernLeft = G;
kernRight = G;
lastChange = "2023-12-30 23:54:15 +0000";
layers = (
{
hints = (
{
horizontal = 1;
place = (770,-20);
target = down;
type = TopGhost;
},
{
horizontal = 1;
place = (540,-20);
target = down;
type = TopGhost;
},
{
horizontal = 1;
place = (735,45);
type = Stem;
},
{
horizontal = 1;
place = (-10,46);
type = Stem;
},
{
horizontal = 1;
place = (-44,34);
type = Stem;
},
{
horizontal = 1;
place = (-246,21);
target = up;
type = BottomGhost;
},
{
place = (586,105);
type = Stem;
},
{
place = (420,61);
type = Stem;
},
{
place = (371,110);
type = Stem;
},
{
place = (55,128);
type = Stem;
}
);
layerId = m01;
shapes = (
{
closed = 1;
nodes = (
(393,-246,l),
(451,-212,o),
(481,-167,o),
(481,-110,cs),
(481,-74,o),
(459,-44,o),
(427,-44,cs),
(395,-44,o),
(371,-66,o),
(371,-95,cs),
(371,-142,o),
(420,-134,o),
(420,-170,cs),
(420,-183,o),
(402,-205,o),
(377,-222,c)
);
},
{
ref = G;
}
);
width = 808;
}
);
note = Gcommaaccent;
unicode = 290;
},
{
glyphname = Gdotaccent;
kernLeft = G;
kernRight = G;
lastChange = "2023-12-30 23:54:17 +0000";
layers = (
{
hints = (
{
horizontal = 1;
place = (770,-20);
target = down;
type = TopGhost;
},
{
horizontal = 1;
place = (540,-20);
target = down;
type = TopGhost;
},
{
horizontal = 1;
place = (830,129);
type = Stem;
},
{
horizontal = 1;
place = (735,45);
type = Stem;
},
{
horizontal = 1;
place = (-10,46);
type = Stem;
},
{
place = (586,105);
type = Stem;
},
{
place = (380,129);
type = Stem;
},
{
place = (55,128);
type = Stem;
}
);
layerId = m01;
shapes = (
{
closed = 1;
nodes = (
(380,859,o),
(405,830,o),
(444,830,cs),
(484,830,o),
(509,859,o),
(509,894,cs),
(509,931,o),
(484,959,o),
(444,959,cs),
(405,959,o),
(380,931,o),
(380,894,cs)
);
},
{
ref = G;
}
);
width = 808;
}
);
note = Gdotaccent;
unicode = 288;
},
{
glyphname = H;
kernLeft = B;
kernRight = H;
lastChange = "2023-12-30 23:54:39 +0000";
layers = (
{
hints = (
{
horizontal = 1;
place = (770,-20);
target = down;
type = TopGhost;
},
{
horizontal = 1;
place = (385,40);
type = Stem;
},
{
horizontal = 1;
place = (0,21);
target = up;
type = BottomGhost;
},
{
place = (618,105);
type = Stem;
},
{
place = (135,105);
type = Stem;
}
);
layerId = m01;
shapes = (
{
closed = 1;
nodes = (
(812,21,l),
(812,0,l),
(528,0,l),
(528,23,l),
(618,42,l),
(723,42,l)
);
},
{
closed = 1;
nodes = (
(528,747,l),
(528,770,l),
(812,770,l),
(812,745,l),
(723,728,l),
(618,728,l)
);
},
{
closed = 1;
nodes = (
(45,747,l),
(45,770,l),
(329,770,l),
(329,747,l),
(240,728,l),
(135,728,l)
);
},
{
closed = 1;
nodes = (
(329,23,l),
(329,0,l),
(45,0,l),
(45,23,l),
(135,42,l),
(240,42,l)
);
}
);
width = 857;
}
);
note = H;
unicode = 72;
},
{
glyphname = Hbar;
kernLeft = B;
kernRight = H;
lastChange = "2023-12-30 23:54:45 +0000";
layers = (
{
hints = (
{
horizontal = 1;
place = (547,223);
type = Stem;
},
{
horizontal = 1;
place = (547,65);
type = Stem;
},
{
horizontal = 1;
place = (385,40);
type = Stem;
},
{
horizontal = 1;
place = (0,21);
target = up;
type = BottomGhost;
},
{
place = (618,105);
type = Stem;
},
{
place = (135,105);
type = Stem;
}
);
layerId = m01;
shapes = (
{
closed = 1;
nodes = (
(723,547,l),
(813,547,l),
(813,612,l),
(723,612,l),
(618,612,l),
(240,612,l),
(135,612,l),
(55,612,l),
(55,547,l),
(135,547,l)
);
},
{
closed = 1;
nodes = (
(240,547,l),
(618,547,l)
);
},
{
ref = H;
}
);
width = 858;
}
);
note = Hbar;
unicode = 294;
},
{
glyphname = Hcircumflex;
kernLeft = B;
kernRight = H;
lastChange = "2023-12-30 23:54:48 +0000";
layers = (
{
hints = (
{
horizontal = 1;
place = (960,-20);
target = down;
type = TopGhost;
},
{
horizontal = 1;
place = (770,-20);
target = down;
type = TopGhost;
},
{
horizontal = 1;
place = (385,40);
type = Stem;
},
{
horizontal = 1;
place = (0,21);
target = up;
type = BottomGhost;
},
{
place = (618,105);
type = Stem;
},
{
place = (135,105);
type = Stem;
}
);
layerId = m01;
shapes = (
{
closed = 1;
nodes = (
(407,960,o),
(396,950,o),
(379,933,cs),
(285,837,l),
(305,820,l),
(432,878,l),
(561,820,l),
(580,837,l),
(487,933,ls),
(468,952,o),
(455,960,o),
(432,960,cs)
);
},
{
ref = H;
}
);
width = 857;
}
);
note = Hcircumflex;
unicode = 292;
},
{
glyphname = Hdotbelow;
kernLeft = B;
kernRight = H;
lastChange = "2023-12-30 23:54:53 +0000";
layers = (
{
hints = (
{
horizontal = 1;
place = (770,-20);
target = down;
type = TopGhost;
},
{
horizontal = 1;
place = (385,40);
type = Stem;
},
{
horizontal = 1;
place = (-256,129);
type = Stem;
},
{
horizontal = 1;
place = (0,21);
target = up;
type = BottomGhost;
},
{
place = (618,105);
type = Stem;
},
{
place = (368,129);
type = Stem;
},
{
place = (135,105);
type = Stem;
}
);
layerId = m01;
shapes = (
{
closed = 1;
nodes = (
(368,-227,o),
(393,-256,o),
(432,-256,cs),
(472,-256,o),
(497,-227,o),
(497,-192,cs),
(497,-155,o),
(472,-127,o),
(432,-127,cs),
(393,-127,o),
(368,-155,o),
(368,-192,cs)
);
},
{
ref = H;
}
);
width = 857;
}
);
note = Hdotbelow;
unicode = 7716;
},
{
glyphname = I;
kernLeft = B;
kernRight = H;
lastChange = "2023-12-30 23:55:05 +0000";
layers = (
{
hints = (
{
horizontal = 1;
place = (770,-20);
target = down;
type = TopGhost;
},
{
horizontal = 1;
place = (0,21);
target = up;
type = BottomGhost;
},
{
place = (135,105);
type = Stem;
}
);
layerId = m01;
shapes = (
{
closed = 1;
nodes = (
(329,23,l),
(329,0,l),
(45,0,l),
(45,23,l),
(135,42,l),
(240,42,l)
);
},
{
closed = 1;
nodes = (
(45,747,l),
(45,770,l),
(329,770,l),
(329,747,l),
(240,728,l),
(135,728,l)
);
}
);
width = 374;
}
);
note = I;
unicode = 73;
},
{
glyphname = IJ;
kernLeft = B;
kernRight = IJ;
lastChange = "2023-12-30 23:55:25 +0000";
layers = (
{
hints = (
{
horizontal = 1;
place = (770,-20);
target = down;
type = TopGhost;
},
{
horizontal = 1;
place = (-260,152);
type = Stem;
},
{
horizontal = 1;
place = (-260,52);
type = Stem;
},
{
horizontal = 1;
place = (0,21);
target = up;
type = BottomGhost;
},
{
place = (502,105);
type = Stem;
},
{
place = (135,105);
type = Stem;
}
);
layerId = m01;
shapes = (
{
ref = I;
},
{
closed = 1;
nodes = (
(696,747,l),
(696,770,l),
(412,770,l),
(412,747,l),
(502,728,l),
(607,728,l)
);
},
{
closed = 1;
nodes = (
(291,-260,o),
(245,-227,o),
(245,-173,cs),
(245,-133,o),
(268,-108,o),
(304,-108,cs),
(332,-108,o),
(348,-124,o),
(359,-154,cs),
(373,-192,o),
(394,-208,o),
(420,-208,c),
(365,-260,l)
);
}
);
width = 736;
}
);
note = IJ;
unicode = 306;
},
{
glyphname = Iacute;
kernLeft = B;
kernRight = H;
lastChange = "2023-12-30 23:56:50 +0000";
layers = (
{
hints = (
{
horizontal = 1;
place = (970,-20);
target = down;
type = TopGhost;
},
{
horizontal = 1;
place = (770,-20);
target = down;
type = TopGhost;
},
{
horizontal = 1;
place = (0,21);
target = up;
type = BottomGhost;
},
{
place = (135,105);
type = Stem;
}
);
layerId = m01;
shapes = (
{
closed = 1;
nodes = (
(85,826,l),
(237,870,ls),
(289,885,o),
(305,904,o),
(305,927,cs),
(305,952,o),
(284,970,o),
(262,970,cs),
(246,970,o),
(233,965,o),
(218,954,cs),
(74,847,l)
);
},
{
ref = I;
}
);
width = 374;
}
);
note = Iacute;
unicode = 205;
},
{
glyphname = Ibreve;
kernLeft = B;
kernRight = H;
lastChange = "2023-12-30 23:56:53 +0000";
layers = (
{
hints = (
{
horizontal = 1;
place = (770,-20);
target = down;
type = TopGhost;
},
{
horizontal = 1;
place = (830,129);
type = Stem;
},
{
horizontal = 1;
place = (830,74);
type = Stem;
},
{
horizontal = 1;
place = (0,21);
target = up;
type = BottomGhost;
},
{
place = (135,105);
type = Stem;
}
);
layerId = m01;
shapes = (
{
closed = 1;
nodes = (
(46,959,l),
(57,862,o),
(125,830,o),
(183,830,cs),
(226,830,o),
(298,844,o),
(330,959,c),
(296,959,l),
(273,920,o),
(231,904,o),
(187,904,cs),
(140,904,o),
(97,920,o),
(81,959,c)
);
},
{
ref = I;
}
);
width = 374;
}
);
note = Ibreve;
unicode = 300;
},
{
glyphname = Icircumflex;
kernLeft = B;
kernRight = H;
lastChange = "2023-12-30 23:56:56 +0000";
layers = (
{
hints = (
{
horizontal = 1;
place = (961,-20);
target = down;
type = TopGhost;
},
{
horizontal = 1;
place = (770,-20);
target = down;
type = TopGhost;
},
{
horizontal = 1;
place = (0,21);
target = up;
type = BottomGhost;
},
{
place = (135,105);
type = Stem;
}
);
layerId = m01;
shapes = (
{
closed = 1;
nodes = (
(163,961,o),
(152,951,o),
(135,934,cs),
(41,838,l),
(61,821,l),
(188,879,l),
(317,821,l),
(336,838,l),
(243,934,ls),
(224,953,o),
(211,961,o),
(188,961,cs)
);
},
{
ref = I;
}
);
width = 374;
}
);
note = Icircumflex;
unicode = 206;
},
{
glyphname = Idieresis;
kernLeft = B;
kernRight = H;
lastChange = "2023-12-30 23:56:58 +0000";
layers = (
{
hints = (
{
horizontal = 1;
place = (770,-20);
target = down;
type = TopGhost;
},
{
horizontal = 1;
place = (857,110);
type = Stem;
},
{
horizontal = 1;
place = (0,21);
target = up;
type = BottomGhost;
},
{
place = (227,110);
type = Stem;
},
{
place = (135,105);
type = Stem;
},
{
place = (45,105);
type = Stem;
}
);
layerId = m01;
shapes = (
{
closed = 1;
nodes = (
(40,882,o),
(62,857,o),
(95,857,cs),
(129,857,o),
(150,882,o),
(150,912,cs),
(150,944,o),
(129,967,o),
(95,967,cs),
(62,967,o),
(40,944,o),
(40,912,cs)
);
},
{
closed = 1;
nodes = (
(227,882,o),
(249,857,o),
(282,857,cs),
(316,857,o),
(337,882,o),
(337,912,cs),
(337,944,o),
(316,967,o),
(282,967,cs),
(249,967,o),
(227,944,o),
(227,912,cs)
);
},
{
ref = I;
}
);
width = 374;
}
);
note = Idieresis;
unicode = 207;
},
{
glyphname = Idotaccent;
kernLeft = B;
kernRight = H;
lastChange = "2023-12-30 23:57:00 +0000";
layers = (
{
hints = (
{
horizontal = 1;
place = (770,-20);
target = down;
type = TopGhost;
},
{
horizontal = 1;
place = (830,129);
type = Stem;
},
{
horizontal = 1;
place = (0,21);
target = up;
type = BottomGhost;
},
{
place = (135,118);
type = Stem;
},
{
place = (135,105);
type = Stem;
}
);
layerId = m01;
shapes = (
{
closed = 1;
nodes = (
(124,859,o),
(149,830,o),
(188,830,cs),
(228,830,o),
(253,859,o),
(253,894,cs),
(253,931,o),
(228,959,o),
(188,959,cs),
(149,959,o),
(124,931,o),
(124,894,cs)
);
},
{
ref = I;
}
);
width = 374;
}
);
note = Idotaccent;
unicode = 304;
},
{
glyphname = Idotbelow;
kernLeft = B;
kernRight = H;
lastChange = "2023-12-30 23:57:01 +0000";
layers = (
{
hints = (
{
horizontal = 1;
place = (770,-20);
target = down;
type = TopGhost;
},
{
horizontal = 1;
place = (-256,129);
type = Stem;
},
{
horizontal = 1;
place = (0,21);
target = up;
type = BottomGhost;
},
{
place = (135,118);
type = Stem;
},
{
place = (135,105);
type = Stem;
}
);
layerId = m01;
shapes = (
{
closed = 1;
nodes = (
(124,-227,o),
(149,-256,o),
(188,-256,cs),
(228,-256,o),
(253,-227,o),
(253,-192,cs),
(253,-155,o),
(228,-127,o),
(188,-127,cs),
(149,-127,o),
(124,-155,o),
(124,-192,cs)
);
},
{
ref = I;
}
);
width = 374;
}
);
note = Idotbelow;
unicode = 7882;
},
{
glyphname = Igrave;
kernLeft = B;
kernRight = H;
lastChange = "2023-12-30 23:57:03 +0000";
layers = (
{
hints = (
{
horizontal = 1;
place = (960,-20);
target = down;
type = TopGhost;
},
{
horizontal = 1;
place = (770,-20);
target = down;
type = TopGhost;
},
{
horizontal = 1;
place = (0,21);
target = up;
type = BottomGhost;
},
{
place = (135,105);
type = Stem;
}
);
layerId = m01;
shapes = (
{
closed = 1;
nodes = (
(304,837,l),
(160,944,ls),
(145,955,o),
(132,960,o),
(116,960,cs),
(94,960,o),
(73,942,o),
(73,917,cs),
(73,894,o),
(89,875,o),
(141,860,cs),
(293,816,l)
);
},
{
ref = I;
}
);
width = 374;
}
);
note = Igrave;
unicode = 204;
},
{
glyphname = Imacron;
kernLeft = B;
kernRight = H;
lastChange = "2023-12-30 23:57:05 +0000";
layers = (
{
hints = (
{
horizontal = 1;
place = (770,-20);
target = down;
type = TopGhost;
},
{
horizontal = 1;
place = (877,71);
type = Stem;
},
{
horizontal = 1;
place = (0,21);
target = up;
type = BottomGhost;
},
{
place = (135,105);
type = Stem;
}
);
layerId = m01;
shapes = (
{
closed = 1;
nodes = (
(333,877,l),
(333,948,l),
(46,948,l),
(46,877,l)
);
},
{
ref = I;
}
);
width = 374;
}
);
note = Imacron;
unicode = 298;
},
{
glyphname = Iogonek;
kernLeft = B;
kernRight = H;
lastChange = "2023-12-30 23:57:13 +0000";
layers = (
{
hints = (
{
horizontal = 1;
place = (770,-20);
target = down;
type = TopGhost;
},
{
horizontal = 1;
place = (-256,55);
type = Stem;
},
{
horizontal = 1;
place = (0,21);
target = up;
type = BottomGhost;
},
{
place = (135,105);
type = Stem;
},
{
place = (51,88);
type = Stem;
}
);
layerId = m01;
shapes = (
{
closed = 1;
nodes = (
(94,-54,o),
(51,-116,o),
(51,-168,cs),
(51,-222,o),
(91,-256,o),
(153,-256,cs),
(196,-256,o),
(231,-239,o),
(263,-202,c),
(248,-180,l),
(226,-195,o),
(211,-201,o),
(192,-201,cs),
(157,-201,o),
(139,-182,o),
(139,-144,cs),
(139,-102,o),
(162,-55,o),
(208,0,c),
(165,0,l)
);
},
{
ref = I;
}
);
width = 374;
}
);
note = Iogonek;
unicode = 302;
},
{
glyphname = Itilde;
kernLeft = B;
kernRight = H;
lastChange = "2023-12-30 23:57:16 +0000";
layers = (
{
hints = (
{
horizontal = 1;
place = (960,-20);
target = down;
type = TopGhost;
},
{
horizontal = 1;
place = (770,-20);
target = down;
type = TopGhost;
},
{
horizontal = 1;
place = (881,76);
type = Stem;
},
{
horizontal = 1;
place = (881,41);
type = Stem;
},
{
horizontal = 1;
place = (842,80);
type = Stem;
},
{
horizontal = 1;
place = (0,21);
target = up;
type = BottomGhost;
},
{
place = (135,105);
type = Stem;
}
);
layerId = m01;
shapes = (
{
closed = 1;
nodes = (
(59,843,l),
(62,867,o),
(81,881,o),
(110,881,cs),
(157,881,o),
(211,842,o),
(258,842,cs),
(307,842,o),
(342,891,o),
(342,960,c),
(318,960,l),
(313,935,o),
(296,922,o),
(268,922,cs),
(223,922,o),
(165,957,o),
(119,957,cs),
(70,957,o),
(35,910,o),
(35,843,c)
);
},
{
ref = I;
}
);
width = 374;
}
);
note = Itilde;
unicode = 296;
},
{
glyphname = J;
kernLeft = J;
kernRight = IJ;
lastChange = "2023-12-30 23:57:28 +0000";
layers = (
{
hints = (
{
horizontal = 1;
place = (770,-20);
target = down;
type = TopGhost;
},
{
horizontal = 1;
place = (-260,152);
type = Stem;
},
{
horizontal = 1;
place = (-260,52);
type = Stem;
},
{
place = (128,105);
type = Stem;
}
);
layerId = m01;
shapes = (
{
closed = 1;
nodes = (
(322,747,l),
(322,770,l),
(38,770,l),
(38,747,l),
(128,728,l),
(233,728,l)
);
},
{
closed = 1;
nodes = (
(20,-208,o),
(-1,-192,o),
(-15,-154,cs),
(-26,-124,o),
(-42,-108,o),
(-70,-108,cs),
(-106,-108,o),
(-129,-133,o),
(-129,-173,cs),
(-129,-227,o),
(-83,-260,o),
(-9,-260,c),
(46,-208,l)
);
}
);
width = 362;
}
);
note = J;
unicode = 74;
},
{
glyphname = Jcircumflex;
kernLeft = J;
kernRight = IJ;
lastChange = "2023-12-30 23:57:34 +0000";
layers = (
{
hints = (
{
horizontal = 1;
place = (960,-20);
target = down;
type = TopGhost;
},
{
horizontal = 1;
place = (770,-20);
target = down;
type = TopGhost;
},
{
horizontal = 1;
place = (-260,152);
type = Stem;
},
{
horizontal = 1;
place = (-260,52);
type = Stem;
},
{
place = (128,105);
type = Stem;
}
);
layerId = m01;
shapes = (
{
closed = 1;
nodes = (
(156,960,o),
(145,950,o),
(128,933,cs),
(34,837,l),
(54,820,l),
(181,878,l),
(310,820,l),
(329,837,l),
(236,933,ls),
(217,952,o),
(204,960,o),
(181,960,cs)
);
},
{
ref = J;
}
);
width = 362;
}
);
note = Jcircumflex;
unicode = 308;
},
{
glyphname = K;
kernLeft = B;
kernRight = K;
lastChange = "2023-12-30 23:57:59 +0000";
layers = (
{
hints = (
{
horizontal = 1;
place = (747,23);
type = Stem;
},
{
horizontal = 1;
place = (0,21);
target = up;
type = BottomGhost;
},
{
place = (135,105);
type = Stem;
}
);
layerId = m01;
shapes = (
{
closed = 1;
nodes = (
(329,747,l),
(329,770,l),
(45,770,l),
(45,747,l),
(135,728,l),
(240,728,l)
);
},
{
closed = 1;
nodes = (
(534,699,o),
(539,709,o),
(539,717,cs),
(539,734,o),
(514,743,o),
(455,747,c),
(455,770,l),
(719,770,l),
(719,747,l),
(627,731,o),
(605,722,o),
(573,685,c),
(523,687,l)
);
},
{
closed = 1;
nodes = (
(807,23,l),
(807,0,l),
(590,0,l),
(696,42,l)
);
},
{
closed = 1;
nodes = (
(45,23,l),
(45,0,l),
(329,0,l),
(329,23,l),
(240,42,l),
(135,42,l)
);
}
);
width = 783;
}
);
note = K;
unicode = 75;
},
{
glyphname = Kcommaaccent;
kernLeft = B;
kernRight = K;
lastChange = "2023-12-30 23:58:07 +0000";
layers = (
{
hints = (
{
horizontal = 1;
place = (747,23);
type = Stem;
},
{
horizontal = 1;
place = (0,21);
target = up;
type = BottomGhost;
},
{
horizontal = 1;
place = (-246,21);
target = up;
type = BottomGhost;
},
{
place = (443,61);
type = Stem;
},
{
place = (394,110);
type = Stem;
},
{
place = (135,105);
type = Stem;
}
);
layerId = m01;
shapes = (
{
closed = 1;
nodes = (
(416,-246,l),
(474,-212,o),
(504,-167,o),
(504,-110,cs),
(504,-74,o),
(482,-44,o),
(450,-44,cs),
(418,-44,o),
(394,-66,o),
(394,-95,cs),
(394,-142,o),
(443,-134,o),
(443,-170,cs),
(443,-183,o),
(425,-205,o),
(400,-222,c)
);
},
{
ref = K;
}
);
width = 783;
}
);
note = Kcommaaccent;
unicode = 310;
},
{
glyphname = L;
kernLeft = B;
kernRight = L;
lastChange = "2023-12-30 23:58:35 +0000";
layers = (
{
hints = (
{
horizontal = 1;
place = (770,-20);
target = down;
type = TopGhost;
},
{
horizontal = 1;
place = (0,40);
type = Stem;
},
{
place = (134,105);
type = Stem;
}
);
layerId = m01;
shapes = (
{
closed = 1;
nodes = (
(49,747,l),
(49,770,l),
(334,770,l),
(334,747,l),
(239,728,l),
(134,728,l)
);
},
{
closed = 1;
nodes = (
(49,23,l),
(49,0,l),
(134,0,l),
(134,42,l)
);
},
{
closed = 1;
nodes = (
(568,106,o),
(590,173,o),
(612,239,c),
(638,239,l),
(601,0,l),
(528,0,l),
(528,40,l)
);
}
);
width = 656;
}
);
note = L;
unicode = 76;
},
{
glyphname = Lacute;
kernLeft = B;
kernRight = L;
lastChange = "2023-12-30 23:58:39 +0000";
layers = (
{
hints = (
{
horizontal = 1;
place = (960,-20);
target = down;
type = TopGhost;
},
{
horizontal = 1;
place = (770,-20);
target = down;
type = TopGhost;
},
{
horizontal = 1;
place = (0,40);
type = Stem;
},
{
place = (134,105);
type = Stem;
}
);
layerId = m01;
shapes = (
{
closed = 1;
nodes = (
(85,816,l),
(237,860,ls),
(289,875,o),
(305,894,o),
(305,917,cs),
(305,942,o),
(284,960,o),
(262,960,cs),
(246,960,o),
(233,955,o),
(218,944,cs),
(74,837,l)
);
},
{
ref = L;
}
);
width = 656;
}
);
note = Lacute;
unicode = 313;
},
{
glyphname = Lcaron;
kernLeft = B;
kernRight = L;
lastChange = "2023-12-30 23:58:41 +0000";
layers = (
{
hints = (
{
horizontal = 1;
place = (970,-20);
target = down;
type = TopGhost;
},
{
horizontal = 1;
place = (770,60);
type = Stem;
},
{
horizontal = 1;
place = (0,40);
type = Stem;
},
{
place = (134,105);
type = Stem;
}
);
layerId = m01;
shapes = (
{
closed = 1;
nodes = (
(210,830,o),
(223,838,o),
(242,857,cs),
(335,953,l),
(316,970,l),
(187,912,l),
(60,970,l),
(40,953,l),
(134,857,ls),
(151,840,o),
(162,830,o),
(187,830,cs)
);
},
{
ref = L;
}
);
width = 656;
}
);
note = Lcaron;
unicode = 317;
},
{
glyphname = Lcommaaccent;
kernLeft = B;
kernRight = L;
lastChange = "2023-12-30 23:58:42 +0000";
layers = (
{
hints = (
{
horizontal = 1;
place = (770,-20);
target = down;
type = TopGhost;
},
{
horizontal = 1;
place = (0,40);
type = Stem;
},
{
horizontal = 1;
place = (-44,44);
type = Stem;
},
{
horizontal = 1;
place = (-246,21);
target = up;
type = BottomGhost;
},
{
place = (338,61);
type = Stem;
},
{
place = (289,110);
type = Stem;
},
{
place = (134,105);
type = Stem;
}
);
layerId = m01;
shapes = (
{
closed = 1;
nodes = (
(311,-246,l),
(369,-212,o),
(399,-167,o),
(399,-110,cs),
(399,-74,o),
(377,-44,o),
(345,-44,cs),
(313,-44,o),
(289,-66,o),
(289,-95,cs),
(289,-142,o),
(338,-134,o),
(338,-170,cs),
(338,-183,o),
(320,-205,o),
(295,-222,c)
);
},
{
ref = L;
}
);
width = 656;
}
);
note = Lcommaaccent;
unicode = 315;
},
{
glyphname = Ldot;
kernRight = L;
lastChange = "2023-12-30 23:58:44 +0000";
layers = (
{
hints = (
{
horizontal = 1;
place = (770,-20);
target = down;
type = TopGhost;
},
{
horizontal = 1;
place = (219,138);
type = Stem;
},
{
horizontal = 1;
place = (0,40);
type = Stem;
},
{
place = (357,138);
type = Stem;
},
{
place = (134,105);
type = Stem;
}
);
layerId = m01;
shapes = (
{
closed = 1;
nodes = (
(357,250,o),
(384,219,o),
(425,219,cs),
(468,219,o),
(495,250,o),
(495,287,cs),
(495,327,o),
(468,357,o),
(425,357,cs),
(384,357,o),
(357,327,o),
(357,287,cs)
);
},
{
ref = L;
}
);
width = 656;
}
);
note = Ldot;
unicode = 319;
},
{
glyphname = Lslash;
kernLeft = B;
kernRight = L;
lastChange = "2023-12-30 23:58:57 +0000";
layers = (
{
hints = (
{
horizontal = 1;
place = (770,-20);
target = down;
type = TopGhost;
},
{
horizontal = 1;
place = (0,40);
type = Stem;
},
{
place = (135,200);
type = Stem;
},
{
place = (135,105);
type = Stem;
},
{
place = (59,181);
type = Stem;
}
);
layerId = m01;
shapes = (
{
closed = 1;
nodes = (
(335,454,l),
(335,519,l),
(59,371,l),
(59,306,l)
);
},
{
ref = L;
}
);
width = 657;
}
);
note = Lslash;
unicode = 321;
},
{
glyphname = M;
kernLeft = Eng;
kernRight = H;
lastChange = "2023-12-30 23:59:28 +0000";
layers = (
{
hints = (
{
horizontal = 1;
place = (770,-20);
target = down;
type = TopGhost;
},
{
horizontal = 1;
place = (0,21);
target = up;
type = BottomGhost;
},
{
horizontal = 1;
place = (-10,21);
target = up;
type = BottomGhost;
},
{
place = (773,105);
type = Stem;
},
{
place = (135,40);
type = Stem;
}
);
layerId = m01;
shapes = (
{
closed = 1;
nodes = (
(264,23,l),
(264,0,l),
(45,0,l),
(45,23,l),
(135,42,l),
(175,42,l)
);
},
{
closed = 1;
nodes = (
(683,23,l),
(683,0,l),
(967,0,l),
(967,23,l),
(878,42,l),
(773,42,l)
);
},
{
closed = 1;
nodes = (
(967,770,l),
(967,747,l),
(878,728,l),
(878,770,l)
);
},
{
closed = 1;
nodes = (
(45,770,l),
(45,747,l),
(135,728,l),
(135,770,l)
);
}
);
width = 1012;
}
);
note = M;
unicode = 77;
},
{
glyphname = N;
kernLeft = Eng;
kernRight = Eng;
lastChange = "2023-12-31 00:00:19 +0000";
layers = (
{
hints = (
{
horizontal = 1;
place = (770,-20);
target = down;
type = TopGhost;
},
{
horizontal = 1;
place = (0,21);
target = up;
type = BottomGhost;
},
{
horizontal = 1;
place = (-20,21);
target = up;
type = BottomGhost;
},
{
place = (659,40);
type = Stem;
},
{
place = (135,40);
type = Stem;
}
);
layerId = m01;
shapes = (
{
closed = 1;
nodes = (
(570,747,l),
(570,770,l),
(789,770,l),
(789,747,l),
(699,728,l),
(659,728,l)
);
},
{
closed = 1;
nodes = (
(45,23,l),
(45,0,l),
(264,0,l),
(264,23,l),
(175,42,l),
(135,42,l)
);
},
{
closed = 1;
nodes = (
(45,770,l),
(45,747,l),
(135,728,l),
(135,770,l)
);
}
);
width = 828;
}
);
note = N;
unicode = 78;
},
{
glyphname = Nacute;
kernLeft = Eng;
kernRight = Eng;
lastChange = "2023-12-31 00:00:43 +0000";
layers = (
{
hints = (
{
horizontal = 1;
place = (960,-20);
target = down;
type = TopGhost;
},
{
horizontal = 1;
place = (770,-20);
target = down;
type = TopGhost;
},
{
horizontal = 1;
place = (0,21);
target = up;
type = BottomGhost;
},
{
horizontal = 1;
place = (-20,21);
target = up;
type = BottomGhost;
},
{
place = (659,40);
type = Stem;
},
{
place = (135,40);
type = Stem;
}
);
layerId = m01;
shapes = (
{
closed = 1;
nodes = (
(374,816,l),
(526,860,ls),
(578,875,o),
(594,894,o),
(594,917,cs),
(594,942,o),
(573,960,o),
(551,960,cs),
(535,960,o),
(522,955,o),
(507,944,cs),
(363,837,l)
);
},
{
ref = N;
}
);
width = 828;
}
);
note = Nacute;
unicode = 323;
},
{
glyphname = Ncaron;
kernLeft = Eng;
kernRight = Eng;
lastChange = "2023-12-31 00:00:45 +0000";
layers = (
{
hints = (
{
horizontal = 1;
place = (970,-20);
target = down;
type = TopGhost;
},
{
horizontal = 1;
place = (830,-20);
target = down;
type = TopGhost;
},
{
horizontal = 1;
place = (770,-20);
target = down;
type = TopGhost;
},
{
horizontal = 1;
place = (0,21);
target = up;
type = BottomGhost;
},
{
horizontal = 1;
place = (-20,21);
target = up;
type = BottomGhost;
},
{
place = (659,40);
type = Stem;
},
{
place = (135,40);
type = Stem;
}
);
layerId = m01;
shapes = (
{
closed = 1;
nodes = (
(449,830,o),
(462,838,o),
(481,857,cs),
(574,953,l),
(555,970,l),
(426,912,l),
(299,970,l),
(279,953,l),
(373,857,ls),
(390,840,o),
(401,830,o),
(426,830,cs)
);
},
{
ref = N;
}
);
width = 828;
}
);
note = Ncaron;
unicode = 327;
},
{
glyphname = Ncommaaccent;
kernLeft = Eng;
kernRight = Eng;
lastChange = "2023-12-31 00:00:48 +0000";
layers = (
{
hints = (
{
horizontal = 1;
place = (770,-20);
target = down;
type = TopGhost;
},
{
horizontal = 1;
place = (0,21);
target = up;
type = BottomGhost;
},
{
horizontal = 1;
place = (-20,21);
target = up;
type = BottomGhost;
},
{
horizontal = 1;
place = (-246,21);
target = up;
type = BottomGhost;
},
{
place = (659,40);
type = Stem;
},
{
place = (435,61);
type = Stem;
},
{
place = (386,110);
type = Stem;
},
{
place = (135,40);
type = Stem;
}
);
layerId = m01;
shapes = (
{
closed = 1;
nodes = (
(408,-246,l),
(466,-212,o),
(496,-167,o),
(496,-110,cs),
(496,-74,o),
(474,-44,o),
(442,-44,cs),
(410,-44,o),
(386,-66,o),
(386,-95,cs),
(386,-142,o),
(435,-134,o),
(435,-170,cs),
(435,-183,o),
(417,-205,o),
(392,-222,c)
);
},
{
ref = N;
}
);
width = 828;
}
);
note = Ncommaaccent;
unicode = 325;
},
{
glyphname = Ndotaccent;
kernLeft = Eng;
kernRight = Eng;
lastChange = "2023-12-31 00:00:50 +0000";
layers = (
{
hints = (
{
horizontal = 1;
place = (770,-20);
target = down;
type = TopGhost;
},
{
horizontal = 1;
place = (830,129);
type = Stem;
},
{
horizontal = 1;
place = (0,21);
target = up;
type = BottomGhost;
},
{
horizontal = 1;
place = (-20,21);
target = up;
type = BottomGhost;
},
{
place = (659,40);
type = Stem;
},
{
place = (379,129);
type = Stem;
},
{
place = (135,40);
type = Stem;
}
);
layerId = m01;
shapes = (
{
closed = 1;
nodes = (
(379,859,o),
(404,830,o),
(443,830,cs),
(483,830,o),
(508,859,o),
(508,894,cs),
(508,931,o),
(483,959,o),
(443,959,cs),
(404,959,o),
(379,931,o),
(379,894,cs)
);
},
{
ref = N;
}
);
width = 828;
}
);
note = Ndotaccent;
unicode = 7748;
},
{
glyphname = Ntilde;
kernLeft = Eng;
kernRight = Eng;
lastChange = "2023-12-31 00:00:52 +0000";
layers = (
{
hints = (
{
horizontal = 1;
place = (960,-20);
target = down;
type = TopGhost;
},
{
horizontal = 1;
place = (770,-20);
target = down;
type = TopGhost;
},
{
horizontal = 1;
place = (881,76);
type = Stem;
},
{
horizontal = 1;
place = (881,41);
type = Stem;
},
{
horizontal = 1;
place = (842,80);
type = Stem;
},
{
horizontal = 1;
place = (0,21);
target = up;
type = BottomGhost;
},
{
horizontal = 1;
place = (-20,21);
target = up;
type = BottomGhost;
},
{
place = (659,40);
type = Stem;
},
{
place = (135,40);
type = Stem;
}
);
layerId = m01;
shapes = (
{
closed = 1;
nodes = (
(297,843,l),
(300,867,o),
(319,881,o),
(348,881,cs),
(395,881,o),
(449,842,o),
(496,842,cs),
(545,842,o),
(580,891,o),
(580,960,c),
(556,960,l),
(551,935,o),
(534,922,o),
(506,922,cs),
(461,922,o),
(403,957,o),
(357,957,cs),
(308,957,o),
(273,910,o),
(273,843,c)
);
},
{
ref = N;
}
);
width = 828;
}
);
note = Ntilde;
unicode = 209;
},
{
glyphname = OE;
kernLeft = O;
kernRight = AE;
lastChange = "2023-12-31 00:01:13 +0000";
layers = (
{
hints = (
{
horizontal = 1;
place = (780,-20);
target = down;
type = TopGhost;
},
{
horizontal = 1;
place = (550,-20);
target = down;
type = TopGhost;
},
{
horizontal = 1;
place = (546,-20);
target = down;
type = TopGhost;
},
{
horizontal = 1;
place = (735,35);
type = Stem;
},
{
horizontal = 1;
place = (386,40);
type = Stem;
},
{
horizontal = 1;
place = (-10,50);
type = Stem;
},
{
horizontal = 1;
place = (0,21);
target = up;
type = BottomGhost;
},
{
place = (588,105);
type = Stem;
},
{
place = (55,126);
type = Stem;
},
{
horizontal = 1;
place = (550,-20);
target = down;
type = TopGhost;
},
{
horizontal = 1;
place = (546,-20);
target = down;
type = TopGhost;
},
{
horizontal = 1;
place = (730,40);
type = Stem;
},
{
horizontal = 1;
place = (386,40);
type = Stem;
},
{
horizontal = 1;
place = (0,40);
type = Stem;
},
{
place = (588,105);
type = Stem;
},
{
horizontal = 1;
place = (730,40);
type = Stem;
},
{
horizontal = 1;
place = (389,40);
type = Stem;
},
{
horizontal = 1;
place = (0,38);
type = Stem;
},
{
place = (983,116);
type = Stem;
},
{
place = (983,82);
type = Stem;
},
{
place = (953,112);
type = Stem;
},
{
place = (588,105);
type = Stem;
}
);
layerId = m01;
shapes = (
{
closed = 1;
nodes = (
(891,466,o),
(902,506,o),
(909,546,c),
(933,546,l),
(933,266,l),
(909,266,l),
(903,306,o),
(891,346,o),
(872,386,c),
(872,426,l)
);
},
{
closed = 1;
nodes = (
(1059,770,l),
(1076,550,l),
(1052,550,l),
(1036,607,o),
(1013,673,o),
(980,730,c),
(979,770,l)
);
},
{
closed = 1;
nodes = (
(1015,105,o),
(1037,169,o),
(1059,234,c),
(1092,234,l),
(1055,0,l),
(974,0,l),
(975,40,l)
);
}
);
width = 1146;
}
);
note = OE;
unicode = 338;
},
{
glyphname = Oacute;
kernLeft = O;
kernRight = O;
lastChange = "2023-12-31 00:01:18 +0000";
layers = (
{
hints = (
{
horizontal = 1;
place = (735,225);
type = Stem;
},
{
horizontal = 1;
place = (735,45);
type = Stem;
},
{
horizontal = 1;
place = (-10,45);
type = Stem;
},
{
place = (655,126);
type = Stem;
},
{
place = (55,126);
type = Stem;
}
);
layerId = m01;
shapes = (
{
closed = 1;
nodes = (
);
},
{
closed = 1;
nodes = (
(321,816,l),
(473,860,ls),
(525,875,o),
(541,894,o),
(541,917,cs),
(541,942,o),
(520,960,o),
(498,960,cs),
(482,960,o),
(469,955,o),
(454,944,cs),
(310,837,l)
);
}
);
width = 836;
}
);
note = Oacute;
unicode = 211;
},
{
glyphname = Obreve;
kernLeft = O;
kernRight = O;
lastChange = "2023-12-31 00:01:20 +0000";
layers = (
{
hints = (
{
horizontal = 1;
place = (830,129);
type = Stem;
},
{
horizontal = 1;
place = (830,74);
type = Stem;
},
{
horizontal = 1;
place = (735,45);
type = Stem;
},
{
horizontal = 1;
place = (-10,45);
type = Stem;
},
{
place = (655,126);
type = Stem;
},
{
place = (55,126);
type = Stem;
}
);
layerId = m01;
shapes = (
{
closed = 1;
nodes = (
(282,959,l),
(293,862,o),
(361,830,o),
(419,830,cs),
(462,830,o),
(534,844,o),
(566,959,c),
(532,959,l),
(509,920,o),
(467,904,o),
(423,904,cs),
(376,904,o),
(333,920,o),
(317,959,c)
);
}
);
width = 836;
}
);
note = Obreve;
unicode = 334;
},
{
glyphname = Ocircumflex;
kernLeft = O;
kernRight = O;
lastChange = "2023-12-31 00:01:23 +0000";
layers = (
{
hints = (
{
horizontal = 1;
place = (735,225);
type = Stem;
},
{
horizontal = 1;
place = (735,45);
type = Stem;
},
{
horizontal = 1;
place = (-10,45);
type = Stem;
},
{
place = (655,126);
type = Stem;
},
{
place = (55,126);
type = Stem;
}
);
layerId = m01;
shapes = (
{
closed = 1;
nodes = (
(399,960,o),
(388,950,o),
(371,933,cs),
(277,837,l),
(297,820,l),
(424,878,l),
(553,820,l),
(572,837,l),
(479,933,ls),
(460,952,o),
(447,960,o),
(424,960,cs)
);
}
);
width = 836;
}
);
note = Ocircumflex;
unicode = 212;
},
{
glyphname = Odieresis;
kernLeft = O;
kernRight = O;
lastChange = "2023-12-31 00:01:25 +0000";
layers = (
{
hints = (
{
horizontal = 1;
place = (830,110);
type = Stem;
},
{
horizontal = 1;
place = (735,45);
type = Stem;
},
{
horizontal = 1;
place = (-10,45);
type = Stem;
},
{
place = (655,126);
type = Stem;
},
{
place = (463,110);
type = Stem;
},
{
place = (276,110);
type = Stem;
},
{
place = (55,126);
type = Stem;
}
);
layerId = m01;
shapes = (
{
closed = 1;
nodes = (
(276,855,o),
(298,830,o),
(331,830,cs),
(365,830,o),
(386,855,o),
(386,885,cs),
(386,917,o),
(365,940,o),
(331,940,cs),
(298,940,o),
(276,917,o),
(276,885,cs)
);
},
{
closed = 1;
nodes = (
(463,855,o),
(485,830,o),
(518,830,cs),
(552,830,o),
(573,855,o),
(573,885,cs),
(573,917,o),
(552,940,o),
(518,940,cs),
(485,940,o),
(463,917,o),
(463,885,cs)
);
}
);
width = 836;
}
);
note = Odieresis;
unicode = 214;
},
{
glyphname = Odotbelow;
kernLeft = O;
kernRight = O;
lastChange = "2023-12-31 00:01:27 +0000";
layers = (
{
hints = (
{
horizontal = 1;
place = (735,45);
type = Stem;
},
{
horizontal = 1;
place = (-10,45);
type = Stem;
},
{
horizontal = 1;
place = (-256,129);
type = Stem;
},
{
place = (655,126);
type = Stem;
},
{
place = (355,129);
type = Stem;
},
{
place = (55,126);
type = Stem;
}
);
layerId = m01;
shapes = (
{
closed = 1;
nodes = (
(355,-227,o),
(380,-256,o),
(419,-256,cs),
(459,-256,o),
(484,-227,o),
(484,-192,cs),
(484,-155,o),
(459,-127,o),
(419,-127,cs),
(380,-127,o),
(355,-155,o),
(355,-192,cs)
);
}
);
width = 836;
}
);
note = Odotbelow;
unicode = 7884;
},
{
glyphname = Ograve;
kernLeft = O;
kernRight = O;
lastChange = "2023-12-31 00:01:29 +0000";
layers = (
{
hints = (
{
horizontal = 1;
place = (735,225);
type = Stem;
},
{
horizontal = 1;
place = (735,45);
type = Stem;
},
{
horizontal = 1;
place = (-10,45);
type = Stem;
},
{
place = (655,126);
type = Stem;
},
{
place = (55,126);
type = Stem;
}
);
layerId = m01;
shapes = (
{
closed = 1;
nodes = (
(529,837,l),
(385,944,ls),
(370,955,o),
(357,960,o),
(341,960,cs),
(319,960,o),
(298,942,o),
(298,917,cs),
(298,894,o),
(314,875,o),
(366,860,cs),
(518,816,l)
);
}
);
width = 836;
}
);
note = Ograve;
unicode = 210;
},
{
glyphname = Ohungarumlaut;
kernLeft = O;
kernRight = O;
lastChange = "2023-12-31 00:01:31 +0000";
layers = (
{
hints = (
{
horizontal = 1;
place = (735,225);
type = Stem;
},
{
horizontal = 1;
place = (735,45);
type = Stem;
},
{
horizontal = 1;
place = (-10,45);
type = Stem;
},
{
place = (655,126);
type = Stem;
},
{
place = (55,126);
type = Stem;
}
);
layerId = m01;
shapes = (
{
closed = 1;
nodes = (
(302,816,l),
(404,860,ls),
(459,883,o),
(472,895,o),
(472,918,cs),
(472,942,o),
(455,960,o),
(431,960,cs),
(412,960,o),
(392,948,o),
(370,924,cs),
(291,837,l)
);
},
{
closed = 1;
nodes = (
(476,816,l),
(578,860,ls),
(633,883,o),
(646,895,o),
(646,918,cs),
(646,942,o),
(629,960,o),
(605,960,cs),
(586,960,o),
(566,948,o),
(544,924,cs),
(465,837,l)
);
}
);
width = 836;
}
);
note = Ohungarumlaut;
unicode = 336;
},
{
glyphname = Omacron;
kernLeft = O;
kernRight = O;
lastChange = "2023-12-31 00:01:33 +0000";
layers = (
{
hints = (
{
horizontal = 1;
place = (877,71);
type = Stem;
},
{
horizontal = 1;
place = (735,45);
type = Stem;
},
{
horizontal = 1;
place = (-10,45);
type = Stem;
},
{
place = (655,126);
type = Stem;
},
{
place = (55,126);
type = Stem;
}
);
layerId = m01;
shapes = (
{
closed = 1;
nodes = (
(571,877,l),
(571,948,l),
(284,948,l),
(284,877,l)
);
}
);
width = 836;
}
);
note = Omacron;
unicode = 332;
},
{
glyphname = Oogonek;
lastChange = "2023-12-31 00:01:37 +0000";
layers = (
{
hints = (
{
horizontal = 1;
place = (735,45);
type = Stem;
},
{
horizontal = 1;
place = (-9,44);
type = Stem;
},
{
horizontal = 1;
place = (-256,55);
type = Stem;
},
{
place = (655,126);
type = Stem;
},
{
place = (290,88);
type = Stem;
},
{
place = (55,126);
type = Stem;
}
);
layerId = m01;
shapes = (
{
closed = 1;
nodes = (
(487,-180,l),
(465,-195,o),
(450,-201,o),
(431,-201,cs),
(396,-201,o),
(378,-182,o),
(378,-144,cs),
(378,-105,o),
(398,-60,o),
(440,-9,c),
(392,-9,l),
(328,-60,o),
(290,-119,o),
(290,-168,cs),
(290,-222,o),
(330,-256,o),
(392,-256,cs),
(435,-256,o),
(470,-239,o),
(502,-202,c)
);
}
);
width = 836;
}
);
note = Oogonek;
unicode = 490;
},
{
glyphname = Oslash;
kernLeft = O;
kernRight = O;
lastChange = "2023-12-31 00:01:52 +0000";
layers = (
{
hints = (
{
horizontal = 1;
place = (770,-20);
target = down;
type = TopGhost;
},
{
horizontal = 1;
place = (735,45);
type = Stem;
},
{
horizontal = 1;
place = (-10,45);
type = Stem;
},
{
horizontal = 1;
place = (0,21);
target = up;
type = BottomGhost;
},
{
place = (656,126);
type = Stem;
},
{
place = (56,126);
type = Stem;
}
);
layerId = m01;
shapes = (
{
closed = 1;
nodes = (
(774,770,l),
(718,770,l),
(57,0,l),
(112,0,l)
);
}
);
width = 837;
}
);
note = Oslash;
unicode = 216;
},
{
glyphname = Oslashacute;
kernLeft = O;
kernRight = O;
lastChange = "2023-12-31 00:01:58 +0000";
layers = (
{
hints = (
{
horizontal = 1;
place = (770,-20);
target = down;
type = TopGhost;
},
{
horizontal = 1;
place = (735,225);
type = Stem;
},
{
horizontal = 1;
place = (735,45);
type = Stem;
},
{
horizontal = 1;
place = (-10,45);
type = Stem;
},
{
horizontal = 1;
place = (0,21);
target = up;
type = BottomGhost;
},
{
place = (656,126);
type = Stem;
},
{
place = (56,126);
type = Stem;
}
);
layerId = m01;
shapes = (
{
closed = 1;
nodes = (
(328,816,l),
(480,860,ls),
(532,875,o),
(548,894,o),
(548,917,cs),
(548,942,o),
(527,960,o),
(505,960,cs),
(489,960,o),
(476,955,o),
(461,944,cs),
(317,837,l)
);
},
{
ref = Oslash;
}
);
width = 837;
}
);
note = Oslashacute;
unicode = 510;
},
{
glyphname = Otilde;
kernLeft = O;
kernRight = O;
lastChange = "2023-12-31 00:01:59 +0000";
layers = (
{
hints = (
{
horizontal = 1;
place = (960,-20);
target = down;
type = TopGhost;
},
{
horizontal = 1;
place = (881,76);
type = Stem;
},
{
horizontal = 1;
place = (881,41);
type = Stem;
},
{
horizontal = 1;
place = (842,80);
type = Stem;
},
{
horizontal = 1;
place = (735,45);
type = Stem;
},
{
horizontal = 1;
place = (-10,45);
type = Stem;
},
{
place = (655,126);
type = Stem;
},
{
place = (55,126);
type = Stem;
}
);
layerId = m01;
shapes = (
{
closed = 1;
nodes = (
(297,843,l),
(300,867,o),
(319,881,o),
(348,881,cs),
(395,881,o),
(449,842,o),
(496,842,cs),
(545,842,o),
(580,891,o),
(580,960,c),
(556,960,l),
(551,935,o),
(534,922,o),
(506,922,cs),
(461,922,o),
(403,957,o),
(357,957,cs),
(308,957,o),
(273,910,o),
(273,843,c)
);
}
);
width = 836;
}
);
note = Otilde;
unicode = 213;
},
{
glyphname = P;
kernLeft = B;
lastChange = "2023-12-31 00:02:17 +0000";
layers = (
{
hints = (
{
horizontal = 1;
place = (730,40);
type = Stem;
},
{
horizontal = 1;
place = (330,39);
type = Stem;
},
{
horizontal = 1;
place = (0,21);
target = up;
type = BottomGhost;
},
{
place = (512,115);
type = Stem;
},
{
place = (134,105);
type = Stem;
}
);
layerId = m01;
shapes = (
{
closed = 1;
nodes = (
(353,23,l),
(353,0,l),
(49,0,l),
(49,23,l),
(134,42,l),
(239,42,l)
);
},
{
closed = 1;
nodes = (
(49,770,l),
(49,747,l),
(134,728,l),
(133,770,l)
);
}
);
width = 663;
}
);
note = P;
unicode = 80;
},
{
glyphname = Q;
kernLeft = O;
kernRight = O;
lastChange = "2023-12-31 00:03:15 +0000";
layers = (
{
hints = (
{
horizontal = 1;
place = (735,45);
type = Stem;
},
{
horizontal = 1;
place = (-12,47);
type = Stem;
},
{
horizontal = 1;
place = (-164,97);
type = Stem;
},
{
place = (655,126);
type = Stem;
},
{
place = (206,101);
type = Stem;
},
{
place = (206,84);
type = Stem;
},
{
place = (55,126);
type = Stem;
}
);
layerId = m01;
shapes = (
{
closed = 1;
nodes = (
(248,-13,o),
(206,-57,o),
(206,-105,cs),
(206,-138,o),
(226,-160,o),
(256,-160,cs),
(285,-160,o),
(307,-139,o),
(307,-110,cs),
(307,-85,o),
(290,-80,o),
(290,-57,cs),
(290,-32,o),
(309,-12,o),
(352,-12,cs),
(470,-12,o),
(505,-164,o),
(630,-164,cs),
(699,-164,o),
(767,-118,o),
(808,-24,c),
(781,-14,l),
(754,-50,o),
(728,-67,o),
(683,-67,cs),
(600,-67,o),
(537,-17,o),
(469,3,cs),
(416,19,o),
(367,33,o),
(316,13,cs)
);
}
);
width = 836;
}
);
note = Q;
unicode = 81;
},
{
glyphname = R;
kernLeft = B;
kernRight = R;
lastChange = "2023-12-31 00:03:30 +0000";
layers = (
{
hints = (
{
horizontal = 1;
place = (730,40);
type = Stem;
},
{
horizontal = 1;
place = (350,39);
type = Stem;
},
{
horizontal = 1;
place = (0,21);
target = up;
type = BottomGhost;
},
{
place = (502,115);
type = Stem;
},
{
place = (134,105);
type = Stem;
}
);
layerId = m01;
shapes = (
{
ref = P;
},
{
closed = 1;
nodes = (
(776,23,l),
(776,0,l),
(559,0,l),
(662,42,l)
);
}
);
width = 733;
}
);
note = R;
unicode = 82;
},
{
glyphname = Racute;
kernLeft = B;
kernRight = R;
lastChange = "2023-12-31 00:03:33 +0000";
layers = (
{
hints = (
{
horizontal = 1;
place = (960,-20);
target = down;
type = TopGhost;
},
{
horizontal = 1;
place = (730,40);
type = Stem;
},
{
horizontal = 1;
place = (350,39);
type = Stem;
},
{
horizontal = 1;
place = (0,21);
target = up;
type = BottomGhost;
},
{
place = (502,115);
type = Stem;
},
{
place = (134,105);
type = Stem;
}
);
layerId = m01;
shapes = (
{
closed = 1;
nodes = (
(236,816,l),
(388,860,ls),
(440,875,o),
(456,894,o),
(456,917,cs),
(456,942,o),
(435,960,o),
(413,960,cs),
(397,960,o),
(384,955,o),
(369,944,cs),
(225,837,l)
);
},
{
ref = R;
}
);
width = 733;
}
);
note = Racute;
unicode = 340;
},
{
glyphname = Rcaron;
kernLeft = B;
kernRight = R;
lastChange = "2023-12-31 00:03:36 +0000";
layers = (
{
hints = (
{
horizontal = 1;
place = (970,-20);
target = down;
type = TopGhost;
},
{
horizontal = 1;
place = (770,60);
type = Stem;
},
{
horizontal = 1;
place = (730,40);
type = Stem;
},
{
horizontal = 1;
place = (350,39);
type = Stem;
},
{
horizontal = 1;
place = (0,21);
target = up;
type = BottomGhost;
},
{
place = (502,115);
type = Stem;
},
{
place = (134,105);
type = Stem;
}
);
layerId = m01;
shapes = (
{
closed = 1;
nodes = (
(350,830,o),
(363,838,o),
(382,857,cs),
(475,953,l),
(456,970,l),
(327,912,l),
(200,970,l),
(180,953,l),
(274,857,ls),
(291,840,o),
(302,830,o),
(327,830,cs)
);
},
{
ref = R;
}
);
width = 733;
}
);
note = Rcaron;
unicode = 344;
},
{
glyphname = Rcommaaccent;
kernLeft = B;
kernRight = R;
lastChange = "2023-12-31 00:03:39 +0000";
layers = (
{
hints = (
{
horizontal = 1;
place = (730,40);
type = Stem;
},
{
horizontal = 1;
place = (350,39);
type = Stem;
},
{
horizontal = 1;
place = (0,21);
target = up;
type = BottomGhost;
},
{
horizontal = 1;
place = (-246,21);
target = up;
type = BottomGhost;
},
{
place = (502,115);
type = Stem;
},
{
place = (437,61);
type = Stem;
},
{
place = (388,110);
type = Stem;
},
{
place = (134,105);
type = Stem;
}
);
layerId = m01;
shapes = (
{
closed = 1;
nodes = (
(410,-246,l),
(468,-212,o),
(498,-167,o),
(498,-110,cs),
(498,-74,o),
(476,-44,o),
(444,-44,cs),
(412,-44,o),
(388,-66,o),
(388,-95,cs),
(388,-142,o),
(437,-134,o),
(437,-170,cs),
(437,-183,o),
(419,-205,o),
(394,-222,c)
);
},
{
ref = R;
}
);
width = 733;
}
);
note = Rcommaaccent;
unicode = 342;
},
{
glyphname = Rdotbelow;
kernLeft = B;
kernRight = R;
lastChange = "2023-12-31 00:03:40 +0000";
layers = (
{
hints = (
{
horizontal = 1;
place = (730,40);
type = Stem;
},
{
horizontal = 1;
place = (350,39);
type = Stem;
},
{
horizontal = 1;
place = (-256,129);
type = Stem;
},
{
horizontal = 1;
place = (0,21);
target = up;
type = BottomGhost;
},
{
place = (502,115);
type = Stem;
},
{
place = (370,129);
type = Stem;
},
{
place = (134,105);
type = Stem;
}
);
layerId = m01;
shapes = (
{
closed = 1;
nodes = (
(370,-227,o),
(395,-256,o),
(434,-256,cs),
(474,-256,o),
(499,-227,o),
(499,-192,cs),
(499,-155,o),
(474,-127,o),
(434,-127,cs),
(395,-127,o),
(370,-155,o),
(370,-192,cs)
);
},
{
ref = R;
}
);
width = 733;
}
);
note = Rdotbelow;
unicode = 7770;
},
{
glyphname = S;
kernLeft = S;
kernRight = S;
lastChange = "2023-12-31 00:04:12 +0000";
layers = (
{
hints = (
{
horizontal = 1;
place = (770,-20);
target = down;
type = TopGhost;
},
{
horizontal = 1;
place = (550,-20);
target = down;
type = TopGhost;
},
{
horizontal = 1;
place = (737,43);
type = Stem;
},
{
horizontal = 1;
place = (-9,43);
type = Stem;
},
{
horizontal = 1;
place = (0,21);
target = up;
type = BottomGhost;
},
{
place = (447,92);
type = Stem;
},
{
place = (447,62);
type = Stem;
},
{
place = (79,105);
type = Stem;
}
);
layerId = m01;
shapes = (
{
closed = 1;
nodes = (
(101,0,l),
(81,0,l),
(63,256,l),
(88,262,l),
(110,175,o),
(138,115,o),
(176,79,c)
);
},
{
closed = 1;
nodes = (
(451,658,o),
(472,612,o),
(488,550,c),
(514,550,l),
(505,770,l),
(485,770,l),
(453,718,l),
(422,689,l)
);
}
);
width = 599;
}
);
note = S;
unicode = 83;
},
{
glyphname = Sacute;
kernLeft = S;
kernRight = S;
lastChange = "2023-12-31 00:04:20 +0000";
layers = (
{
hints = (
{
horizontal = 1;
place = (770,-20);
target = down;
type = TopGhost;
},
{
horizontal = 1;
place = (550,-20);
target = down;
type = TopGhost;
},
{
horizontal = 1;
place = (737,223);
type = Stem;
},
{
horizontal = 1;
place = (737,43);
type = Stem;
},
{
horizontal = 1;
place = (-9,43);
type = Stem;
},
{
horizontal = 1;
place = (0,21);
target = up;
type = BottomGhost;
},
{
place = (447,92);
type = Stem;
},
{
place = (447,62);
type = Stem;
},
{
place = (79,105);
type = Stem;
}
);
layerId = m01;
shapes = (
{
closed = 1;
nodes = (
(208,816,l),
(360,860,ls),
(412,875,o),
(428,894,o),
(428,917,cs),
(428,942,o),
(407,960,o),
(385,960,cs),
(369,960,o),
(356,955,o),
(341,944,cs),
(197,837,l)
);
},
{
ref = S;
}
);
width = 599;
}
);
note = Sacute;
unicode = 346;
},
{
glyphname = Scaron;
kernLeft = S;
kernRight = S;
lastChange = "2023-12-31 00:04:22 +0000";
layers = (
{
hints = (
{
horizontal = 1;
place = (970,-20);
target = down;
type = TopGhost;
},
{
horizontal = 1;
place = (770,-20);
target = down;
type = TopGhost;
},
{
horizontal = 1;
place = (550,-20);
target = down;
type = TopGhost;
},
{
horizontal = 1;
place = (780,50);
type = Stem;
},
{
horizontal = 1;
place = (737,43);
type = Stem;
},
{
horizontal = 1;
place = (-9,43);
type = Stem;
},
{
horizontal = 1;
place = (0,21);
target = up;
type = BottomGhost;
},
{
place = (447,92);
type = Stem;
},
{
place = (447,62);
type = Stem;
},
{
place = (79,105);
type = Stem;
}
);
layerId = m01;
shapes = (
{
closed = 1;
nodes = (
(339,830,o),
(352,838,o),
(371,857,cs),
(464,953,l),
(445,970,l),
(316,912,l),
(189,970,l),
(169,953,l),
(263,857,ls),
(280,840,o),
(291,830,o),
(316,830,cs)
);
},
{
ref = S;
}
);
width = 599;
}
);
note = Scaron;
unicode = 352;
},
{
glyphname = Scircumflex;
kernLeft = S;
kernRight = S;
lastChange = "2023-12-31 00:04:27 +0000";
layers = (
{
hints = (
{
horizontal = 1;
place = (770,-20);
target = down;
type = TopGhost;
},
{
horizontal = 1;
place = (550,-20);
target = down;
type = TopGhost;
},
{
horizontal = 1;
place = (737,223);
type = Stem;
},
{
horizontal = 1;
place = (737,43);
type = Stem;
},
{
horizontal = 1;
place = (-9,43);
type = Stem;
},
{
horizontal = 1;
place = (0,21);
target = up;
type = BottomGhost;
},
{
place = (447,92);
type = Stem;
},
{
place = (447,62);
type = Stem;
},
{
place = (79,105);
type = Stem;
}
);
layerId = m01;
shapes = (
{
closed = 1;
nodes = (
(283,960,o),
(272,950,o),
(255,933,cs),
(161,837,l),
(181,820,l),
(308,878,l),
(437,820,l),
(456,837,l),
(363,933,ls),
(344,952,o),
(331,960,o),
(308,960,cs)
);
},
{
ref = S;
}
);
width = 599;
}
);
note = Scircumflex;
unicode = 348;
},
{
glyphname = Sdotbelow;
kernLeft = S;
kernRight = S;
lastChange = "2023-12-31 00:04:29 +0000";
layers = (
{
hints = (
{
horizontal = 1;
place = (770,-20);
target = down;
type = TopGhost;
},
{
horizontal = 1;
place = (550,-20);
target = down;
type = TopGhost;
},
{
horizontal = 1;
place = (737,43);
type = Stem;
},
{
horizontal = 1;
place = (-9,43);
type = Stem;
},
{
horizontal = 1;
place = (-256,129);
type = Stem;
},
{
horizontal = 1;
place = (0,21);
target = up;
type = BottomGhost;
},
{
place = (447,92);
type = Stem;
},
{
place = (447,62);
type = Stem;
},
{
place = (244,129);
type = Stem;
},
{
place = (79,105);
type = Stem;
}
);
layerId = m01;
shapes = (
{
closed = 1;
nodes = (
(244,-227,o),
(269,-256,o),
(308,-256,cs),
(348,-256,o),
(373,-227,o),
(373,-192,cs),
(373,-155,o),
(348,-127,o),
(308,-127,cs),
(269,-127,o),
(244,-155,o),
(244,-192,cs)
);
},
{
ref = S;
}
);
width = 599;
}
);
note = Sdotbelow;
unicode = 7778;
},
{
glyphname = T;
kernLeft = T;
kernRight = T;
lastChange = "2023-12-31 00:04:53 +0000";
layers = (
{
hints = (
{
horizontal = 1;
place = (550,-20);
target = down;
type = TopGhost;
},
{
horizontal = 1;
place = (730,40);
type = Stem;
},
{
horizontal = 1;
place = (0,21);
target = up;
type = BottomGhost;
},
{
place = (326,105);
type = Stem;
}
);
layerId = m01;
shapes = (
{
closed = 1;
nodes = (
(540,23,l),
(540,0,l),
(216,0,l),
(216,23,l),
(326,42,l),
(431,42,l)
);
},
{
closed = 1;
nodes = (
(708,770,l),
(745,550,l),
(721,550,l),
(701,607,o),
(672,673,o),
(629,730,c),
(629,770,l)
);
},
{
closed = 1;
nodes = (
(46,770,l),
(9,550,l),
(33,550,l),
(53,607,o),
(82,673,o),
(125,730,c),
(125,770,l)
);
}
);
width = 754;
}
);
note = T;
unicode = 84;
},
{
glyphname = Tbar;
kernLeft = T;
kernRight = T;
lastChange = "2023-12-31 00:04:59 +0000";
layers = (
{
hints = (
{
horizontal = 1;
place = (550,-20);
target = down;
type = TopGhost;
},
{
horizontal = 1;
place = (730,40);
type = Stem;
},
{
horizontal = 1;
place = (377,65);
type = Stem;
},
{
horizontal = 1;
place = (0,21);
target = up;
type = BottomGhost;
},
{
place = (326,105);
type = Stem;
}
);
layerId = m01;
shapes = (
{
closed = 1;
nodes = (
(431,377,l),
(591,377,l),
(591,442,l),
(431,442,l),
(326,442,l),
(166,442,l),
(166,377,l),
(326,377,l)
);
},
{
ref = T;
}
);
width = 754;
}
);
note = Tbar;
unicode = 358;
},
{
glyphname = Tcaron;
kernLeft = T;
kernRight = T;
lastChange = "2023-12-31 00:05:01 +0000";
layers = (
{
hints = (
{
horizontal = 1;
place = (960,-20);
target = down;
type = TopGhost;
},
{
horizontal = 1;
place = (550,-20);
target = down;
type = TopGhost;
},
{
horizontal = 1;
place = (770,50);
type = Stem;
},
{
horizontal = 1;
place = (730,40);
type = Stem;
},
{
horizontal = 1;
place = (0,21);
target = up;
type = BottomGhost;
},
{
place = (326,105);
type = Stem;
}
);
layerId = m01;
shapes = (
{
closed = 1;
nodes = (
(401,820,o),
(414,828,o),
(433,847,cs),
(526,943,l),
(507,960,l),
(378,902,l),
(251,960,l),
(231,943,l),
(325,847,ls),
(342,830,o),
(353,820,o),
(378,820,cs)
);
},
{
ref = T;
}
);
width = 754;
}
);
note = Tcaron;
unicode = 356;
},
{
glyphname = Tdotbelow;
kernLeft = T;
kernRight = T;
lastChange = "2023-12-31 00:05:03 +0000";
layers = (
{
hints = (
{
horizontal = 1;
place = (550,-20);
target = down;
type = TopGhost;
},
{
horizontal = 1;
place = (730,40);
type = Stem;
},
{
horizontal = 1;
place = (-258,129);
type = Stem;
},
{
horizontal = 1;
place = (0,21);
target = up;
type = BottomGhost;
},
{
place = (326,118);
type = Stem;
},
{
place = (326,105);
type = Stem;
}
);
layerId = m01;
shapes = (
{
closed = 1;
nodes = (
(315,-229,o),
(340,-258,o),
(379,-258,cs),
(419,-258,o),
(444,-229,o),
(444,-194,cs),
(444,-157,o),
(419,-129,o),
(379,-129,cs),
(340,-129,o),
(315,-157,o),
(315,-194,cs)
);
},
{
ref = T;
}
);
width = 754;
}
);
note = Tdotbelow;
unicode = 7788;
},
{
glyphname = Thorn;
kernLeft = B;
lastChange = "2023-12-31 00:05:19 +0000";
layers = (
{
hints = (
{
horizontal = 1;
place = (567,203);
type = Stem;
},
{
horizontal = 1;
place = (567,40);
type = Stem;
},
{
horizontal = 1;
place = (167,39);
type = Stem;
},
{
horizontal = 1;
place = (0,206);
type = Stem;
},
{
place = (512,115);
type = Stem;
},
{
place = (134,105);
type = Stem;
}
);
layerId = m01;
shapes = (
{
closed = 1;
nodes = (
(49,23,l),
(49,0,l),
(353,0,l),
(353,23,l),
(239,42,l),
(134,42,l)
);
},
{
closed = 1;
nodes = (
(353,747,l),
(353,770,l),
(49,770,l),
(49,747,l),
(134,728,l),
(239,728,l)
);
}
);
width = 665;
}
);
note = Thorn;
unicode = 222;
},
{
glyphname = U;
kernLeft = U;
kernRight = U;
lastChange = "2023-12-31 00:09:22 +0000";
layers = (
{
hints = (
{
horizontal = 1;
place = (770,-20);
target = down;
type = TopGhost;
},
{
horizontal = 1;
place = (-10,45);
type = Stem;
},
{
place = (610,40);
type = Stem;
},
{
place = (123,105);
type = Stem;
}
);
layerId = m01;
shapes = (
{
closed = 1;
nodes = (
(33,747,l),
(33,770,l),
(317,770,l),
(317,747,l),
(228,728,l),
(123,728,l)
);
},
{
closed = 1;
nodes = (
(740,747,l),
(740,770,l),
(521,770,l),
(521,747,l),
(610,728,l),
(650,728,l)
);
}
);
width = 774;
}
);
note = U;
unicode = 85;
},
{
glyphname = Uacute;
kernLeft = U;
kernRight = U;
lastChange = "2024-01-02 01:40:42 +0000";
layers = (
{
hints = (
{
horizontal = 1;
place = (960,-20);
target = down;
type = TopGhost;
},
{
horizontal = 1;
place = (770,-20);
target = down;
type = TopGhost;
},
{
horizontal = 1;
place = (-10,45);
type = Stem;
},
{
place = (610,40);
type = Stem;
},
{
place = (123,105);
type = Stem;
}
);
layerId = m01;
shapes = (
{
closed = 1;
nodes = (
(326,816,l),
(478,860,ls),
(530,875,o),
(546,894,o),
(546,917,cs),
(546,942,o),
(525,960,o),
(503,960,cs),
(487,960,o),
(474,955,o),
(459,944,cs),
(315,837,l)
);
},
{
ref = U;
}
);
width = 774;
}
);
note = Uacute;
unicode = 218;
},
{
glyphname = Ubreve;
kernLeft = U;
kernRight = U;
lastChange = "2024-01-02 01:40:49 +0000";
layers = (
{
hints = (
{
horizontal = 1;
place = (770,-20);
target = down;
type = TopGhost;
},
{
horizontal = 1;
place = (830,129);
type = Stem;
},
{
horizontal = 1;
place = (830,74);
type = Stem;
},
{
horizontal = 1;
place = (-10,45);
type = Stem;
},
{
place = (610,40);
type = Stem;
},
{
place = (123,105);
type = Stem;
}
);
layerId = m01;
shapes = (
{
closed = 1;
nodes = (
(289,959,l),
(300,862,o),
(368,830,o),
(426,830,cs),
(469,830,o),
(541,844,o),
(573,959,c),
(539,959,l),
(516,920,o),
(474,904,o),
(430,904,cs),
(383,904,o),
(340,920,o),
(324,959,c)
);
},
{
ref = U;
}
);
width = 774;
}
);
note = Ubreve;
unicode = 364;
},
{
glyphname = Ucircumflex;
kernLeft = U;
kernRight = U;
lastChange = "2024-01-02 01:40:52 +0000";
layers = (
{
hints = (
{
horizontal = 1;
place = (960,-20);
target = down;
type = TopGhost;
},
{
horizontal = 1;
place = (770,-20);
target = down;
type = TopGhost;
},
{
horizontal = 1;
place = (-10,45);
type = Stem;
},
{
place = (610,40);
type = Stem;
},
{
place = (123,105);
type = Stem;
}
);
layerId = m01;
shapes = (
{
closed = 1;
nodes = (
(401,960,o),
(390,950,o),
(373,933,cs),
(279,837,l),
(299,820,l),
(426,878,l),
(555,820,l),
(574,837,l),
(481,933,ls),
(462,952,o),
(449,960,o),
(426,960,cs)
);
},
{
ref = U;
}
);
width = 774;
}
);
note = Ucircumflex;
unicode = 219;
},
{
glyphname = Udieresis;
kernLeft = U;
kernRight = U;
lastChange = "2024-01-02 01:40:55 +0000";
layers = (
{
hints = (
{
horizontal = 1;
place = (770,-20);
target = down;
type = TopGhost;
},
{
horizontal = 1;
place = (830,110);
type = Stem;
},
{
horizontal = 1;
place = (-10,45);
type = Stem;
},
{
place = (610,40);
type = Stem;
},
{
place = (465,110);
type = Stem;
},
{
place = (278,110);
type = Stem;
},
{
place = (123,105);
type = Stem;
}
);
layerId = m01;
shapes = (
{
closed = 1;
nodes = (
(278,855,o),
(300,830,o),
(333,830,cs),
(367,830,o),
(388,855,o),
(388,885,cs),
(388,917,o),
(367,940,o),
(333,940,cs),
(300,940,o),
(278,917,o),
(278,885,cs)
);
},
{
closed = 1;
nodes = (
(465,855,o),
(487,830,o),
(520,830,cs),
(554,830,o),
(575,855,o),
(575,885,cs),
(575,917,o),
(554,940,o),
(520,940,cs),
(487,940,o),
(465,917,o),
(465,885,cs)
);
},
{
ref = U;
}
);
width = 774;
}
);
note = Udieresis;
unicode = 220;
},
{
glyphname = Udotbelow;
kernLeft = U;
kernRight = U;
lastChange = "2024-01-02 01:40:57 +0000";
layers = (
{
hints = (
{
horizontal = 1;
place = (770,-20);
target = down;
type = TopGhost;
},
{
horizontal = 1;
place = (-10,45);
type = Stem;
},
{
horizontal = 1;
place = (-256,129);
type = Stem;
},
{
place = (610,40);
type = Stem;
},
{
place = (337,129);
type = Stem;
},
{
place = (123,105);
type = Stem;
}
);
layerId = m01;
shapes = (
{
closed = 1;
nodes = (
(337,-227,o),
(362,-256,o),
(401,-256,cs),
(441,-256,o),
(466,-227,o),
(466,-192,cs),
(466,-155,o),
(441,-127,o),
(401,-127,cs),
(362,-127,o),
(337,-155,o),
(337,-192,cs)
);
},
{
ref = U;
}
);
width = 774;
}
);
note = Udotbelow;
unicode = 7908;
},
{
glyphname = Ugrave;
kernLeft = U;
kernRight = U;
lastChange = "2024-01-02 01:40:59 +0000";
layers = (
{
hints = (
{
horizontal = 1;
place = (960,-20);
target = down;
type = TopGhost;
},
{
horizontal = 1;
place = (770,-20);
target = down;
type = TopGhost;
},
{
horizontal = 1;
place = (-10,45);
type = Stem;
},
{
place = (610,40);
type = Stem;
},
{
place = (123,105);
type = Stem;
}
);
layerId = m01;
shapes = (
{
closed = 1;
nodes = (
(538,837,l),
(394,944,ls),
(379,955,o),
(366,960,o),
(350,960,cs),
(328,960,o),
(307,942,o),
(307,917,cs),
(307,894,o),
(323,875,o),
(375,860,cs),
(527,816,l)
);
},
{
ref = U;
}
);
width = 774;
}
);
note = Ugrave;
unicode = 217;
},
{
glyphname = Uhungarumlaut;
kernLeft = U;
kernRight = U;
lastChange = "2024-01-02 01:41:04 +0000";
layers = (
{
hints = (
{
horizontal = 1;
place = (960,-20);
target = down;
type = TopGhost;
},
{
horizontal = 1;
place = (770,-20);
target = down;
type = TopGhost;
},
{
horizontal = 1;
place = (-10,45);
type = Stem;
},
{
place = (610,40);
type = Stem;
},
{
place = (123,105);
type = Stem;
}
);
layerId = m01;
shapes = (
{
closed = 1;
nodes = (
(311,816,l),
(413,860,ls),
(468,883,o),
(481,895,o),
(481,918,cs),
(481,942,o),
(464,960,o),
(440,960,cs),
(421,960,o),
(401,948,o),
(379,924,cs),
(300,837,l)
);
},
{
closed = 1;
nodes = (
(485,816,l),
(587,860,ls),
(642,883,o),
(655,895,o),
(655,918,cs),
(655,942,o),
(638,960,o),
(614,960,cs),
(595,960,o),
(575,948,o),
(553,924,cs),
(474,837,l)
);
},
{
ref = U;
}
);
width = 774;
}
);
note = Uhungarumlaut;
unicode = 368;
},
{
glyphname = Umacron;
kernLeft = U;
kernRight = U;
lastChange = "2024-01-02 01:41:07 +0000";
layers = (
{
hints = (
{
horizontal = 1;
place = (770,-20);
target = down;
type = TopGhost;
},
{
horizontal = 1;
place = (877,71);
type = Stem;
},
{
horizontal = 1;
place = (-10,45);
type = Stem;
},
{
place = (610,40);
type = Stem;
},
{
place = (123,105);
type = Stem;
}
);
layerId = m01;
shapes = (
{
closed = 1;
nodes = (
(571,877,l),
(571,948,l),
(284,948,l),
(284,877,l)
);
},
{
ref = U;
}
);
width = 774;
}
);
note = Umacron;
unicode = 362;
},
{
glyphname = Uogonek;
kernLeft = U;
kernRight = U;
lastChange = "2024-01-02 01:41:31 +0000";
layers = (
{
hints = (
{
horizontal = 1;
place = (770,-20);
target = down;
type = TopGhost;
},
{
horizontal = 1;
place = (-10,45);
type = Stem;
},
{
horizontal = 1;
place = (-256,55);
type = Stem;
},
{
place = (610,40);
type = Stem;
},
{
place = (284,88);
type = Stem;
},
{
place = (123,105);
type = Stem;
}
);
layerId = m01;
shapes = (
{
closed = 1;
nodes = (
(481,-180,l),
(459,-195,o),
(444,-201,o),
(425,-201,cs),
(390,-201,o),
(372,-182,o),
(372,-144,cs),
(372,-105,o),
(392,-59,o),
(434,-8,c),
(385,-10,l),
(321,-61,o),
(284,-119,o),
(284,-168,cs),
(284,-222,o),
(324,-256,o),
(386,-256,cs),
(429,-256,o),
(464,-239,o),
(496,-202,c)
);
},
{
ref = U;
}
);
width = 774;
}
);
note = Uogonek;
unicode = 370;
},
{
glyphname = Uring;
kernLeft = U;
kernRight = U;
lastChange = "2024-01-02 01:41:34 +0000";
layers = (
{
hints = (
{
horizontal = 1;
place = (770,-20);
target = down;
type = TopGhost;
},
{
horizontal = 1;
place = (935,35);
type = Stem;
},
{
horizontal = 1;
place = (830,35);
type = Stem;
},
{
horizontal = 1;
place = (-10,45);
type = Stem;
},
{
place = (610,40);
type = Stem;
},
{
place = (462,35);
type = Stem;
},
{
place = (357,35);
type = Stem;
},
{
place = (123,105);
type = Stem;
}
);
layerId = m01;
shapes = (
{
closed = 1;
nodes = (
(467,830,o),
(497,860,o),
(497,900,cs),
(497,940,o),
(467,970,o),
(427,970,cs),
(387,970,o),
(357,940,o),
(357,900,cs),
(357,860,o),
(385,830,o),
(427,830,cs)
);
},
{
closed = 1;
nodes = (
(392,921,o),
(406,935,o),
(427,935,cs),
(448,935,o),
(462,921,o),
(462,900,cs),
(462,879,o),
(448,865,o),
(427,865,cs),
(406,865,o),
(392,879,o),
(392,900,cs)
);
},
{
ref = U;
}
);
width = 774;
}
);
note = Uring;
unicode = 366;
},
{
glyphname = Utilde;
kernLeft = U;
kernRight = U;
lastChange = "2024-01-02 01:41:36 +0000";
layers = (
{
hints = (
{
horizontal = 1;
place = (960,-20);
target = down;
type = TopGhost;
},
{
horizontal = 1;
place = (770,-20);
target = down;
type = TopGhost;
},
{
horizontal = 1;
place = (881,76);
type = Stem;
},
{
horizontal = 1;
place = (881,41);
type = Stem;
},
{
horizontal = 1;
place = (842,80);
type = Stem;
},
{
horizontal = 1;
place = (-10,45);
type = Stem;
},
{
place = (610,40);
type = Stem;
},
{
place = (123,105);
type = Stem;
}
);
layerId = m01;
shapes = (
{
closed = 1;
nodes = (
(311,843,l),
(314,867,o),
(333,881,o),
(362,881,cs),
(409,881,o),
(463,842,o),
(510,842,cs),
(559,842,o),
(594,891,o),
(594,960,c),
(570,960,l),
(565,935,o),
(548,922,o),
(520,922,cs),
(475,922,o),
(417,957,o),
(371,957,cs),
(322,957,o),
(287,910,o),
(287,843,c)
);
},
{
ref = U;
}
);
width = 774;
}
);
note = Utilde;
unicode = 360;
},
{
glyphname = V;
lastChange = "2024-01-02 01:42:13 +0000";
layers = (
{
hints = (
{
horizontal = 1;
place = (747,23);
type = Stem;
},
{
horizontal = 1;
place = (-10,21);
target = up;
type = BottomGhost;
}
);
layerId = m01;
shapes = (
{
closed = 1;
nodes = (
(626,707,o),
(640,731,o),
(746,747,c),
(746,770,l),
(465,770,l),
(465,747,l),
(541,737,o),
(567,719,o),
(567,685,cs),
(567,672,o),
(563,656,o),
(557,638,c),
(601,636,l)
);
},
{
closed = 1;
nodes = (
(77,732,o),
(62,742,o),
(-8,747,c),
(-8,770,l),
(317,770,l),
(317,747,l),
(227,742,o),
(212,738,o),
(212,716,c),
(94,686,l)
);
}
);
width = 721;
}
);
note = V;
unicode = 86;
},
{
glyphname = W;
kernLeft = W;
kernRight = W;
lastChange = "2024-01-02 01:42:51 +0000";
layers = (
{
hints = (
{
horizontal = 1;
place = (747,23);
type = Stem;
},
{
horizontal = 1;
place = (-10,21);
target = up;
type = BottomGhost;
}
);
layerId = m01;
shapes = (
{
closed = 1;
nodes = (
(458,732,o),
(443,742,o),
(373,747,c),
(373,770,l),
(698,770,l),
(698,747,l),
(602,741,o),
(595,734,o),
(595,714,c),
(475,686,l)
);
},
{
closed = 1;
nodes = (
(207,735,o),
(218,740,o),
(312,747,c),
(312,770,l),
(-13,770,l),
(-13,747,l),
(57,742,o),
(72,732,o),
(89,686,c),
(207,717,l)
);
},
{
closed = 1;
nodes = (
(927,657,o),
(930,671,o),
(930,686,cs),
(930,720,o),
(906,736,o),
(829,747,c),
(829,770,l),
(1110,770,l),
(1110,747,l),
(1004,731,o),
(988,708,o),
(965,636,c),
(921,638,l)
);
}
);
width = 1090;
}
);
note = W;
unicode = 87;
},
{
glyphname = Wacute;
kernLeft = W;
kernRight = W;
lastChange = "2024-01-02 01:43:05 +0000";
layers = (
{
hints = (
{
horizontal = 1;
place = (747,213);
type = Stem;
},
{
horizontal = 1;
place = (747,23);
type = Stem;
},
{
horizontal = 1;
place = (-10,21);
target = up;
type = BottomGhost;
}
);
layerId = m01;
shapes = (
{
closed = 1;
nodes = (
(437,816,l),
(589,860,ls),
(641,875,o),
(657,894,o),
(657,917,cs),
(657,942,o),
(636,960,o),
(614,960,cs),
(598,960,o),
(585,955,o),
(570,944,cs),
(426,837,l)
);
},
{
ref = W;
}
);
width = 1090;
}
);
note = Wacute;
unicode = 7810;
},
{
glyphname = Wcircumflex;
kernLeft = W;
kernRight = W;
lastChange = "2024-01-02 01:43:07 +0000";
layers = (
{
hints = (
{
horizontal = 1;
place = (747,213);
type = Stem;
},
{
horizontal = 1;
place = (747,23);
type = Stem;
},
{
horizontal = 1;
place = (-10,21);
target = up;
type = BottomGhost;
}
);
layerId = m01;
shapes = (
{
closed = 1;
nodes = (
(508,960,o),
(497,950,o),
(480,933,cs),
(386,837,l),
(406,820,l),
(533,878,l),
(662,820,l),
(681,837,l),
(588,933,ls),
(569,952,o),
(556,960,o),
(533,960,cs)
);
},
{
ref = W;
}
);
width = 1090;
}
);
note = Wcircumflex;
unicode = 372;
},
{
glyphname = Wdieresis;
kernLeft = W;
kernRight = W;
lastChange = "2024-01-02 01:43:10 +0000";
layers = (
{
hints = (
{
horizontal = 1;
place = (830,110);
type = Stem;
},
{
horizontal = 1;
place = (747,23);
type = Stem;
},
{
horizontal = 1;
place = (-10,21);
target = up;
type = BottomGhost;
},
{
place = (494,77);
type = Stem;
},
{
place = (207,177);
type = Stem;
}
);
layerId = m01;
shapes = (
{
closed = 1;
nodes = (
(384,855,o),
(406,830,o),
(439,830,cs),
(473,830,o),
(494,855,o),
(494,885,cs),
(494,917,o),
(473,940,o),
(439,940,cs),
(406,940,o),
(384,917,o),
(384,885,cs)
);
},
{
closed = 1;
nodes = (
(571,855,o),
(593,830,o),
(626,830,cs),
(660,830,o),
(681,855,o),
(681,885,cs),
(681,917,o),
(660,940,o),
(626,940,cs),
(593,940,o),
(571,917,o),
(571,885,cs)
);
},
{
ref = W;
}
);
width = 1090;
}
);
note = Wdieresis;
unicode = 7812;
},
{
glyphname = Wgrave;
kernLeft = W;
kernRight = W;
lastChange = "2024-01-02 01:43:13 +0000";
layers = (
{
hints = (
{
horizontal = 1;
place = (747,213);
type = Stem;
},
{
horizontal = 1;
place = (747,23);
type = Stem;
},
{
horizontal = 1;
place = (-10,21);
target = up;
type = BottomGhost;
}
);
layerId = m01;
shapes = (
{
closed = 1;
nodes = (
(657,837,l),
(513,944,ls),
(498,955,o),
(485,960,o),
(469,960,cs),
(447,960,o),
(426,942,o),
(426,917,cs),
(426,894,o),
(442,875,o),
(494,860,cs),
(646,816,l)
);
},
{
ref = W;
}
);
width = 1090;
}
);
note = Wgrave;
unicode = 7808;
},
{
glyphname = X;
lastChange = "2024-01-02 01:43:46 +0000";
layers = (
{
hints = (
{
horizontal = 1;
place = (747,23);
type = Stem;
},
{
horizontal = 1;
place = (0,22);
type = Stem;
}
);
layerId = m01;
shapes = (
{
closed = 1;
nodes = (
(563,58,o),
(567,49,o),
(567,42,cs),
(567,31,o),
(552,27,o),
(489,22,c),
(489,0,l),
(789,0,l),
(789,22,l),
(727,27,o),
(701,35,o),
(681,65,c),
(551,76,l)
);
},
{
closed = 1;
nodes = (
(677,723,o),
(704,734,o),
(776,747,c),
(776,770,l),
(528,770,l),
(528,747,l),
(580,741,o),
(602,729,o),
(602,711,cs),
(602,700,o),
(596,689,o),
(586,675,c),
(639,678,l)
);
},
{
closed = 1;
nodes = (
(260,709,o),
(257,718,o),
(257,727,cs),
(257,738,o),
(267,744,o),
(326,747,c),
(326,770,l),
(24,770,l),
(24,747,l),
(103,738,o),
(122,730,o),
(139,704,c),
(270,693,l)
);
},
{
closed = 1;
nodes = (
(107,45,o),
(67,30,o),
(-10,20,c),
(-10,0,l),
(261,0,l),
(261,20,l),
(203,26,o),
(177,36,o),
(177,53,cs),
(177,62,o),
(182,76,o),
(194,92,c),
(141,91,l)
);
}
);
width = 787;
}
);
note = X;
unicode = 88;
},
{
glyphname = Y;
kernLeft = Y;
kernRight = Y;
lastChange = "2024-01-02 01:44:06 +0000";
layers = (
{
hints = (
{
horizontal = 1;
place = (747,23);
type = Stem;
},
{
horizontal = 1;
place = (0,21);
target = up;
type = BottomGhost;
}
);
layerId = m01;
shapes = (
{
closed = 1;
nodes = (
(210,23,l),
(210,0,l),
(494,0,l),
(494,23,l),
(405,42,l),
(300,42,l)
);
},
{
closed = 1;
nodes = (
(617,702,o),
(620,731,o),
(726,747,c),
(726,770,l),
(444,770,l),
(444,747,l),
(513,742,o),
(548,718,o),
(548,681,cs),
(548,668,o),
(544,654,o),
(536,638,c),
(581,636,l)
);
},
{
closed = 1;
nodes = (
(220,685,o),
(215,699,o),
(215,710,cs),
(215,730,o),
(233,742,o),
(320,747,c),
(320,770,l),
(-8,770,l),
(-8,747,l),
(62,742,o),
(73,728,o),
(97,686,c),
(228,670,l)
);
}
);
width = 709;
}
);
note = Y;
unicode = 89;
},
{
glyphname = Yacute;
kernLeft = Y;
kernRight = Y;
lastChange = "2024-01-02 01:44:12 +0000";
layers = (
{
hints = (
{
horizontal = 1;
place = (747,213);
type = Stem;
},
{
horizontal = 1;
place = (747,23);
type = Stem;
},
{
horizontal = 1;
place = (0,21);
target = up;
type = BottomGhost;
}
);
layerId = m01;
shapes = (
{
closed = 1;
nodes = (
(299,816,l),
(451,860,ls),
(503,875,o),
(519,894,o),
(519,917,cs),
(519,942,o),
(498,960,o),
(476,960,cs),
(460,960,o),
(447,955,o),
(432,944,cs),
(288,837,l)
);
},
{
ref = Y;
}
);
width = 709;
}
);
note = Yacute;
unicode = 221;
},
{
glyphname = Ycircumflex;
kernLeft = Y;
kernRight = Y;
lastChange = "2024-01-02 01:44:15 +0000";
layers = (
{
hints = (
{
horizontal = 1;
place = (960,-20);
target = down;
type = TopGhost;
},
{
horizontal = 1;
place = (747,23);
type = Stem;
},
{
horizontal = 1;
place = (0,21);
target = up;
type = BottomGhost;
}
);
layerId = m01;
shapes = (
{
closed = 1;
nodes = (
(366,960,o),
(355,950,o),
(338,933,cs),
(244,837,l),
(264,820,l),
(391,878,l),
(520,820,l),
(539,837,l),
(446,933,ls),
(427,952,o),
(414,960,o),
(391,960,cs)
);
},
{
ref = Y;
}
);
width = 709;
}
);
note = Ycircumflex;
unicode = 374;
},
{
glyphname = Ydieresis;
kernLeft = Y;
kernRight = Y;
lastChange = "2024-01-02 01:44:17 +0000";
layers = (
{
hints = (
{
horizontal = 1;
place = (830,110);
type = Stem;
},
{
horizontal = 1;
place = (747,23);
type = Stem;
},
{
horizontal = 1;
place = (0,21);
target = up;
type = BottomGhost;
},
{
place = (354,77);
type = Stem;
}
);
layerId = m01;
shapes = (
{
closed = 1;
nodes = (
(244,855,o),
(266,830,o),
(299,830,cs),
(333,830,o),
(354,855,o),
(354,885,cs),
(354,917,o),
(333,940,o),
(299,940,cs),
(266,940,o),
(244,917,o),
(244,885,cs)
);
},
{
closed = 1;
nodes = (
(431,855,o),
(453,830,o),
(486,830,cs),
(520,830,o),
(541,855,o),
(541,885,cs),
(541,917,o),
(520,940,o),
(486,940,cs),
(453,940,o),
(431,917,o),
(431,885,cs)
);
},
{
ref = Y;
}
);
width = 709;
}
);
note = Ydieresis;
unicode = 376;
},
{
glyphname = Ygrave;
kernLeft = Y;
kernRight = Y;
lastChange = "2024-01-02 01:44:20 +0000";
layers = (
{
hints = (
{
horizontal = 1;
place = (747,213);
type = Stem;
},
{
horizontal = 1;
place = (747,23);
type = Stem;
},
{
horizontal = 1;
place = (0,21);
target = up;
type = BottomGhost;
}
);
layerId = m01;
shapes = (
{
closed = 1;
nodes = (
(503,837,l),
(359,944,ls),
(344,955,o),
(331,960,o),
(315,960,cs),
(293,960,o),
(272,942,o),
(272,917,cs),
(272,894,o),
(288,875,o),
(340,860,cs),
(492,816,l)
);
},
{
ref = Y;
}
);
width = 709;
}
);
note = Ygrave;
unicode = 7922;
},
{
glyphname = Ytilde;
kernLeft = Y;
kernRight = Y;
lastChange = "2024-01-02 01:44:22 +0000";
layers = (
{
hints = (
{
horizontal = 1;
place = (960,-20);
target = down;
type = TopGhost;
},
{
horizontal = 1;
place = (881,76);
type = Stem;
},
{
horizontal = 1;
place = (881,41);
type = Stem;
},
{
horizontal = 1;
place = (842,80);
type = Stem;
},
{
horizontal = 1;
place = (747,23);
type = Stem;
},
{
horizontal = 1;
place = (0,21);
target = up;
type = BottomGhost;
}
);
layerId = m01;
shapes = (
{
closed = 1;
nodes = (
(262,843,l),
(265,867,o),
(284,881,o),
(313,881,cs),
(360,881,o),
(414,842,o),
(461,842,cs),
(510,842,o),
(545,891,o),
(545,960,c),
(521,960,l),
(516,935,o),
(499,922,o),
(471,922,cs),
(426,922,o),
(368,957,o),
(322,957,cs),
(273,957,o),
(238,910,o),
(238,843,c)
);
},
{
ref = Y;
}
);
width = 709;
}
);
note = Ytilde;
unicode = 7928;
},
{
glyphname = Z;
kernLeft = Z;
kernRight = Z;
lastChange = "2024-01-02 01:44:49 +0000";
layers = (
{
hints = (
{
horizontal = 1;
place = (730,40);
type = Stem;
},
{
horizontal = 1;
place = (0,40);
type = Stem;
}
);
layerId = m01;
shapes = (
{
closed = 1;
nodes = (
(509,58,ls),
(556,129,o),
(588,202,o),
(606,247,c),
(632,244,l),
(580,0,l),
(496.993,0,l),
(497,40,l)
);
},
{
closed = 1;
nodes = (
(103,770,l),
(61,552,l),
(87,551,l),
(97,581,o),
(120,637,o),
(159,708,cs),
(171,730,l),
(171,770,l)
);
}
);
width = 676;
}
);
note = Z;
unicode = 90;
},
{
glyphname = Zacute;
kernLeft = Z;
kernRight = Z;
lastChange = "2024-01-02 01:44:54 +0000";
layers = (
{
hints = (
{
horizontal = 1;
place = (730,230);
type = Stem;
},
{
horizontal = 1;
place = (730,40);
type = Stem;
},
{
horizontal = 1;
place = (0,40);
type = Stem;
}
);
layerId = m01;
shapes = (
{
closed = 1;
nodes = (
(257,816,l),
(409,860,ls),
(461,875,o),
(477,894,o),
(477,917,cs),
(477,942,o),
(456,960,o),
(434,960,cs),
(418,960,o),
(405,955,o),
(390,944,cs),
(246,837,l)
);
},
{
ref = Z;
}
);
width = 676;
}
);
note = Zacute;
unicode = 377;
},
{
glyphname = Zcaron;
kernLeft = Z;
kernRight = Z;
lastChange = "2024-01-02 01:44:56 +0000";
layers = (
{
hints = (
{
horizontal = 1;
place = (970,-20);
target = down;
type = TopGhost;
},
{
horizontal = 1;
place = (770,60);
type = Stem;
},
{
horizontal = 1;
place = (730,40);
type = Stem;
},
{
horizontal = 1;
place = (0,40);
type = Stem;
}
);
layerId = m01;
shapes = (
{
closed = 1;
nodes = (
(384,830,o),
(397,838,o),
(416,857,cs),
(509,953,l),
(490,970,l),
(361,912,l),
(234,970,l),
(214,953,l),
(308,857,ls),
(325,840,o),
(336,830,o),
(361,830,cs)
);
},
{
ref = Z;
}
);
width = 676;
}
);
note = Zcaron;
unicode = 381;
},
{
glyphname = Zdotaccent;
kernLeft = Z;
kernRight = Z;
lastChange = "2024-01-02 01:44:59 +0000";
layers = (
{
hints = (
{
horizontal = 1;
place = (830,129);
type = Stem;
},
{
horizontal = 1;
place = (730,40);
type = Stem;
},
{
horizontal = 1;
place = (0,40);
type = Stem;
},
{
place = (304,129);
type = Stem;
}
);
layerId = m01;
shapes = (
{
closed = 1;
nodes = (
(304,859,o),
(329,830,o),
(368,830,cs),
(408,830,o),
(433,859,o),
(433,894,cs),
(433,931,o),
(408,959,o),
(368,959,cs),
(329,959,o),
(304,931,o),
(304,894,cs)
);
},
{
ref = Z;
}
);
width = 676;
}
);
note = Zdotaccent;
unicode = 379;
},
{
glyphname = Zdotbelow;
kernLeft = Z;
kernRight = Z;
lastChange = "2024-01-02 01:45:01 +0000";
layers = (
{
hints = (
{
horizontal = 1;
place = (730,40);
type = Stem;
},
{
horizontal = 1;
place = (0,40);
type = Stem;
},
{
horizontal = 1;
place = (-256,129);
type = Stem;
},
{
place = (254,129);
type = Stem;
}
);
layerId = m01;
shapes = (
{
closed = 1;
nodes = (
(254,-227,o),
(279,-256,o),
(318,-256,cs),
(358,-256,o),
(383,-227,o),
(383,-192,cs),
(383,-155,o),
(358,-127,o),
(318,-127,cs),
(279,-127,o),
(254,-155,o),
(254,-192,cs)
);
},
{
ref = Z;
}
);
width = 676;
}
);
note = Zdotbelow;
unicode = 7826;
},
{
glyphname = a;
kernLeft = a;
kernRight = a;
lastChange = "2024-01-02 01:45:43 +0000";
layers = (
{
hints = (
{
horizontal = 1;
place = (502,38);
type = Stem;
},
{
horizontal = 1;
place = (-10,53);
type = Stem;
},
{
place = (323,95);
type = Stem;
},
{
place = (49,103);
type = Stem;
},
{
place = (49,89);
type = Stem;
}
);
layerId = m01;
shapes = (
{
closed = 1;
nodes = (
(97,476,o),
(54,425,o),
(54,381,cs),
(54,352,o),
(73,333,o),
(100,333,cs),
(130,333,o),
(152,357,o),
(152,391,cs),
(152,402,o),
(150,415,o),
(150,426,cs),
(150,473,o),
(186,502,o),
(243,502,c),
(162,509,l)
);
},
{
closed = 1;
nodes = (
(328,45,o),
(351,-10,o),
(417,-10,cs),
(460,-10,o),
(490,9,o),
(521,57,c),
(504,72,l),
(487,51,o),
(474,43,o),
(455,43,cs),
(426,43,o),
(418,61,o),
(418,127,c),
(328,80,l)
);
}
);
width = 525;
}
);
note = a;
unicode = 97;
},
{
glyphname = aacute;
kernLeft = a;
kernRight = a;
lastChange = "2024-01-02 01:45:49 +0000";
layers = (
{
hints = (
{
horizontal = 1;
place = (859,-20);
target = down;
type = TopGhost;
},
{
horizontal = 1;
place = (502,38);
type = Stem;
},
{
horizontal = 1;
place = (-10,53);
type = Stem;
},
{
place = (323,95);
type = Stem;
},
{
place = (49,89);
type = Stem;
}
);
layerId = m01;
shapes = (
{
closed = 1;
nodes = (
(233,631,l),
(332,755,ls),
(354,782,o),
(362,799,o),
(362,816,cs),
(362,841,o),
(344,859,o),
(323,859,cs),
(294,859,o),
(278,841,o),
(268,812,cs),
(212,642,l)
);
},
{
ref = a;
}
);
width = 525;
}
);
note = aacute;
unicode = 225;
},
{
glyphname = abreve;
kernLeft = a;
kernRight = a;
lastChange = "2024-01-02 01:45:51 +0000";
layers = (
{
hints = (
{
horizontal = 1;
place = (651,139);
type = Stem;
},
{
horizontal = 1;
place = (651,74);
type = Stem;
},
{
horizontal = 1;
place = (502,38);
type = Stem;
},
{
horizontal = 1;
place = (-10,53);
type = Stem;
},
{
place = (323,95);
type = Stem;
},
{
place = (49,103);
type = Stem;
},
{
place = (49,89);
type = Stem;
}
);
layerId = m01;
shapes = (
{
closed = 1;
nodes = (
(137,790,l),
(148,686,o),
(216,651,o),
(274,651,cs),
(317,651,o),
(389,666,o),
(421,790,c),
(387,790,l),
(364,744,o),
(322,725,o),
(278,725,cs),
(231,725,o),
(188,744,o),
(172,790,c)
);
},
{
ref = a;
}
);
width = 525;
}
);
note = abreve;
unicode = 259;
},
{
glyphname = acircumflex;
kernLeft = a;
kernRight = a;
lastChange = "2024-01-02 01:45:53 +0000";
layers = (
{
hints = (
{
horizontal = 1;
place = (857,-20);
target = down;
type = TopGhost;
},
{
horizontal = 1;
place = (502,38);
type = Stem;
},
{
horizontal = 1;
place = (-10,53);
type = Stem;
},
{
place = (323,95);
type = Stem;
},
{
place = (49,103);
type = Stem;
},
{
place = (49,89);
type = Stem;
}
);
layerId = m01;
shapes = (
{
closed = 1;
nodes = (
(256,857,o),
(243,847,o),
(235,828,cs),
(151,640,l),
(171,628,l),
(277,769,l),
(385,628,l),
(407,640,l),
(323,828,ls),
(314,847,o),
(303,857,o),
(281,857,cs)
);
},
{
ref = a;
}
);
width = 525;
}
);
note = acircumflex;
unicode = 226;
},
{
glyphname = acute;
layers = (
{
hints = (
{
horizontal = 1;
place = (859,-20);
target = down;
type = TopGhost;
},
{
horizontal = 1;
place = (631,21);
target = up;
type = BottomGhost;
}
);
layerId = m01;
shapes = (
{
closed = 1;
nodes = (
(31,631,l),
(130,755,ls),
(152,782,o),
(160,799,o),
(160,816,cs),
(160,841,o),
(142,859,o),
(121,859,cs),
(92,859,o),
(76,841,o),
(66,812,cs),
(10,642,l)
);
}
);
width = 170;
}
);
note = acute;
unicode = 180;
},
{
glyphname = acute.cap;
layers = (
{
hints = (
{
horizontal = 1;
place = (960,-20);
target = down;
type = TopGhost;
},
{
horizontal = 1;
place = (816,21);
target = up;
type = BottomGhost;
}
);
layerId = m01;
shapes = (
{
closed = 1;
nodes = (
(21,816,l),
(173,860,ls),
(225,875,o),
(241,894,o),
(241,917,cs),
(241,942,o),
(220,960,o),
(198,960,cs),
(182,960,o),
(169,955,o),
(154,944,cs),
(10,837,l)
);
}
);
width = 251;
}
);
note = acute.cap;
},
{
glyphname = adieresis;
kernLeft = a;
kernRight = a;
lastChange = "2024-01-02 01:45:57 +0000";
layers = (
{
hints = (
{
horizontal = 1;
place = (670,110);
type = Stem;
},
{
horizontal = 1;
place = (502,38);
type = Stem;
},
{
horizontal = 1;
place = (-10,53);
type = Stem;
},
{
place = (323,95);
type = Stem;
},
{
place = (303,115);
type = Stem;
},
{
place = (116,110);
type = Stem;
},
{
place = (49,103);
type = Stem;
},
{
place = (49,89);
type = Stem;
}
);
layerId = m01;
shapes = (
{
closed = 1;
nodes = (
(116,695,o),
(138,670,o),
(171,670,cs),
(205,670,o),
(226,695,o),
(226,725,cs),
(226,757,o),
(205,780,o),
(171,780,cs),
(138,780,o),
(116,757,o),
(116,725,cs)
);
},
{
closed = 1;
nodes = (
(303,695,o),
(325,670,o),
(358,670,cs),
(392,670,o),
(413,695,o),
(413,725,cs),
(413,757,o),
(392,780,o),
(358,780,cs),
(325,780,o),
(303,757,o),
(303,725,cs)
);
},
{
ref = a;
}
);
width = 525;
}
);
note = adieresis;
unicode = 228;
},
{
glyphname = ae;
kernLeft = a;
kernRight = ae;
lastChange = "2024-01-02 01:46:07 +0000";
layers = (
{
hints = (
{
horizontal = 1;
place = (502,38);
type = Stem;
},
{
horizontal = 1;
place = (308,32);
type = Stem;
},
{
horizontal = 1;
place = (-10,59);
type = Stem;
},
{
place = (690,105);
type = Stem;
},
{
place = (323,100);
type = Stem;
},
{
place = (49,103);
type = Stem;
},
{
place = (49,89);
type = Stem;
}
);
layerId = m01;
shapes = (
{
closed = 1;
nodes = (
(97,476,o),
(54,425,o),
(54,381,cs),
(54,352,o),
(73,333,o),
(100,333,cs),
(130,333,o),
(152,357,o),
(152,391,cs),
(152,402,o),
(150,415,o),
(150,426,cs),
(150,473,o),
(186,502,o),
(243,502,c),
(162,509,l)
);
}
);
width = 836;
}
);
note = ae;
unicode = 230;
},
{
glyphname = aeacute;
kernLeft = a;
kernRight = ae;
lastChange = "2024-01-02 01:46:11 +0000";
layers = (
{
hints = (
{
horizontal = 1;
place = (859,-20);
target = down;
type = TopGhost;
},
{
horizontal = 1;
place = (502,38);
type = Stem;
},
{
horizontal = 1;
place = (308,32);
type = Stem;
},
{
horizontal = 1;
place = (-10,73);
type = Stem;
},
{
horizontal = 1;
place = (-10,59);
type = Stem;
},
{
place = (690,105);
type = Stem;
},
{
place = (323,100);
type = Stem;
},
{
place = (49,89);
type = Stem;
}
);
layerId = m01;
shapes = (
{
closed = 1;
nodes = (
(393,631,l),
(492,755,ls),
(514,782,o),
(522,799,o),
(522,816,cs),
(522,841,o),
(504,859,o),
(483,859,cs),
(454,859,o),
(438,841,o),
(428,812,cs),
(372,642,l)
);
},
{
ref = ae;
}
);
width = 836;
}
);
note = aeacute;
unicode = 509;
},
{
glyphname = agrave;
kernLeft = a;
kernRight = a;
lastChange = "2024-01-02 01:46:14 +0000";
layers = (
{
hints = (
{
horizontal = 1;
place = (859,-20);
target = down;
type = TopGhost;
},
{
horizontal = 1;
place = (502,38);
type = Stem;
},
{
horizontal = 1;
place = (-10,53);
type = Stem;
},
{
place = (323,95);
type = Stem;
},
{
place = (49,103);
type = Stem;
},
{
place = (49,89);
type = Stem;
}
);
layerId = m01;
shapes = (
{
closed = 1;
nodes = (
(340,642,l),
(284,812,ls),
(274,841,o),
(258,859,o),
(229,859,cs),
(208,859,o),
(190,841,o),
(190,816,cs),
(190,799,o),
(198,782,o),
(220,755,cs),
(319,631,l)
);
},
{
ref = a;
}
);
width = 525;
}
);
note = agrave;
unicode = 224;
},
{
glyphname = amacron;
kernLeft = a;
kernRight = a;
lastChange = "2024-01-02 01:46:17 +0000";
layers = (
{
hints = (
{
horizontal = 1;
place = (709,71);
type = Stem;
},
{
horizontal = 1;
place = (502,38);
type = Stem;
},
{
horizontal = 1;
place = (-10,53);
type = Stem;
},
{
place = (323,95);
type = Stem;
},
{
place = (49,103);
type = Stem;
},
{
place = (49,89);
type = Stem;
}
);
layerId = m01;
shapes = (
{
closed = 1;
nodes = (
(415,709,l),
(415,780,l),
(128,780,l),
(128,709,l)
);
},
{
ref = a;
}
);
width = 525;
}
);
note = amacron;
unicode = 257;
},
{
glyphname = ampersand;
lastChange = "2024-01-02 01:46:41 +0000";
layers = (
{
hints = (
{
horizontal = 1;
place = (744,36);
type = Stem;
},
{
horizontal = 1;
place = (-10,57);
type = Stem;
},
{
horizontal = 1;
place = (0,21);
target = up;
type = BottomGhost;
},
{
place = (461,68);
type = Stem;
},
{
place = (272,189);
type = Stem;
},
{
place = (202,70);
type = Stem;
},
{
place = (90,104);
type = Stem;
}
);
layerId = m01;
shapes = (
{
closed = 1;
nodes = (
(639,426,o),
(632,431,o),
(542,441,c),
(542,465,l),
(797,465,l),
(797,441,l),
(708,433,o),
(698,423,o),
(687,377,c),
(639,392,l)
);
},
{
closed = 1;
nodes = (
(797,0,l),
(797,23,l),
(711,51,l),
(623,0,l)
);
}
);
width = 812;
}
);
note = ampersand;
unicode = 38;
},
{
glyphname = aogonek;
kernLeft = a;
kernRight = a;
lastChange = "2024-01-02 01:47:11 +0000";
layers = (
{
hints = (
{
horizontal = 1;
place = (502,38);
type = Stem;
},
{
horizontal = 1;
place = (-10,53);
type = Stem;
},
{
horizontal = 1;
place = (-256,55);
type = Stem;
},
{
place = (323,95);
type = Stem;
},
{
place = (323,80);
type = Stem;
},
{
place = (49,103);
type = Stem;
},
{
place = (49,89);
type = Stem;
},
{
horizontal = 1;
place = (502,38);
type = Stem;
},
{
horizontal = 1;
place = (-10,53);
type = Stem;
},
{
place = (323,95);
type = Stem;
},
{
place = (49,103);
type = Stem;
},
{
place = (49,89);
type = Stem;
}
);
layerId = m01;
shapes = (
{
closed = 1;
nodes = (
(460,-256,o),
(495,-239,o),
(527,-202,c),
(512,-180,l),
(490,-195,o),
(475,-201,o),
(456,-201,cs),
(420,-201,o),
(403,-182,o),
(403,-141,cs),
(403,-92,o),
(427,-53,o),
(460,-14,cs),
(521,57,l),
(504,72,l),
(486,35,o),
(448,14,o),
(416,-10,c),
(351,-62,o),
(315,-119,o),
(315,-169,cs),
(315,-221,o),
(354,-256,o),
(417,-256,cs)
);
},
{
closed = 1;
nodes = (
(460,-10,o),
(490,9,o),
(521,57,c),
(504,72,l),
(487,51,o),
(474,43,o),
(455,43,cs),
(426,43,o),
(418,61,o),
(418,127,c),
(328,80,l),
(328,45,o),
(351,-10,o),
(417,-10,cs)
);
},
{
closed = 1;
nodes = (
(130,333,o),
(152,357,o),
(152,391,cs),
(152,402,o),
(150,415,o),
(150,426,cs),
(150,473,o),
(186,502,o),
(243,502,c),
(162,509,l),
(97,476,o),
(54,425,o),
(54,381,cs),
(54,352,o),
(73,333,o),
(100,333,cs)
);
}
);
width = 526;
}
);
note = aogonek;
unicode = 261;
},
{
glyphname = apostrophe;
layers = (
{
hints = (
{
horizontal = 1;
place = (857,-20);
target = down;
type = TopGhost;
},
{
horizontal = 1;
place = (640,21);
target = up;
type = BottomGhost;
},
{
place = (69,56);
type = Stem;
},
{
place = (10,115);
type = Stem;
}
);
layerId = m01;
shapes = (
{
closed = 1;
nodes = (
(37,640,l),
(95,677,o),
(125,725,o),
(125,786,cs),
(125,825,o),
(101,857,o),
(66,857,cs),
(34,857,o),
(10,833,o),
(10,801,cs),
(10,751,o),
(69,760,o),
(69,721,cs),
(69,707,o),
(49,683,o),
(21,664,c)
);
}
);
width = 135;
}
);
note = apostrophe;
unicode = 700;
},
{
glyphname = aring;
kernLeft = a;
kernRight = a;
lastChange = "2024-01-02 01:47:21 +0000";
layers = (
{
hints = (
{
horizontal = 1;
place = (782,35);
type = Stem;
},
{
horizontal = 1;
place = (651,35);
type = Stem;
},
{
horizontal = 1;
place = (502,38);
type = Stem;
},
{
horizontal = 1;
place = (-10,53);
type = Stem;
},
{
place = (323,95);
type = Stem;
},
{
place = (323,33);
type = Stem;
},
{
place = (190,35);
type = Stem;
},
{
place = (49,103);
type = Stem;
},
{
place = (49,89);
type = Stem;
}
);
layerId = m01;
shapes = (
{
closed = 1;
nodes = (
(320,651,o),
(356,687,o),
(356,734,cs),
(356,781,o),
(320,817,o),
(273,817,cs),
(226,817,o),
(190,781,o),
(190,734,cs),
(190,687,o),
(223,651,o),
(273,651,cs)
);
},
{
closed = 1;
nodes = (
(225,763,o),
(244,782,o),
(273,782,cs),
(302,782,o),
(321,763,o),
(321,734,cs),
(321,705,o),
(302,686,o),
(273,686,cs),
(244,686,o),
(225,705,o),
(225,734,cs)
);
},
{
ref = a;
}
);
width = 525;
}
);
note = aring;
unicode = 229;
},
{
glyphname = aringacute;
kernLeft = a;
kernRight = a;
lastChange = "2024-01-02 01:47:23 +0000";
layers = (
{
hints = (
{
horizontal = 1;
place = (747,196);
type = Stem;
},
{
horizontal = 1;
place = (747,35);
type = Stem;
},
{
horizontal = 1;
place = (616,35);
type = Stem;
},
{
horizontal = 1;
place = (502,38);
type = Stem;
},
{
horizontal = 1;
place = (-10,53);
type = Stem;
},
{
place = (323,95);
type = Stem;
},
{
place = (323,24);
type = Stem;
},
{
place = (181,35);
type = Stem;
},
{
place = (49,89);
type = Stem;
}
);
layerId = m01;
shapes = (
{
closed = 1;
nodes = (
(311,616,o),
(347,652,o),
(347,699,cs),
(347,746,o),
(311,782,o),
(259,782,c),
(305,839,ls),
(327,866,o),
(335,883,o),
(335,900,cs),
(335,925,o),
(317,943,o),
(296,943,cs),
(267,943,o),
(251,925,o),
(241,896,cs),
(186,729,ls),
(183,720,o),
(181,709,o),
(181,699,cs),
(181,652,o),
(214,616,o),
(264,616,cs)
);
},
{
closed = 1;
nodes = (
(216,728,o),
(235,747,o),
(264,747,cs),
(293,747,o),
(312,728,o),
(312,699,cs),
(312,670,o),
(293,651,o),
(264,651,cs),
(235,651,o),
(216,670,o),
(216,699,cs)
);
},
{
ref = a;
}
);
width = 525;
}
);
note = aringacute;
unicode = 507;
},
{
glyphname = asciicircum;
layers = (
{
hints = (
{
horizontal = 1;
place = (711,-20);
target = down;
type = TopGhost;
},
{
horizontal = 1;
place = (332,21);
target = up;
type = BottomGhost;
}
);
layerId = m01;
shapes = (
{
closed = 1;
nodes = (
(90,332,l),
(247,649,l),
(251,649,l),
(410,332,l),
(452,332,l),
(268,711,l),
(232,711,l),
(47,332,l)
);
}
);
width = 499;
}
);
note = asciicircum;
unicode = 94;
},
{
glyphname = asciitilde;
layers = (
{
hints = (
{
horizontal = 1;
place = (276,83);
type = Stem;
},
{
horizontal = 1;
place = (223,84);
type = Stem;
}
);
layerId = m01;
shapes = (
{
closed = 1;
nodes = (
(110,223,l),
(119,254,o),
(133,276,o),
(178,276,cs),
(251,276,o),
(321,223,o),
(392,223,cs),
(484,223,o),
(510,307,o),
(510,359,c),
(480,359,l),
(471,328,o),
(457,307,o),
(412,307,cs),
(338,307,o),
(270,359,o),
(198,359,cs),
(106,359,o),
(80,275,o),
(80,223,c)
);
}
);
width = 588;
}
);
note = asciitilde;
unicode = 126;
},
{
glyphname = asterisk;
layers = (
{
hints = (
{
horizontal = 1;
place = (830,-20);
target = down;
type = TopGhost;
},
{
horizontal = 1;
place = (515,233);
type = Stem;
},
{
horizontal = 1;
place = (432,21);
target = up;
type = BottomGhost;
},
{
place = (203,215);
type = Stem;
},
{
place = (203,75);
type = Stem;
},
{
place = (63,215);
type = Stem;
}
);
layerId = m01;
shapes = (
{
closed = 1;
nodes = (
(278,592,ls),
(319,561,o),
(337,515,o),
(377,515,cs),
(401,515,o),
(418,530,o),
(418,554,cs),
(418,600,o),
(354,591,o),
(291,619,cs),
(262,632,l),
(293,645,ls),
(351,669,o),
(418,661,o),
(418,708,cs),
(418,729,o),
(405,748,o),
(377,748,cs),
(339,748,o),
(327,710,o),
(277,670,cs),
(252,650,l),
(255,682,ls),
(259,730,o),
(277,751,o),
(278,784,cs),
(278,816,o),
(261,830,o),
(241,830,cs),
(220,830,o),
(203,816,o),
(203,784,cs),
(203,752,o),
(221,728,o),
(226,684,cs),
(230,650,l),
(204,669,ls),
(159,702,o),
(144,747,o),
(104,747,cs),
(77,747,o),
(63,729,o),
(63,707,cs),
(63,660,o),
(130,668,o),
(188,644,cs),
(219,631,l),
(190,618,ls),
(131,591,o),
(63,599,o),
(63,553,cs),
(63,530,o),
(79,514,o),
(104,514,cs),
(144,514,o),
(162,560,o),
(203,591,cs),
(231,612,l),
(227,579,ls),
(222,540,o),
(204,505,o),
(204,476,cs),
(204,449,o),
(218,432,o),
(242,432,cs),
(266,432,o),
(279,449,o),
(279,472,cs),
(279,498,o),
(263,533,o),
(257,578,cs),
(252,612,l)
);
}
);
width = 481;
}
);
note = asterisk;
unicode = 42;
},
{
glyphname = at;
lastChange = "2024-01-02 01:47:36 +0000";
layers = (
{
hints = (
{
horizontal = 1;
place = (595,45);
type = Stem;
},
{
horizontal = 1;
place = (417,43);
type = Stem;
},
{
horizontal = 1;
place = (44,55);
type = Stem;
},
{
horizontal = 1;
place = (31,50);
type = Stem;
},
{
horizontal = 1;
place = (-143,39);
type = Stem;
},
{
place = (761,50);
type = Stem;
},
{
place = (477,78);
type = Stem;
},
{
place = (222,87);
type = Stem;
},
{
place = (57,56);
type = Stem;
}
);
layerId = m01;
shapes = (
{
closed = 1;
nodes = (
(555,89,o),
(572,81,o),
(596,81,cs),
(682,81,o),
(761,185,o),
(761,325,cs),
(761,512,o),
(619,595,o),
(471,595,cs),
(247,595,o),
(113,407,o),
(113,202,cs),
(113,63,o),
(174,-104,o),
(443,-104,cs),
(526,-104,o),
(580,-88,o),
(620,-64,c),
(631,-93,l),
(565,-126,o),
(494,-143,o),
(418,-143,cs),
(233,-143,o),
(57,-45,o),
(57,203,cs),
(57,465,o),
(253,640,o),
(481,640,cs),
(685,640,o),
(811,500,o),
(811,328,cs),
(811,171,o),
(707,31,o),
(580,31,cs),
(514,31,o),
(477,68,o),
(477,113,c),
(555,120,l)
);
}
);
width = 875;
}
);
note = at;
unicode = 64;
},
{
glyphname = atilde;
kernLeft = a;
kernRight = a;
lastChange = "2024-01-02 01:47:40 +0000";
layers = (
{
hints = (
{
horizontal = 1;
place = (800,-20);
target = down;
type = TopGhost;
},
{
horizontal = 1;
place = (721,76);
type = Stem;
},
{
horizontal = 1;
place = (721,41);
type = Stem;
},
{
horizontal = 1;
place = (682,80);
type = Stem;
},
{
horizontal = 1;
place = (502,38);
type = Stem;
},
{
horizontal = 1;
place = (-10,53);
type = Stem;
},
{
place = (323,95);
type = Stem;
},
{
place = (49,103);
type = Stem;
},
{
place = (49,89);
type = Stem;
}
);
layerId = m01;
shapes = (
{
closed = 1;
nodes = (
(135,683,l),
(138,707,o),
(157,721,o),
(186,721,cs),
(233,721,o),
(287,682,o),
(334,682,cs),
(383,682,o),
(418,731,o),
(418,800,c),
(394,800,l),
(389,775,o),
(372,762,o),
(344,762,cs),
(299,762,o),
(241,797,o),
(195,797,cs),
(146,797,o),
(111,750,o),
(111,683,c)
);
},
{
ref = a;
}
);
width = 525;
}
);
note = atilde;
unicode = 227;
},
{
glyphname = b;
kernLeft = b;
kernRight = b;
lastChange = "2024-01-02 01:48:11 +0000";
layers = (
{
hints = (
{
horizontal = 1;
place = (830,-20);
target = down;
type = TopGhost;
},
{
horizontal = 1;
place = (486,54);
type = Stem;
},
{
horizontal = 1;
place = (-10,34);
type = Stem;
},
{
place = (449,107);
type = Stem;
},
{
place = (87,96);
type = Stem;
}
);
layerId = m01;
shapes = (
{
closed = 1;
nodes = (
(14,768,l),
(14,781,l),
(173,830,l),
(183,830,l),
(87,741,l)
);
},
{
closed = 1;
nodes = (
(87,2,l),
(103,2,l),
(149,36,l),
(87,36,l)
);
}
);
width = 602;
}
);
note = b;
unicode = 98;
},
{
glyphname = breve;
layers = (
{
hints = (
{
horizontal = 1;
place = (651,139);
type = Stem;
},
{
horizontal = 1;
place = (651,74);
type = Stem;
}
);
layerId = m01;
shapes = (
{
closed = 1;
nodes = (
(10,790,l),
(21,686,o),
(89,651,o),
(147,651,cs),
(190,651,o),
(262,666,o),
(294,790,c),
(260,790,l),
(237,744,o),
(195,725,o),
(151,725,cs),
(104,725,o),
(61,744,o),
(45,790,c)
);
}
);
width = 304;
}
);
note = breve;
unicode = 728;
},
{
glyphname = breve.cap;
layers = (
{
hints = (
{
horizontal = 1;
place = (830,129);
type = Stem;
},
{
horizontal = 1;
place = (830,74);
type = Stem;
}
);
layerId = m01;
shapes = (
{
closed = 1;
nodes = (
(10,959,l),
(21,862,o),
(89,830,o),
(147,830,cs),
(190,830,o),
(262,844,o),
(294,959,c),
(260,959,l),
(237,920,o),
(195,904,o),
(151,904,cs),
(104,904,o),
(61,920,o),
(45,959,c)
);
}
);
width = 304;
}
);
note = breve.cap;
},
{
glyphname = bullet;
layers = (
{
hints = (
{
horizontal = 1;
place = (259,230);
type = Stem;
},
{
place = (85,240);
type = Stem;
}
);
layerId = m01;
shapes = (
{
closed = 1;
nodes = (
(85,311,o),
(139,259,o),
(205,259,cs),
(271,259,o),
(325,311,o),
(325,374,cs),
(325,437,o),
(271,489,o),
(205,489,cs),
(139,489,o),
(85,437,o),
(85,374,cs)
);
}
);
width = 410;
}
);
note = bullet;
unicode = 8226;
},
{
glyphname = c;
kernLeft = c;
kernRight = c;
lastChange = "2024-01-02 01:48:32 +0000";
layers = (
{
hints = (
{
horizontal = 1;
place = (508,32);
type = Stem;
},
{
horizontal = 1;
place = (365,175);
type = Stem;
},
{
horizontal = 1;
place = (-10,73);
type = Stem;
},
{
place = (46,102);
type = Stem;
}
);
layerId = m01;
shapes = (
{
closed = 1;
nodes = (
(414,540,o),
(492,486,o),
(492,422,cs),
(492,388,o),
(475,365,o),
(446,365,cs),
(411,365,o),
(392,385,o),
(387,428,cs),
(379,494,o),
(360,508,o),
(315,508,c),
(312,540,l)
);
}
);
width = 535;
}
);
note = c;
unicode = 99;
},
{
glyphname = c_t;
kernLeft = c;
kernRight = c_t;
lastChange = "2024-01-02 01:48:56 +0000";
layers = (
{
hints = (
{
horizontal = 1;
place = (530,-20);
target = down;
type = TopGhost;
},
{
horizontal = 1;
place = (805,35);
type = Stem;
},
{
horizontal = 1;
place = (508,32);
type = Stem;
},
{
horizontal = 1;
place = (495,45);
type = Stem;
},
{
horizontal = 1;
place = (-10,73);
type = Stem;
},
{
horizontal = 1;
place = (-10,47);
type = Stem;
},
{
place = (657,79);
type = Stem;
},
{
place = (641,95);
type = Stem;
},
{
place = (288,65);
type = Stem;
},
{
place = (46,102);
type = Stem;
}
);
layerId = m01;
shapes = (
{
closed = 1;
nodes = (
(821,37,o),
(847,50,o),
(871,78,c),
(888,65,l),
(856,17,o),
(806,-10,o),
(749,-10,c),
(791,37,l)
);
},
{
closed = 1;
nodes = (
(742,757,o),
(663,840,o),
(522,840,cs),
(386,840,o),
(288,763,o),
(288,656,cs),
(288,610,o),
(307,567,o),
(345,542,c),
(345,538,l),
(339,539,o),
(324,540,o),
(313,540,c),
(310,508,l),
(347,508,o),
(360,496,o),
(377,448,cs),
(395,395,o),
(403,385,o),
(430,385,cs),
(462,385,o),
(482,404,o),
(482,436,cs),
(482,472,o),
(454,499,o),
(414,521,cs),
(369,546,o),
(353,586,o),
(353,641,cs),
(353,742,o),
(415,805,o),
(512,805,cs),
(605,805,o),
(657,747,o),
(657,645,c),
(742,609,l)
);
}
);
width = 895;
}
);
note = c_t;
},
{
glyphname = cacute;
kernLeft = c;
kernRight = c;
lastChange = "2024-01-02 01:49:03 +0000";
layers = (
{
hints = (
{
horizontal = 1;
place = (859,-20);
target = down;
type = TopGhost;
},
{
horizontal = 1;
place = (508,32);
type = Stem;
},
{
horizontal = 1;
place = (365,175);
type = Stem;
},
{
horizontal = 1;
place = (-10,73);
type = Stem;
},
{
place = (46,102);
type = Stem;
}
);
layerId = m01;
shapes = (
{
closed = 1;
nodes = (
(309,631,l),
(408,755,ls),
(430,782,o),
(438,799,o),
(438,816,cs),
(438,841,o),
(420,859,o),
(399,859,cs),
(370,859,o),
(354,841,o),
(344,812,cs),
(288,642,l)
);
},
{
ref = c;
}
);
width = 535;
}
);
note = cacute;
unicode = 263;
},
{
glyphname = caron;
layers = (
{
hints = (
{
horizontal = 1;
place = (859,-20);
target = down;
type = TopGhost;
},
{
horizontal = 1;
place = (630,21);
target = up;
type = BottomGhost;
}
);
layerId = m01;
shapes = (
{
closed = 1;
nodes = (
(160,630,o),
(172,640,o),
(181,659,cs),
(266,847,l),
(245,859,l),
(138,718,l),
(31,859,l),
(10,847,l),
(93,659,ls),
(102,640,o),
(113,630,o),
(138,630,cs)
);
}
);
width = 276;
}
);
note = caron;
unicode = 711;
},
{
glyphname = caron.alt;
layers = (
{
hints = (
{
horizontal = 1;
place = (857,-20);
target = down;
type = TopGhost;
},
{
horizontal = 1;
place = (642,21);
target = up;
type = BottomGhost;
},
{
place = (13,84);
type = Stem;
}
);
layerId = m01;
shapes = (
{
closed = 1;
nodes = (
(36,642,l),
(85,775,ls),
(92,795,o),
(97,810,o),
(97,822,cs),
(97,844,o),
(86,857,o),
(68,857,cs),
(32,857,o),
(19,838,o),
(17,805,cs),
(10,642,l)
);
}
);
width = 107;
}
);
note = caron.alt;
},
{
glyphname = caron.cap;
layers = (
{
hints = (
{
horizontal = 1;
place = (960,-20);
target = down;
type = TopGhost;
},
{
horizontal = 1;
place = (820,21);
target = up;
type = BottomGhost;
}
);
layerId = m01;
shapes = (
{
closed = 1;
nodes = (
(180,820,o),
(193,828,o),
(212,847,cs),
(305,943,l),
(286,960,l),
(157,902,l),
(30,960,l),
(10,943,l),
(104,847,ls),
(121,830,o),
(132,820,o),
(157,820,cs)
);
}
);
width = 315;
}
);
note = caron.cap;
},
{
glyphname = ccaron;
kernLeft = c;
kernRight = c;
lastChange = "2024-01-02 01:49:08 +0000";
layers = (
{
hints = (
{
horizontal = 1;
place = (859,-20);
target = down;
type = TopGhost;
},
{
horizontal = 1;
place = (540,90);
type = Stem;
},
{
horizontal = 1;
place = (508,32);
type = Stem;
},
{
horizontal = 1;
place = (365,175);
type = Stem;
},
{
horizontal = 1;
place = (-10,73);
type = Stem;
},
{
place = (46,102);
type = Stem;
}
);
layerId = m01;
shapes = (
{
closed = 1;
nodes = (
(343,630,o),
(355,640,o),
(364,659,cs),
(449,847,l),
(428,859,l),
(321,718,l),
(214,859,l),
(193,847,l),
(276,659,ls),
(285,640,o),
(296,630,o),
(321,630,cs)
);
},
{
ref = c;
}
);
width = 535;
}
);
note = ccaron;
unicode = 269;
},
{
glyphname = ccedilla;
kernLeft = c;
kernRight = c;
lastChange = "2024-01-02 01:49:20 +0000";
layers = (
{
hints = (
{
horizontal = 1;
place = (508,32);
type = Stem;
},
{
horizontal = 1;
place = (365,175);
type = Stem;
},
{
horizontal = 1;
place = (-9,72);
type = Stem;
},
{
horizontal = 1;
place = (-125,67);
type = Stem;
},
{
horizontal = 1;
place = (-257,37);
type = Stem;
},
{
place = (330,75);
type = Stem;
},
{
place = (46,102);
type = Stem;
}
);
layerId = m01;
shapes = (
{
closed = 1;
nodes = (
(222,-124,l),
(231,-133,l),
(247,-128,o),
(267,-125,o),
(282,-125,cs),
(313,-125,o),
(330,-141,o),
(330,-168,cs),
(330,-198,o),
(305,-220,o),
(265,-220,cs),
(245,-220,o),
(232,-216,o),
(209,-203,c),
(195,-233,l),
(212,-248,o),
(242,-257,o),
(273,-257,cs),
(354,-257,o),
(405,-214,o),
(405,-156,cs),
(405,-100,o),
(361,-58,o),
(290,-58,c),
(309,-9,l),
(271,-9,l)
);
},
{
ref = c;
}
);
width = 535;
}
);
note = ccedilla;
unicode = 231;
},
{
glyphname = ccircumflex;
kernLeft = c;
kernRight = c;
lastChange = "2024-01-02 01:49:25 +0000";
layers = (
{
hints = (
{
horizontal = 1;
place = (857,-20);
target = down;
type = TopGhost;
},
{
horizontal = 1;
place = (508,32);
type = Stem;
},
{
horizontal = 1;
place = (365,175);
type = Stem;
},
{
horizontal = 1;
place = (-10,73);
type = Stem;
},
{
place = (46,102);
type = Stem;
}
);
layerId = m01;
shapes = (
{
closed = 1;
nodes = (
(300,857,o),
(287,847,o),
(279,828,cs),
(195,640,l),
(215,628,l),
(321,769,l),
(429,628,l),
(451,640,l),
(367,828,ls),
(358,847,o),
(347,857,o),
(325,857,cs)
);
},
{
ref = c;
}
);
width = 535;
}
);
note = ccircumflex;
unicode = 265;
},
{
glyphname = cdotaccent;
kernLeft = c;
kernRight = c;
lastChange = "2024-01-02 01:49:28 +0000";
layers = (
{
hints = (
{
horizontal = 1;
place = (651,129);
type = Stem;
},
{
horizontal = 1;
place = (508,32);
type = Stem;
},
{
horizontal = 1;
place = (365,175);
type = Stem;
},
{
horizontal = 1;
place = (-10,73);
type = Stem;
},
{
place = (258,129);
type = Stem;
},
{
place = (46,102);
type = Stem;
}
);
layerId = m01;
shapes = (
{
closed = 1;
nodes = (
(258,680,o),
(283,651,o),
(322,651,cs),
(362,651,o),
(387,680,o),
(387,715,cs),
(387,752,o),
(362,780,o),
(322,780,cs),
(283,780,o),
(258,752,o),
(258,715,cs)
);
},
{
ref = c;
}
);
width = 535;
}
);
note = cdotaccent;
unicode = 267;
},
{
glyphname = cedilla;
layers = (
{
hints = (
{
horizontal = 1;
place = (17,-20);
target = down;
type = TopGhost;
},
{
horizontal = 1;
place = (-125,67);
type = Stem;
},
{
horizontal = 1;
place = (-257,37);
type = Stem;
},
{
place = (145,75);
type = Stem;
}
);
layerId = m01;
shapes = (
{
closed = 1;
nodes = (
(10,-233,l),
(27,-248,o),
(57,-257,o),
(88,-257,cs),
(169,-257,o),
(220,-214,o),
(220,-156,cs),
(220,-100,o),
(176,-58,o),
(105,-58,c),
(134,17,l),
(97,17,l),
(37,-124,l),
(46,-133,l),
(62,-128,o),
(82,-125,o),
(97,-125,cs),
(128,-125,o),
(145,-141,o),
(145,-168,cs),
(145,-198,o),
(120,-220,o),
(80,-220,cs),
(60,-220,o),
(47,-216,o),
(24,-203,c)
);
}
);
width = 230;
}
);
note = cedilla;
unicode = 184;
},
{
glyphname = cent;
lastChange = "2024-01-02 01:50:16 +0000";
layers = (
{
hints = (
{
horizontal = 1;
place = (670,-20);
target = down;
type = TopGhost;
},
{
horizontal = 1;
place = (365,175);
type = Stem;
},
{
horizontal = 1;
place = (-130,21);
target = up;
type = BottomGhost;
},
{
place = (282,226);
type = Stem;
},
{
place = (282,42);
type = Stem;
},
{
place = (52,102);
type = Stem;
}
);
layerId = m01;
shapes = (
{
closed = 1;
nodes = (
(324,670,l),
(282,670,l),
(282,538,l),
(282,-9,l),
(282,-130,l),
(324,-130,l),
(324,-8,l),
(324,63,l),
(324,507,l),
(369,502,o),
(395,479,o),
(403,428,cs),
(410,385,o),
(427,365,o),
(462,365,cs),
(491,365,o),
(508,388,o),
(508,422,cs),
(508,485,o),
(429,538,o),
(324,540,c)
);
},
{
closed = 1;
nodes = (
(282,506,l),
(282,68,l)
);
}
);
width = 554;
}
);
note = cent;
unicode = 162;
},
{
glyphname = cent.tnum;
lastChange = "2024-01-02 01:50:04 +0000";
layers = (
{
hints = (
{
horizontal = 1;
place = (670,-20);
target = down;
type = TopGhost;
},
{
horizontal = 1;
place = (365,175);
type = Stem;
},
{
horizontal = 1;
place = (-130,21);
target = up;
type = BottomGhost;
},
{
place = (302,226);
type = Stem;
},
{
place = (302,42);
type = Stem;
},
{
place = (72,102);
type = Stem;
}
);
layerId = m01;
shapes = (
{
closed = 1;
nodes = (
(344,670,l),
(302,670,l),
(302,538,l),
(302,-9,l),
(302,-130,l),
(344,-130,l),
(344,-8,l),
(344,63,l),
(344,507,l),
(389,502,o),
(415,479,o),
(423,428,cs),
(430,385,o),
(447,365,o),
(482,365,cs),
(511,365,o),
(528,388,o),
(528,422,cs),
(528,485,o),
(449,538,o),
(344,540,c)
);
},
{
closed = 1;
nodes = (
(302,506,l),
(302,68,l)
);
}
);
width = 600;
}
);
note = cent.tnum;
},
{
glyphname = circumflex;
layers = (
{
hints = (
{
horizontal = 1;
place = (857,-20);
target = down;
type = TopGhost;
},
{
horizontal = 1;
place = (628,21);
target = up;
type = BottomGhost;
}
);
layerId = m01;
shapes = (
{
closed = 1;
nodes = (
(115,857,o),
(102,847,o),
(94,828,cs),
(10,640,l),
(30,628,l),
(136,769,l),
(244,628,l),
(266,640,l),
(182,828,ls),
(173,847,o),
(162,857,o),
(140,857,cs)
);
}
);
width = 276;
}
);
note = circumflex;
unicode = 710;
},
{
glyphname = circumflex.cap;
layers = (
{
hints = (
{
horizontal = 1;
place = (960,-20);
target = down;
type = TopGhost;
},
{
horizontal = 1;
place = (820,21);
target = up;
type = BottomGhost;
}
);
layerId = m01;
shapes = (
{
closed = 1;
nodes = (
(132,960,o),
(121,950,o),
(104,933,cs),
(10,837,l),
(30,820,l),
(157,878,l),
(286,820,l),
(305,837,l),
(212,933,ls),
(193,952,o),
(180,960,o),
(157,960,cs)
);
}
);
width = 315;
}
);
note = circumflex.cap;
},
{
glyphname = colon;
kernLeft = colon;
kernRight = colon;
layers = (
{
hints = (
{
horizontal = 1;
place = (333,138);
type = Stem;
},
{
horizontal = 1;
place = (-10,138);
type = Stem;
},
{
place = (73,138);
type = Stem;
}
);
layerId = m01;
shapes = (
{
closed = 1;
nodes = (
(73,364,o),
(100,333,o),
(141,333,cs),
(184,333,o),
(211,364,o),
(211,401,cs),
(211,441,o),
(184,471,o),
(141,471,cs),
(100,471,o),
(73,441,o),
(73,401,cs)
);
},
{
closed = 1;
nodes = (
(73,21,o),
(100,-10,o),
(141,-10,cs),
(184,-10,o),
(211,21,o),
(211,58,cs),
(211,98,o),
(184,128,o),
(141,128,cs),
(100,128,o),
(73,98,o),
(73,58,cs)
);
}
);
width = 284;
}
);
note = colon;
unicode = 58;
},
{
glyphname = colon.tnum;
layers = (
{
hints = (
{
horizontal = 1;
place = (333,138);
type = Stem;
},
{
horizontal = 1;
place = (-10,138);
type = Stem;
},
{
place = (81,138);
type = Stem;
}
);
layerId = m01;
shapes = (
{
closed = 1;
nodes = (
(81,364,o),
(108,333,o),
(149,333,cs),
(192,333,o),
(219,364,o),
(219,401,cs),
(219,441,o),
(192,471,o),
(149,471,cs),
(108,471,o),
(81,441,o),
(81,401,cs)
);
},
{
closed = 1;
nodes = (
(81,21,o),
(108,-10,o),
(149,-10,cs),
(192,-10,o),
(219,21,o),
(219,58,cs),
(219,98,o),
(192,128,o),
(149,128,cs),
(108,128,o),
(81,98,o),
(81,58,cs)
);
}
);
width = 300;
}
);
note = colon.tnum;
},
{
glyphname = comma;
kernLeft = comma;
kernRight = comma;
layers = (
{
hints = (
{
horizontal = 1;
place = (128,-20);
target = down;
type = TopGhost;
},
{
horizontal = 1;
place = (-151,21);
target = up;
type = BottomGhost;
},
{
place = (137,63);
type = Stem;
},
{
place = (62,138);
type = Stem;
}
);
layerId = m01;
shapes = (
{
closed = 1;
nodes = (
(95,-151,l),
(164,-101,o),
(200,-38,o),
(200,43,cs),
(200,89,o),
(172,128,o),
(129,128,cs),
(91,128,o),
(62,99,o),
(62,61,cs),
(62,0,o),
(137,11,o),
(137,-36,cs),
(137,-59,o),
(112,-94,o),
(75,-122,c)
);
}
);
width = 263;
}
);
note = comma;
unicode = 44;
},
{
glyphname = comma.tnum;
layers = (
{
hints = (
{
horizontal = 1;
place = (128,-20);
target = down;
type = TopGhost;
},
{
horizontal = 1;
place = (-151,21);
target = up;
type = BottomGhost;
},
{
place = (156,63);
type = Stem;
},
{
place = (81,138);
type = Stem;
}
);
layerId = m01;
shapes = (
{
closed = 1;
nodes = (
(114,-151,l),
(183,-101,o),
(219,-38,o),
(219,43,cs),
(219,89,o),
(191,128,o),
(148,128,cs),
(110,128,o),
(81,99,o),
(81,61,cs),
(81,0,o),
(156,11,o),
(156,-36,cs),
(156,-59,o),
(131,-94,o),
(94,-122,c)
);
}
);
width = 300;
}
);
note = comma.tnum;
},
{
glyphname = commaaccent;
layers = (
{
hints = (
{
horizontal = 1;
place = (-54,-20);
target = down;
type = TopGhost;
},
{
horizontal = 1;
place = (-256,21);
target = up;
type = BottomGhost;
},
{
place = (59,61);
type = Stem;
},
{
place = (10,110);
type = Stem;
}
);
layerId = m01;
shapes = (
{
closed = 1;
nodes = (
(32,-256,l),
(90,-222,o),
(120,-177,o),
(120,-120,cs),
(120,-84,o),
(98,-54,o),
(66,-54,cs),
(34,-54,o),
(10,-76,o),
(10,-105,cs),
(10,-152,o),
(59,-144,o),
(59,-180,cs),
(59,-193,o),
(41,-215,o),
(16,-232,c)
);
}
);
width = 130;
}
);
note = commaaccent;
unicode = 63171;
},
{
glyphname = copyright;
lastChange = "2024-01-02 01:50:41 +0000";
layers = (
{
hints = (
{
horizontal = 1;
place = (735,45);
type = Stem;
},
{
horizontal = 1;
place = (582,35);
type = Stem;
},
{
horizontal = 1;
place = (161,34);
type = Stem;
},
{
horizontal = 1;
place = (-10,45);
type = Stem;
},
{
place = (795,53);
type = Stem;
},
{
place = (230,95);
type = Stem;
},
{
place = (54,52);
type = Stem;
}
);
layerId = m01;
shapes = (
{
closed = 1;
nodes = (
(54,168,o),
(232,-10,o),
(451,-10,cs),
(670,-10,o),
(848,168,o),
(848,385,cs),
(848,602,o),
(670,780,o),
(451,780,cs),
(232,780,o),
(54,602,o),
(54,385,cs)
);
},
{
closed = 1;
nodes = (
(106,576,o),
(258,735,o),
(451,735,cs),
(644,735,o),
(795,576,o),
(795,385,cs),
(795,194,o),
(644,35,o),
(451,35,cs),
(258,35,o),
(106,194,o),
(106,385,cs)
);
},
{
closed = 1;
nodes = (
(576,267,o),
(587,292,o),
(593,323,c),
(613,323,l),
(613,162,l),
(599,162,l),
(573,208,l),
(563,248,l)
);
},
{
closed = 1;
nodes = (
(575,577,l),
(599,615,l),
(613,615,l),
(613,472,l),
(591,472,l),
(584,494,o),
(578,507,o),
(569,522,c),
(571,577,l)
);
}
);
width = 902;
}
);
note = copyright;
unicode = 169;
},
{
glyphname = d;
kernLeft = d;
kernRight = d;
lastChange = "2024-01-02 01:51:00 +0000";
layers = (
{
hints = (
{
horizontal = 1;
place = (830,-20);
target = down;
type = TopGhost;
},
{
horizontal = 1;
place = (510,30);
type = Stem;
},
{
horizontal = 1;
place = (-10,65);
type = Stem;
},
{
place = (418,94);
type = Stem;
},
{
place = (47,105);
type = Stem;
}
);
layerId = m01;
shapes = (
{
closed = 1;
nodes = (
(502,830,l),
(345,781,l),
(345,768,l),
(418,740,l),
(512,830,l)
);
},
{
closed = 1;
nodes = (
(580,63,l),
(580,52,l),
(432,-10,l),
(425,-10,l),
(425,76,l),
(512,78,l)
);
}
);
width = 607;
}
);
note = d;
unicode = 100;
},
{
glyphname = dcaron;
kernLeft = d;
kernRight = d;
lastChange = "2024-01-02 01:51:21 +0000";
layers = (
{
hints = (
{
horizontal = 1;
place = (857,-20);
target = down;
type = TopGhost;
},
{
horizontal = 1;
place = (830,-20);
target = down;
type = TopGhost;
},
{
horizontal = 1;
place = (510,30);
type = Stem;
},
{
horizontal = 1;
place = (-10,65);
type = Stem;
},
{
place = (578,84);
type = Stem;
},
{
place = (418,94);
type = Stem;
},
{
place = (47,105);
type = Stem;
}
);
layerId = m01;
shapes = (
{
closed = 1;
nodes = (
(601,642,l),
(650,775,ls),
(657,795,o),
(662,810,o),
(662,822,cs),
(662,844,o),
(651,857,o),
(633,857,cs),
(597,857,o),
(584,838,o),
(582,805,cs),
(575,642,l)
);
},
{
ref = d;
}
);
width = 607;
}
);
note = dcaron;
unicode = 271;
},
{
glyphname = dcroat;
kernLeft = d;
kernRight = d;
lastChange = "2024-01-02 01:51:25 +0000";
layers = (
{
hints = (
{
horizontal = 1;
place = (830,-20);
target = down;
type = TopGhost;
},
{
horizontal = 1;
place = (609,65);
type = Stem;
},
{
horizontal = 1;
place = (510,30);
type = Stem;
},
{
horizontal = 1;
place = (-10,65);
type = Stem;
},
{
place = (425,156);
type = Stem;
},
{
place = (425,87);
type = Stem;
},
{
place = (47,105);
type = Stem;
}
);
layerId = m01;
shapes = (
{
closed = 1;
nodes = (
(512,609,l),
(581,609,l),
(581,674,l),
(512,674,l),
(418,674,l),
(274,674,l),
(274,609,l),
(418,609,l)
);
},
{
ref = d;
}
);
width = 607;
}
);
note = dcroat;
unicode = 273;
},
{
glyphname = ddotbelow;
kernLeft = d;
kernRight = d;
lastChange = "2024-01-02 01:51:27 +0000";
layers = (
{
hints = (
{
horizontal = 1;
place = (830,-20);
target = down;
type = TopGhost;
},
{
horizontal = 1;
place = (510,30);
type = Stem;
},
{
horizontal = 1;
place = (-10,65);
type = Stem;
},
{
horizontal = 1;
place = (-256,129);
type = Stem;
},
{
place = (418,94);
type = Stem;
},
{
place = (243,129);
type = Stem;
},
{
place = (47,105);
type = Stem;
}
);
layerId = m01;
shapes = (
{
closed = 1;
nodes = (
(243,-227,o),
(268,-256,o),
(307,-256,cs),
(347,-256,o),
(372,-227,o),
(372,-192,cs),
(372,-155,o),
(347,-127,o),
(307,-127,cs),
(268,-127,o),
(243,-155,o),
(243,-192,cs)
);
},
{
ref = d;
}
);
width = 607;
}
);
note = ddotbelow;
unicode = 7693;
},
{
glyphname = degree;
layers = (
{
hints = (
{
horizontal = 1;
place = (790,40);
type = Stem;
},
{
horizontal = 1;
place = (587,41);
type = Stem;
},
{
place = (250,41);
type = Stem;
},
{
place = (49,41);
type = Stem;
}
);
layerId = m01;
shapes = (
{
closed = 1;
nodes = (
(238,587,o),
(291,640,o),
(291,708,cs),
(291,775,o),
(237,830,o),
(170,830,cs),
(102,830,o),
(49,776,o),
(49,708,cs),
(49,640,o),
(102,587,o),
(170,587,cs)
);
},
{
closed = 1;
nodes = (
(90,756,o),
(124,790,o),
(170,790,cs),
(218,790,o),
(250,756,o),
(250,708,cs),
(250,662,o),
(218,628,o),
(170,628,cs),
(124,628,o),
(90,662,o),
(90,708,cs)
);
}
);
width = 340;
}
);
note = degree;
unicode = 176;
},
{
glyphname = degree.tnum;
layers = (
{
hints = (
{
horizontal = 1;
place = (790,40);
type = Stem;
},
{
horizontal = 1;
place = (587,41);
type = Stem;
},
{
place = (230,41);
type = Stem;
},
{
place = (29,41);
type = Stem;
}
);
layerId = m01;
shapes = (
{
closed = 1;
nodes = (
(218,587,o),
(271,640,o),
(271,708,cs),
(271,775,o),
(217,830,o),
(150,830,cs),
(82,830,o),
(29,776,o),
(29,708,cs),
(29,640,o),
(82,587,o),
(150,587,cs)
);
},
{
closed = 1;
nodes = (
(70,756,o),
(104,790,o),
(150,790,cs),
(198,790,o),
(230,756,o),
(230,708,cs),
(230,662,o),
(198,628,o),
(150,628,cs),
(104,628,o),
(70,662,o),
(70,708,cs)
);
}
);
width = 300;
}
);
note = degree.tnum;
},
{
glyphname = dieresis;
layers = (
{
hints = (
{
horizontal = 1;
place = (670,110);
type = Stem;
},
{
place = (197,110);
type = Stem;
},
{
place = (10,110);
type = Stem;
}
);
layerId = m01;
shapes = (
{
closed = 1;
nodes = (
(10,695,o),
(32,670,o),
(65,670,cs),
(99,670,o),
(120,695,o),
(120,725,cs),
(120,757,o),
(99,780,o),
(65,780,cs),
(32,780,o),
(10,757,o),
(10,725,cs)
);
},
{
closed = 1;
nodes = (
(197,695,o),
(219,670,o),
(252,670,cs),
(286,670,o),
(307,695,o),
(307,725,cs),
(307,757,o),
(286,780,o),
(252,780,cs),
(219,780,o),
(197,757,o),
(197,725,cs)
);
}
);
width = 317;
}
);
note = dieresis;
unicode = 168;
},
{
glyphname = dieresis.cap;
layers = (
{
hints = (
{
horizontal = 1;
place = (857,110);
type = Stem;
},
{
place = (197,110);
type = Stem;
},
{
place = (10,110);
type = Stem;
}
);
layerId = m01;
shapes = (
{
closed = 1;
nodes = (
(10,882,o),
(32,857,o),
(65,857,cs),
(99,857,o),
(120,882,o),
(120,912,cs),
(120,944,o),
(99,967,o),
(65,967,cs),
(32,967,o),
(10,944,o),
(10,912,cs)
);
},
{
closed = 1;
nodes = (
(197,882,o),
(219,857,o),
(252,857,cs),
(286,857,o),
(307,882,o),
(307,912,cs),
(307,944,o),
(286,967,o),
(252,967,cs),
(219,967,o),
(197,944,o),
(197,912,cs)
);
}
);
width = 317;
}
);
note = dieresis.cap;
},
{
glyphname = dollar;
lastChange = "2024-01-02 01:51:34 +0000";
layers = (
{
hints = (
{
horizontal = 1;
place = (888,-20);
target = down;
type = TopGhost;
},
{
horizontal = 1;
place = (591,189);
type = Stem;
},
{
horizontal = 1;
place = (-9,189);
type = Stem;
},
{
horizontal = 1;
place = (-102,21);
target = up;
type = BottomGhost;
},
{
place = (394,92);
type = Stem;
},
{
place = (257,42);
type = Stem;
},
{
place = (61,105);
type = Stem;
}
);
layerId = m01;
shapes = (
{
closed = 1;
nodes = (
(299,888,l),
(257,888,l),
(257,778,l),
(257,332,l),
(257,32,l),
(189,38,o),
(178,74,o),
(167,112,cs),
(158,145,o),
(147,180,o),
(106,180,cs),
(73,180,o),
(52,157,o),
(52,121,cs),
(52,49,o),
(139,-9,o),
(257,-9,c),
(257,-102,l),
(299,-102,l),
(299,-4,l),
(299,451,l),
(299,736,l),
(333,725,o),
(348,702,o),
(360,659,cs),
(370,623,o),
(380,591,o),
(420,591,cs),
(454,591,o),
(475,614,o),
(475,650,cs),
(475,720,o),
(397,776,o),
(299,780,c)
);
},
{
closed = 1;
nodes = (
(299,35,l),
(299,305,l)
);
},
{
closed = 1;
nodes = (
(257,737,l),
(257,478,l)
);
}
);
width = 537;
}
);
note = dollar;
unicode = 36;
},
{
glyphname = dollar.tnum;
lastChange = "2024-01-02 01:51:38 +0000";
layers = (
{
hints = (
{
horizontal = 1;
place = (888,-20);
target = down;
type = TopGhost;
},
{
horizontal = 1;
place = (591,189);
type = Stem;
},
{
horizontal = 1;
place = (-9,189);
type = Stem;
},
{
horizontal = 1;
place = (-102,21);
target = up;
type = BottomGhost;
},
{
place = (425,92);
type = Stem;
},
{
place = (288,42);
type = Stem;
},
{
place = (92,105);
type = Stem;
}
);
layerId = m01;
shapes = (
{
closed = 1;
nodes = (
(330,888,l),
(288,888,l),
(288,778,l),
(288,332,l),
(288,32,l),
(220,38,o),
(209,74,o),
(198,112,cs),
(189,145,o),
(178,180,o),
(137,180,cs),
(104,180,o),
(83,157,o),
(83,121,cs),
(83,49,o),
(170,-9,o),
(288,-9,c),
(288,-102,l),
(330,-102,l),
(330,-4,l),
(330,451,l),
(330,736,l),
(365,725,o),
(381,697,o),
(391,659,cs),
(399,627,o),
(410,591,o),
(452,591,cs),
(485,591,o),
(506,614,o),
(506,650,cs),
(506,720,o),
(428,776,o),
(330,780,c)
);
},
{
closed = 1;
nodes = (
(330,35,l),
(330,305,l)
);
},
{
closed = 1;
nodes = (
(288,737,l),
(288,478,l)
);
}
);
width = 600;
}
);
note = dollar.tnum;
},
{
glyphname = dotaccent;
layers = (
{
hints = (
{
horizontal = 1;
place = (651,129);
type = Stem;
},
{
place = (10,129);
type = Stem;
}
);
layerId = m01;
shapes = (
{
closed = 1;
nodes = (
(10,680,o),
(35,651,o),
(74,651,cs),
(114,651,o),
(139,680,o),
(139,715,cs),
(139,752,o),
(114,780,o),
(74,780,cs),
(35,780,o),
(10,752,o),
(10,715,cs)
);
}
);
width = 149;
}
);
note = dotaccent;
unicode = 729;
},
{
glyphname = dotaccent.cap;
layers = (
{
hints = (
{
horizontal = 1;
place = (830,129);
type = Stem;
},
{
place = (10,129);
type = Stem;
}
);
layerId = m01;
shapes = (
{
closed = 1;
nodes = (
(10,859,o),
(35,830,o),
(74,830,cs),
(114,830,o),
(139,859,o),
(139,894,cs),
(139,931,o),
(114,959,o),
(74,959,cs),
(35,959,o),
(10,931,o),
(10,894,cs)
);
}
);
width = 149;
}
);
note = dotaccent.cap;
},
{
glyphname = dotbelow;
layers = (
{
hints = (
{
horizontal = 1;
place = (-256,129);
type = Stem;
},
{
place = (10,129);
type = Stem;
}
);
layerId = m01;
shapes = (
{
closed = 1;
nodes = (
(10,-227,o),
(35,-256,o),
(74,-256,cs),
(114,-256,o),
(139,-227,o),
(139,-192,cs),
(139,-155,o),
(114,-127,o),
(74,-127,cs),
(35,-127,o),
(10,-155,o),
(10,-192,cs)
);
}
);
width = 149;
}
);
note = dotbelow;
},
{
glyphname = dotlessi;
kernLeft = dotlessi;
kernRight = dotlessi;
lastChange = "2024-01-02 01:56:50 +0000";
layers = (
{
hints = (
{
horizontal = 1;
place = (540,-20);
target = down;
type = TopGhost;
},
{
horizontal = 1;
place = (0,21);
target = up;
type = BottomGhost;
},
{
place = (107,95);
type = Stem;
}
);
layerId = m01;
shapes = (
{
closed = 1;
nodes = (
(31,20,l),
(31,0,l),
(277,0,l),
(277,20,l),
(202,35,l),
(107,35,l)
);
}
);
width = 300;
}
);
note = dotlessi;
unicode = 305;
},
{
glyphname = dotlessj;
kernLeft = dotlessj;
kernRight = dotlessj;
lastChange = "2024-01-02 01:56:51 +0000";
layers = (
{
hints = (
{
horizontal = 1;
place = (540,-20);
target = down;
type = TopGhost;
},
{
horizontal = 1;
place = (-260,142);
type = Stem;
},
{
horizontal = 1;
place = (-260,47);
type = Stem;
},
{
place = (99,95);
type = Stem;
}
);
layerId = m01;
shapes = (
{
closed = 1;
nodes = (
(-9,-213,o),
(-20,-202,o),
(-34,-164,cs),
(-45,-134,o),
(-61,-118,o),
(-89,-118,cs),
(-122,-118,o),
(-143,-141,o),
(-143,-178,cs),
(-143,-229,o),
(-101,-260,o),
(-33,-260,c),
(16,-213,l)
);
}
);
width = 280;
}
);
note = dotlessj;
unicode = 567;
},
{
glyphname = eacute;
kernLeft = c;
kernRight = ae;
lastChange = "2024-01-02 01:52:28 +0000";
layers = (
{
hints = (
{
horizontal = 1;
place = (859,-20);
target = down;
type = TopGhost;
},
{
horizontal = 1;
place = (509,31);
type = Stem;
},
{
horizontal = 1;
place = (308,32);
type = Stem;
},
{
horizontal = 1;
place = (-10,73);
type = Stem;
},
{
place = (414,105);
type = Stem;
},
{
place = (47,100);
type = Stem;
}
);
layerId = m01;
shapes = (
{
closed = 1;
nodes = (
(266,631,l),
(365,755,ls),
(387,782,o),
(395,799,o),
(395,816,cs),
(395,841,o),
(377,859,o),
(356,859,cs),
(327,859,o),
(311,841,o),
(301,812,cs),
(245,642,l)
);
}
);
width = 560;
}
);
note = eacute;
unicode = 233;
},
{
glyphname = ebreve;
kernLeft = c;
kernRight = ae;
lastChange = "2024-01-02 01:52:29 +0000";
layers = (
{
hints = (
{
horizontal = 1;
place = (651,139);
type = Stem;
},
{
horizontal = 1;
place = (651,74);
type = Stem;
},
{
horizontal = 1;
place = (509,31);
type = Stem;
},
{
horizontal = 1;
place = (308,32);
type = Stem;
},
{
horizontal = 1;
place = (-10,73);
type = Stem;
},
{
place = (414,105);
type = Stem;
},
{
place = (47,100);
type = Stem;
}
);
layerId = m01;
shapes = (
{
closed = 1;
nodes = (
(184,790,l),
(195,686,o),
(263,651,o),
(321,651,cs),
(364,651,o),
(436,666,o),
(468,790,c),
(434,790,l),
(411,744,o),
(369,725,o),
(325,725,cs),
(278,725,o),
(235,744,o),
(219,790,c)
);
}
);
width = 560;
}
);
note = ebreve;
unicode = 277;
},
{
glyphname = ecaron;
kernLeft = c;
kernRight = ae;
lastChange = "2024-01-02 01:52:32 +0000";
layers = (
{
hints = (
{
horizontal = 1;
place = (859,-20);
target = down;
type = TopGhost;
},
{
horizontal = 1;
place = (540,90);
type = Stem;
},
{
horizontal = 1;
place = (509,31);
type = Stem;
},
{
horizontal = 1;
place = (308,32);
type = Stem;
},
{
horizontal = 1;
place = (-10,73);
type = Stem;
},
{
place = (414,105);
type = Stem;
},
{
place = (47,100);
type = Stem;
}
);
layerId = m01;
shapes = (
{
closed = 1;
nodes = (
(339,630,o),
(351,640,o),
(360,659,cs),
(445,847,l),
(424,859,l),
(317,718,l),
(210,859,l),
(189,847,l),
(272,659,ls),
(281,640,o),
(292,630,o),
(317,630,cs)
);
}
);
width = 560;
}
);
note = ecaron;
unicode = 283;
},
{
glyphname = ecircumflex;
kernLeft = c;
kernRight = ae;
lastChange = "2024-01-02 01:52:34 +0000";
layers = (
{
hints = (
{
horizontal = 1;
place = (857,-20);
target = down;
type = TopGhost;
},
{
horizontal = 1;
place = (509,31);
type = Stem;
},
{
horizontal = 1;
place = (308,32);
type = Stem;
},
{
horizontal = 1;
place = (-10,73);
type = Stem;
},
{
place = (414,105);
type = Stem;
},
{
place = (47,100);
type = Stem;
}
);
layerId = m01;
shapes = (
{
closed = 1;
nodes = (
(296,857,o),
(283,847,o),
(275,828,cs),
(191,640,l),
(211,628,l),
(317,769,l),
(425,628,l),
(447,640,l),
(363,828,ls),
(354,847,o),
(343,857,o),
(321,857,cs)
);
}
);
width = 560;
}
);
note = ecircumflex;
unicode = 234;
},
{
glyphname = edieresis;
kernLeft = c;
kernRight = ae;
lastChange = "2024-01-02 01:52:35 +0000";
layers = (
{
hints = (
{
horizontal = 1;
place = (670,110);
type = Stem;
},
{
horizontal = 1;
place = (509,31);
type = Stem;
},
{
horizontal = 1;
place = (308,32);
type = Stem;
},
{
horizontal = 1;
place = (-10,73);
type = Stem;
},
{
place = (414,105);
type = Stem;
},
{
place = (350,110);
type = Stem;
},
{
place = (163,110);
type = Stem;
},
{
place = (47,100);
type = Stem;
}
);
layerId = m01;
shapes = (
{
closed = 1;
nodes = (
(163,695,o),
(185,670,o),
(218,670,cs),
(252,670,o),
(273,695,o),
(273,725,cs),
(273,757,o),
(252,780,o),
(218,780,cs),
(185,780,o),
(163,757,o),
(163,725,cs)
);
},
{
closed = 1;
nodes = (
(350,695,o),
(372,670,o),
(405,670,cs),
(439,670,o),
(460,695,o),
(460,725,cs),
(460,757,o),
(439,780,o),
(405,780,cs),
(372,780,o),
(350,757,o),
(350,725,cs)
);
}
);
width = 560;
}
);
note = edieresis;
unicode = 235;
},
{
glyphname = edotaccent;
kernLeft = c;
kernRight = ae;
lastChange = "2024-01-02 01:52:37 +0000";
layers = (
{
hints = (
{
horizontal = 1;
place = (651,129);
type = Stem;
},
{
horizontal = 1;
place = (509,31);
type = Stem;
},
{
horizontal = 1;
place = (308,32);
type = Stem;
},
{
horizontal = 1;
place = (-10,73);
type = Stem;
},
{
place = (414,105);
type = Stem;
},
{
place = (255,129);
type = Stem;
},
{
place = (47,100);
type = Stem;
}
);
layerId = m01;
shapes = (
{
closed = 1;
nodes = (
(255,680,o),
(280,651,o),
(319,651,cs),
(359,651,o),
(384,680,o),
(384,715,cs),
(384,752,o),
(359,780,o),
(319,780,cs),
(280,780,o),
(255,752,o),
(255,715,cs)
);
}
);
width = 560;
}
);
note = edotaccent;
unicode = 279;
},
{
glyphname = edotbelow;
kernLeft = c;
kernRight = ae;
lastChange = "2024-01-02 01:52:38 +0000";
layers = (
{
hints = (
{
horizontal = 1;
place = (509,31);
type = Stem;
},
{
horizontal = 1;
place = (308,32);
type = Stem;
},
{
horizontal = 1;
place = (-10,73);
type = Stem;
},
{
horizontal = 1;
place = (-256,129);
type = Stem;
},
{
place = (414,105);
type = Stem;
},
{
place = (237,129);
type = Stem;
},
{
place = (47,100);
type = Stem;
}
);
layerId = m01;
shapes = (
{
closed = 1;
nodes = (
(237,-227,o),
(262,-256,o),
(301,-256,cs),
(341,-256,o),
(366,-227,o),
(366,-192,cs),
(366,-155,o),
(341,-127,o),
(301,-127,cs),
(262,-127,o),
(237,-155,o),
(237,-192,cs)
);
}
);
width = 560;
}
);
note = edotbelow;
unicode = 7865;
},
{
glyphname = egrave;
kernLeft = c;
kernRight = ae;
lastChange = "2024-01-02 01:52:42 +0000";
layers = (
{
hints = (
{
horizontal = 1;
place = (859,-20);
target = down;
type = TopGhost;
},
{
horizontal = 1;
place = (509,31);
type = Stem;
},
{
horizontal = 1;
place = (308,32);
type = Stem;
},
{
horizontal = 1;
place = (-10,73);
type = Stem;
},
{
place = (414,105);
type = Stem;
},
{
place = (47,100);
type = Stem;
}
);
layerId = m01;
shapes = (
{
closed = 1;
nodes = (
);
},
{
closed = 1;
nodes = (
(352,642,l),
(296,812,ls),
(286,841,o),
(270,859,o),
(241,859,cs),
(220,859,o),
(202,841,o),
(202,816,cs),
(202,799,o),
(210,782,o),
(232,755,cs),
(331,631,l)
);
}
);
width = 560;
}
);
note = egrave;
unicode = 232;
},
{
glyphname = eng;
kernLeft = eng;
lastChange = "2024-01-02 01:53:12 +0000";
layers = (
{
hints = (
{
horizontal = 1;
place = (485,55);
type = Stem;
},
{
horizontal = 1;
place = (-260,142);
type = Stem;
},
{
horizontal = 1;
place = (-260,47);
type = Stem;
},
{
horizontal = 1;
place = (0,21);
target = up;
type = BottomGhost;
},
{
place = (420,95);
type = Stem;
},
{
place = (107,95);
type = Stem;
}
);
layerId = m01;
shapes = (
{
closed = 1;
nodes = (
(312,-213,o),
(301,-202,o),
(287,-164,cs),
(276,-134,o),
(260,-118,o),
(232,-118,cs),
(199,-118,o),
(178,-141,o),
(178,-178,cs),
(178,-229,o),
(220,-260,o),
(288,-260,c),
(337,-213,l)
);
},
{
closed = 1;
nodes = (
(31,20,l),
(31,0,l),
(277,0,l),
(277,20,l),
(202,35,l),
(107,35,l)
);
},
{
closed = 1;
nodes = (
(188,540,l),
(33,491,l),
(33,478,l),
(107,450,l),
(198,540,l)
);
}
);
width = 596;
}
);
note = eng;
unicode = 331;
},
{
glyphname = eogonek;
kernLeft = c;
kernRight = ae;
lastChange = "2024-01-02 01:53:16 +0000";
layers = (
{
hints = (
{
horizontal = 1;
place = (509,31);
type = Stem;
},
{
horizontal = 1;
place = (308,32);
type = Stem;
},
{
horizontal = 1;
place = (-10,73);
type = Stem;
},
{
horizontal = 1;
place = (-256,55);
type = Stem;
},
{
place = (414,105);
type = Stem;
},
{
place = (220,88);
type = Stem;
},
{
place = (47,100);
type = Stem;
}
);
layerId = m01;
shapes = (
{
closed = 1;
nodes = (
(417,-180,l),
(395,-195,o),
(380,-201,o),
(361,-201,cs),
(325,-201,o),
(308,-182,o),
(308,-141,cs),
(308,-96,o),
(328,-39,o),
(386,3,c),
(324,-7,l),
(259,-59,o),
(220,-118,o),
(220,-169,cs),
(220,-221,o),
(260,-256,o),
(322,-256,cs),
(365,-256,o),
(400,-239,o),
(432,-202,c)
);
}
);
width = 560;
}
);
note = eogonek;
unicode = 281;
},
{
glyphname = equal;
layers = (
{
hints = (
{
horizontal = 1;
place = (401,44);
type = Stem;
},
{
horizontal = 1;
place = (240,44);
type = Stem;
}
);
layerId = m01;
shapes = (
{
closed = 1;
nodes = (
(488,401,l),
(488,445,l),
(78,445,l),
(78,401,l)
);
},
{
closed = 1;
nodes = (
(488,240,l),
(488,284,l),
(78,284,l),
(78,240,l)
);
}
);
width = 566;
}
);
note = equal;
unicode = 61;
},
{
glyphname = equal.tnum;
layers = (
{
hints = (
{
horizontal = 1;
place = (401,44);
type = Stem;
},
{
horizontal = 1;
place = (240,44);
type = Stem;
}
);
layerId = m01;
shapes = (
{
closed = 1;
nodes = (
(505,401,l),
(505,445,l),
(95,445,l),
(95,401,l)
);
},
{
closed = 1;
nodes = (
(505,240,l),
(505,284,l),
(95,284,l),
(95,240,l)
);
}
);
width = 600;
}
);
note = equal.tnum;
},
{
glyphname = eth;
kernLeft = eth;
lastChange = "2024-01-02 01:53:27 +0000";
layers = (
{
hints = (
{
horizontal = 1;
place = (780,-20);
target = down;
type = TopGhost;
},
{
horizontal = 1;
place = (407,57);
type = Stem;
},
{
horizontal = 1;
place = (-10,45);
type = Stem;
},
{
place = (429,112);
type = Stem;
},
{
place = (48,119);
type = Stem;
}
);
layerId = m01;
shapes = (
{
closed = 1;
nodes = (
(442,723,l),
(412,769,l),
(155,602,l),
(184,556,l)
);
}
);
width = 590;
}
);
note = eth;
unicode = 240;
},
{
glyphname = etilde;
kernLeft = c;
kernRight = ae;
lastChange = "2024-01-02 01:53:30 +0000";
layers = (
{
hints = (
{
horizontal = 1;
place = (800,-20);
target = down;
type = TopGhost;
},
{
horizontal = 1;
place = (721,76);
type = Stem;
},
{
horizontal = 1;
place = (721,41);
type = Stem;
},
{
horizontal = 1;
place = (682,80);
type = Stem;
},
{
horizontal = 1;
place = (509,31);
type = Stem;
},
{
horizontal = 1;
place = (308,32);
type = Stem;
},
{
horizontal = 1;
place = (-10,73);
type = Stem;
},
{
place = (414,105);
type = Stem;
},
{
place = (47,100);
type = Stem;
}
);
layerId = m01;
shapes = (
{
closed = 1;
nodes = (
(167,683,l),
(170,707,o),
(189,721,o),
(218,721,cs),
(265,721,o),
(319,682,o),
(366,682,cs),
(415,682,o),
(450,731,o),
(450,800,c),
(426,800,l),
(421,775,o),
(404,762,o),
(376,762,cs),
(331,762,o),
(273,797,o),
(227,797,cs),
(178,797,o),
(143,750,o),
(143,683,c)
);
}
);
width = 560;
}
);
note = etilde;
unicode = 7869;
},
{
glyphname = exclam;
lastChange = "2024-01-02 19:12:46 +0000";
layers = (
{
hints = (
{
horizontal = 1;
place = (780,-20);
target = down;
type = TopGhost;
},
{
horizontal = 1;
place = (-10,130);
type = Stem;
},
{
place = (135,31);
type = Stem;
},
{
place = (90,121);
type = Stem;
}
);
layerId = m01;
shapes = (
{
closed = 1;
nodes = (
(86,19,o),
(111,-10,o),
(150,-10,cs),
(191,-10,o),
(216,19,o),
(216,54,cs),
(216,92,o),
(191,120,o),
(150,120,cs),
(111,120,o),
(86,92,o),
(86,54,cs)
);
},
{
closed = 1;
nodes = (
(99,614,o),
(90,686,o),
(90,711,cs),
(90,750,o),
(112,780,o),
(151,780,cs),
(194,780,o),
(211,750,o),
(211,714,cs),
(211,688,o),
(202,616,o),
(191,520,c),
(110,516,l)
);
}
);
width = 301;
}
);
note = exclam;
unicode = 33;
},
{
glyphname = exclamdown;
lastChange = "2024-01-02 19:12:50 +0000";
layers = (
{
hints = (
{
horizontal = 1;
place = (410,130);
type = Stem;
},
{
horizontal = 1;
place = (-250,21);
target = up;
type = BottomGhost;
},
{
place = (121,31);
type = Stem;
},
{
place = (76,121);
type = Stem;
}
);
layerId = m01;
shapes = (
{
closed = 1;
nodes = (
(96,10,l),
(85,-86,o),
(76,-158,o),
(76,-184,cs),
(76,-220,o),
(93,-250,o),
(136,-250,cs),
(175,-250,o),
(197,-220,o),
(197,-181,cs),
(197,-156,o),
(188,-84,o),
(177,14,c)
);
},
{
closed = 1;
nodes = (
(201,511,o),
(176,540,o),
(137,540,cs),
(96,540,o),
(71,511,o),
(71,476,cs),
(71,438,o),
(96,410,o),
(137,410,cs),
(176,410,o),
(201,438,o),
(201,476,cs)
);
}
);
width = 273;
}
);
note = exclamdown;
unicode = 161;
},
{
glyphname = f;
kernLeft = f;
kernRight = f;
lastChange = "2024-01-02 01:54:38 +0000";
layers = (
{
hints = (
{
horizontal = 1;
place = (799,31);
type = Stem;
},
{
horizontal = 1;
place = (696,134);
type = Stem;
},
{
horizontal = 1;
place = (498,32);
type = Stem;
},
{
horizontal = 1;
place = (0,21);
target = up;
type = BottomGhost;
},
{
place = (111,95);
type = Stem;
}
);
layerId = m01;
shapes = (
{
closed = 1;
nodes = (
(392,830,o),
(449,794,o),
(449,745,cs),
(449,716,o),
(429,696,o),
(400,696,cs),
(367,696,o),
(356,722,o),
(351,747,cs),
(344,783,o),
(333,799,o),
(301,799,c),
(320,830,l)
);
},
{
closed = 1;
nodes = (
(312,19,l),
(312,0,l),
(36,0,l),
(36,19,l),
(111,34,l),
(206,34,l)
);
}
);
width = 351;
}
);
note = f;
unicode = 102;
},
{
glyphname = f_b;
kernLeft = f;
kernRight = b;
lastChange = "2024-01-02 01:54:57 +0000";
layers = (
{
hints = (
{
horizontal = 1;
place = (530,-20);
target = down;
type = TopGhost;
},
{
horizontal = 1;
place = (796,34);
type = Stem;
},
{
horizontal = 1;
place = (498,42);
type = Stem;
},
{
horizontal = 1;
place = (486,54);
type = Stem;
},
{
horizontal = 1;
place = (0,24);
type = Stem;
},
{
horizontal = 1;
place = (-10,21);
target = up;
type = BottomGhost;
},
{
place = (786,107);
type = Stem;
},
{
place = (428,92);
type = Stem;
},
{
place = (111,95);
type = Stem;
}
);
layerId = m01;
shapes = (
{
closed = 1;
nodes = (
(444,2,l),
(428,2,l),
(428,36,l),
(486,36,l)
);
},
{
closed = 1;
nodes = (
(36,19,l),
(36,0,l),
(312,0,l),
(312,19,l),
(206,34,l),
(111,34,l)
);
}
);
width = 939;
}
);
note = f_b;
},
{
glyphname = f_f;
kernLeft = f;
kernRight = f;
lastChange = "2024-01-02 01:55:17 +0000";
layers = (
{
hints = (
{
horizontal = 1;
place = (799,31);
type = Stem;
},
{
horizontal = 1;
place = (746,34);
type = Stem;
},
{
horizontal = 1;
place = (696,134);
type = Stem;
},
{
horizontal = 1;
place = (498,32);
type = Stem;
},
{
horizontal = 1;
place = (0,21);
target = up;
type = BottomGhost;
},
{
place = (438,95);
type = Stem;
},
{
place = (111,95);
type = Stem;
}
);
layerId = m01;
shapes = (
{
closed = 1;
nodes = (
(363,19,l),
(363,0,l),
(639,0,l),
(639,19,l),
(533,34,l),
(438,34,l)
);
},
{
closed = 1;
nodes = (
(36,19,l),
(36,0,l),
(312,0,l),
(312,19,l),
(206,34,l),
(111,34,l)
);
},
{
closed = 1;
nodes = (
(719,830,o),
(776,794,o),
(776,745,cs),
(776,716,o),
(756,696,o),
(727,696,cs),
(694,696,o),
(683,722,o),
(678,747,cs),
(671,783,o),
(660,799,o),
(628,799,c),
(647,830,l)
);
}
);
width = 678;
}
);
note = f_f;
unicode = 64256;
},
{
glyphname = f_f_b;
kernLeft = f;
kernRight = b;
lastChange = "2024-01-02 01:55:41 +0000";
layers = (
{
hints = (
{
horizontal = 1;
place = (530,-20);
target = down;
type = TopGhost;
},
{
horizontal = 1;
place = (796,34);
type = Stem;
},
{
horizontal = 1;
place = (746,34);
type = Stem;
},
{
horizontal = 1;
place = (498,42);
type = Stem;
},
{
horizontal = 1;
place = (486,54);
type = Stem;
},
{
horizontal = 1;
place = (0,24);
type = Stem;
},
{
horizontal = 1;
place = (-10,21);
target = up;
type = BottomGhost;
},
{
place = (1113,107);
type = Stem;
},
{
place = (755,92);
type = Stem;
},
{
place = (438,95);
type = Stem;
},
{
place = (111,95);
type = Stem;
}
);
layerId = m01;
shapes = (
{
closed = 1;
nodes = (
(363,19,l),
(363,0,l),
(639,0,l),
(639,19,l),
(533,34,l),
(438,34,l)
);
},
{
closed = 1;
nodes = (
(36,19,l),
(36,0,l),
(312,0,l),
(312,19,l),
(206,34,l),
(111,34,l)
);
},
{
closed = 1;
nodes = (
(771,2,l),
(755,2,l),
(755,36,l),
(813,36,l)
);
}
);
width = 1266;
}
);
note = f_f_b;
},
{
glyphname = f_f_h;
kernLeft = f;
kernRight = f_f_h;
lastChange = "2024-01-02 01:56:23 +0000";
layers = (
{
hints = (
{
horizontal = 1;
place = (540,-20);
target = down;
type = TopGhost;
},
{
horizontal = 1;
place = (796,34);
type = Stem;
},
{
horizontal = 1;
place = (746,34);
type = Stem;
},
{
horizontal = 1;
place = (498,32);
type = Stem;
},
{
horizontal = 1;
place = (485,45);
type = Stem;
},
{
horizontal = 1;
place = (0,21);
target = up;
type = BottomGhost;
},
{
place = (1081,95);
type = Stem;
},
{
place = (755,92);
type = Stem;
},
{
place = (438,95);
type = Stem;
},
{
place = (111,95);
type = Stem;
}
);
layerId = m01;
shapes = (
{
closed = 1;
nodes = (
(922,20,l),
(922,0,l),
(679,0,l),
(679,20,l),
(755,35,l),
(847,35,l)
);
},
{
closed = 1;
nodes = (
(1251,20,l),
(1251,0,l),
(1006,0,l),
(1006,20,l),
(1081,34,l),
(1176,34,l)
);
},
{
closed = 1;
nodes = (
(639,19,l),
(639,0,l),
(363,0,l),
(363,19,l),
(438,34,l),
(533,34,l)
);
},
{
closed = 1;
nodes = (
(36,19,l),
(36,0,l),
(312,0,l),
(312,19,l),
(206,34,l),
(111,34,l)
);
}
);
width = 1273;
}
);
note = f_f_h;
},
{
glyphname = f_f_i;
kernLeft = f;
kernRight = dotlessi;
lastChange = "2024-01-02 01:57:22 +0000";
layers = (
{
hints = (
{
horizontal = 1;
place = (540,-20);
target = down;
type = TopGhost;
},
{
horizontal = 1;
place = (530,-20);
target = down;
type = TopGhost;
},
{
horizontal = 1;
place = (794,36);
type = Stem;
},
{
horizontal = 1;
place = (746,34);
type = Stem;
},
{
horizontal = 1;
place = (681,149);
type = Stem;
},
{
horizontal = 1;
place = (498,37);
type = Stem;
},
{
horizontal = 1;
place = (0,21);
target = up;
type = BottomGhost;
},
{
place = (755,95);
type = Stem;
},
{
place = (438,95);
type = Stem;
},
{
place = (111,95);
type = Stem;
}
);
layerId = m01;
shapes = (
{
closed = 1;
nodes = (
(679,20,l),
(679,0,l),
(925,0,l),
(925,20,l),
(850,35,l),
(755,35,l)
);
},
{
closed = 1;
nodes = (
(363,19,l),
(363,0,l),
(639,0,l),
(639,19,l),
(533,34,l),
(438,34,l)
);
},
{
closed = 1;
nodes = (
(36,19,l),
(36,0,l),
(312,0,l),
(312,19,l),
(206,34,l),
(111,34,l)
);
},
{
closed = 1;
nodes = (
(706,794,o),
(720,784,o),
(733,742,cs),
(747,700,o),
(767,681,o),
(796,681,cs),
(829,681,o),
(851,705,o),
(851,739,cs),
(851,794,o),
(785,830,o),
(673,830,c),
(664,794,l)
);
}
);
width = 948;
}
);
note = f_f_i;
unicode = 64259;
},
{
glyphname = f_f_j;
kernLeft = f;
kernRight = dotlessj;
lastChange = "2024-01-02 01:57:48 +0000";
layers = (
{
hints = (
{
horizontal = 1;
place = (794,36);
type = Stem;
},
{
horizontal = 1;
place = (746,34);
type = Stem;
},
{
horizontal = 1;
place = (681,149);
type = Stem;
},
{
horizontal = 1;
place = (498,32);
type = Stem;
},
{
horizontal = 1;
place = (-260,142);
type = Stem;
},
{
horizontal = 1;
place = (-260,47);
type = Stem;
},
{
horizontal = 1;
place = (0,21);
target = up;
type = BottomGhost;
},
{
place = (755,95);
type = Stem;
},
{
place = (438,95);
type = Stem;
},
{
place = (111,95);
type = Stem;
}
);
layerId = m01;
shapes = (
{
closed = 1;
nodes = (
(363,19,l),
(363,0,l),
(639,0,l),
(639,19,l),
(533,34,l),
(438,34,l)
);
},
{
closed = 1;
nodes = (
(36,19,l),
(36,0,l),
(312,0,l),
(312,19,l),
(206,34,l),
(111,34,l)
);
},
{
closed = 1;
nodes = (
(785,830,o),
(851,794,o),
(851,739,cs),
(851,705,o),
(829,681,o),
(796,681,cs),
(767,681,o),
(747,700,o),
(733,742,cs),
(720,784,o),
(706,794,o),
(664,794,c),
(673,830,l)
);
},
{
closed = 1;
nodes = (
(647,-213,o),
(636,-202,o),
(622,-164,cs),
(611,-134,o),
(595,-118,o),
(567,-118,cs),
(534,-118,o),
(513,-141,o),
(513,-178,cs),
(513,-229,o),
(555,-260,o),
(623,-260,c),
(672,-213,l)
);
}
);
width = 936;
}
);
note = f_f_j;
},
{
glyphname = f_f_k;
kernLeft = f;
kernRight = f_f_k;
lastChange = "2024-01-02 01:58:16 +0000";
layers = (
{
hints = (
{
horizontal = 1;
place = (796,34);
type = Stem;
},
{
horizontal = 1;
place = (746,34);
type = Stem;
},
{
horizontal = 1;
place = (498,32);
type = Stem;
},
{
horizontal = 1;
place = (0,21);
target = up;
type = BottomGhost;
},
{
place = (755,92);
type = Stem;
},
{
place = (438,95);
type = Stem;
},
{
place = (111,95);
type = Stem;
}
);
layerId = m01;
shapes = (
{
closed = 1;
nodes = (
(363,19,l),
(363,0,l),
(639,0,l),
(639,19,l),
(533,34,l),
(438,34,l)
);
},
{
closed = 1;
nodes = (
(36,19,l),
(36,0,l),
(312,0,l),
(312,19,l),
(206,34,l),
(111,34,l)
);
},
{
closed = 1;
nodes = (
(679,20,l),
(679,0,l),
(922,0,l),
(922,20,l),
(847,35,l),
(755,35,l)
);
},
{
closed = 1;
nodes = (
(1089,488,o),
(1104,495,o),
(1185,510,c),
(1185,530,l),
(961,530,l),
(961,510,l),
(1020,503,o),
(1035,498,o),
(1035,486,cs),
(1035,478,o),
(1028,466,o),
(1014,450,c),
(1059,453,l)
);
},
{
closed = 1;
nodes = (
(1268,20,l),
(1268,0,l),
(1093,0,l),
(1184,35,l)
);
}
);
width = 1247;
}
);
note = f_f_k;
},
{
glyphname = f_f_l;
kernLeft = f;
kernRight = f_f_l;
lastChange = "2024-01-02 01:58:39 +0000";
layers = (
{
hints = (
{
horizontal = 1;
place = (796,34);
type = Stem;
},
{
horizontal = 1;
place = (746,34);
type = Stem;
},
{
horizontal = 1;
place = (498,32);
type = Stem;
},
{
horizontal = 1;
place = (0,21);
target = up;
type = BottomGhost;
},
{
place = (755,92);
type = Stem;
},
{
place = (438,95);
type = Stem;
},
{
place = (111,95);
type = Stem;
}
);
layerId = m01;
shapes = (
{
closed = 1;
nodes = (
(363,19,l),
(363,0,l),
(639,0,l),
(639,19,l),
(533,34,l),
(438,34,l)
);
},
{
closed = 1;
nodes = (
(685,19,l),
(685,0,l),
(916,0,l),
(916,19,l),
(847,34,l),
(755,34,l)
);
},
{
closed = 1;
nodes = (
(36,19,l),
(36,0,l),
(312,0,l),
(312,19,l),
(206,34,l),
(111,34,l)
);
}
);
width = 945;
}
);
note = f_f_l;
unicode = 64260;
},
{
glyphname = f_f_t;
kernLeft = f;
kernRight = c_t;
lastChange = "2024-01-02 01:59:04 +0000";
layers = (
{
hints = (
{
horizontal = 1;
place = (799,31);
type = Stem;
},
{
horizontal = 1;
place = (746,34);
type = Stem;
},
{
horizontal = 1;
place = (696,134);
type = Stem;
},
{
horizontal = 1;
place = (498,32);
type = Stem;
},
{
horizontal = 1;
place = (0,37);
type = Stem;
},
{
horizontal = 1;
place = (-10,21);
target = up;
type = BottomGhost;
},
{
place = (755,95);
type = Stem;
},
{
place = (438,95);
type = Stem;
},
{
place = (111,95);
type = Stem;
}
);
layerId = m01;
shapes = (
{
closed = 1;
nodes = (
(936,37,o),
(965,53,o),
(985,78,c),
(1002,65,l),
(972,19,o),
(920,-10,o),
(866,-10,c),
(909,37,l)
);
},
{
closed = 1;
nodes = (
(639,19,l),
(639,0,l),
(363,0,l),
(363,19,l),
(438,34,l),
(533,34,l)
);
},
{
closed = 1;
nodes = (
(36,19,l),
(36,0,l),
(312,0,l),
(312,19,l),
(206,34,l),
(111,34,l)
);
},
{
closed = 1;
nodes = (
(727,830,o),
(776,796,o),
(776,746,cs),
(776,714,o),
(756,696,o),
(727,696,cs),
(692,696,o),
(683,723,o),
(678,747,cs),
(671,780,o),
(663,799,o),
(633,799,c),
(653,830,l)
);
}
);
width = 1009;
}
);
note = f_f_t;
},
{
glyphname = f_h;
kernLeft = f;
kernRight = f_f_h;
lastChange = "2024-01-02 01:59:19 +0000";
layers = (
{
hints = (
{
horizontal = 1;
place = (540,-20);
target = down;
type = TopGhost;
},
{
horizontal = 1;
place = (796,34);
type = Stem;
},
{
horizontal = 1;
place = (498,32);
type = Stem;
},
{
horizontal = 1;
place = (485,45);
type = Stem;
},
{
horizontal = 1;
place = (0,21);
target = up;
type = BottomGhost;
},
{
place = (754,95);
type = Stem;
},
{
place = (428,92);
type = Stem;
},
{
place = (111,95);
type = Stem;
}
);
layerId = m01;
shapes = (
{
closed = 1;
nodes = (
(36,19,l),
(36,0,l),
(312,0,l),
(312,19,l),
(206,34,l),
(111,34,l)
);
},
{
closed = 1;
nodes = (
(595,20,l),
(595,0,l),
(352,0,l),
(352,20,l),
(428,35,l),
(520,35,l)
);
},
{
closed = 1;
nodes = (
(924,20,l),
(924,0,l),
(679,0,l),
(679,20,l),
(754,34,l),
(849,34,l)
);
}
);
width = 945;
}
);
note = f_h;
},
{
glyphname = f_i;
kernLeft = f;
kernRight = dotlessi;
lastChange = "2024-01-02 01:59:38 +0000";
layers = (
{
hints = (
{
horizontal = 1;
place = (540,-20);
target = down;
type = TopGhost;
},
{
horizontal = 1;
place = (530,-20);
target = down;
type = TopGhost;
},
{
horizontal = 1;
place = (794,36);
type = Stem;
},
{
horizontal = 1;
place = (681,149);
type = Stem;
},
{
horizontal = 1;
place = (498,37);
type = Stem;
},
{
horizontal = 1;
place = (0,21);
target = up;
type = BottomGhost;
},
{
place = (428,95);
type = Stem;
},
{
place = (111,95);
type = Stem;
}
);
layerId = m01;
shapes = (
{
closed = 1;
nodes = (
(598,20,l),
(598,0,l),
(352,0,l),
(352,20,l),
(428,35,l),
(523,35,l)
);
},
{
closed = 1;
nodes = (
(36,19,l),
(36,0,l),
(312,0,l),
(312,19,l),
(206,34,l),
(111,34,l)
);
},
{
closed = 1;
nodes = (
(458,830,o),
(524,794,o),
(524,739,cs),
(524,705,o),
(502,681,o),
(469,681,cs),
(440,681,o),
(420,700,o),
(406,742,cs),
(393,784,o),
(379,794,o),
(337,794,c),
(346,830,l)
);
}
);
width = 621;
}
);
note = f_i;
unicode = 64257;
},
{
glyphname = f_j;
kernLeft = f;
kernRight = dotlessj;
lastChange = "2024-01-02 01:59:56 +0000";
layers = (
{
hints = (
{
horizontal = 1;
place = (794,36);
type = Stem;
},
{
horizontal = 1;
place = (681,149);
type = Stem;
},
{
horizontal = 1;
place = (498,32);
type = Stem;
},
{
horizontal = 1;
place = (-260,142);
type = Stem;
},
{
horizontal = 1;
place = (-260,47);
type = Stem;
},
{
horizontal = 1;
place = (0,21);
target = up;
type = BottomGhost;
},
{
place = (428,95);
type = Stem;
},
{
place = (111,95);
type = Stem;
}
);
layerId = m01;
shapes = (
{
closed = 1;
nodes = (
(320,-213,o),
(309,-202,o),
(295,-164,cs),
(284,-134,o),
(268,-118,o),
(240,-118,cs),
(207,-118,o),
(186,-141,o),
(186,-178,cs),
(186,-229,o),
(228,-260,o),
(296,-260,c),
(345,-213,l)
);
},
{
closed = 1;
nodes = (
(312,19,l),
(312,0,l),
(36,0,l),
(36,19,l),
(111,34,l),
(206,34,l)
);
},
{
closed = 1;
nodes = (
(458,830,o),
(524,794,o),
(524,739,cs),
(524,705,o),
(502,681,o),
(469,681,cs),
(440,681,o),
(420,700,o),
(406,742,cs),
(393,784,o),
(379,794,o),
(337,794,c),
(346,830,l)
);
}
);
width = 609;
}
);
note = f_j;
},
{
glyphname = f_k;
kernLeft = f;
kernRight = f_f_k;
lastChange = "2024-01-02 02:00:20 +0000";
layers = (
{
hints = (
{
horizontal = 1;
place = (796,34);
type = Stem;
},
{
horizontal = 1;
place = (498,32);
type = Stem;
},
{
horizontal = 1;
place = (0,21);
target = up;
type = BottomGhost;
},
{
place = (428,92);
type = Stem;
},
{
place = (111,95);
type = Stem;
}
);
layerId = m01;
shapes = (
{
closed = 1;
nodes = (
(36,19,l),
(36,0,l),
(312,0,l),
(312,19,l),
(206,34,l),
(111,34,l)
);
},
{
closed = 1;
nodes = (
(352,20,l),
(352,0,l),
(595,0,l),
(595,20,l),
(520,35,l),
(428,35,l)
);
},
{
closed = 1;
nodes = (
(941,20,l),
(941,0,l),
(766,0,l),
(857,35,l)
);
},
{
closed = 1;
nodes = (
(701,466,o),
(708,478,o),
(708,486,cs),
(708,498,o),
(693,503,o),
(634,510,c),
(634,530,l),
(858,530,l),
(858,510,l),
(777,495,o),
(762,488,o),
(732,453,c),
(687,450,l)
);
}
);
width = 920;
}
);
note = f_k;
},
{
glyphname = f_l;
kernLeft = f;
kernRight = f_f_l;
lastChange = "2024-01-02 02:00:33 +0000";
layers = (
{
hints = (
{
horizontal = 1;
place = (796,34);
type = Stem;
},
{
horizontal = 1;
place = (498,32);
type = Stem;
},
{
horizontal = 1;
place = (0,21);
target = up;
type = BottomGhost;
},
{
place = (428,92);
type = Stem;
},
{
place = (111,95);
type = Stem;
}
);
layerId = m01;
shapes = (
{
closed = 1;
nodes = (
(589,19,l),
(589,0,l),
(358,0,l),
(358,19,l),
(428,34,l),
(520,34,l)
);
},
{
closed = 1;
nodes = (
(36,19,l),
(36,0,l),
(312,0,l),
(312,19,l),
(206,34,l),
(111,34,l)
);
}
);
width = 618;
}
);
note = f_l;
unicode = 64258;
},
{
glyphname = f_t;
kernLeft = f;
kernRight = c_t;
lastChange = "2024-01-02 02:00:51 +0000";
layers = (
{
hints = (
{
horizontal = 1;
place = (799,31);
type = Stem;
},
{
horizontal = 1;
place = (696,134);
type = Stem;
},
{
horizontal = 1;
place = (495,35);
type = Stem;
},
{
horizontal = 1;
place = (0,37);
type = Stem;
},
{
horizontal = 1;
place = (-10,21);
target = up;
type = BottomGhost;
},
{
place = (428,95);
type = Stem;
},
{
place = (111,95);
type = Stem;
}
);
layerId = m01;
shapes = (
{
closed = 1;
nodes = (
(609,37,o),
(638,53,o),
(658,78,c),
(675,65,l),
(645,19,o),
(593,-10,o),
(539,-10,c),
(582,37,l)
);
},
{
closed = 1;
nodes = (
(36,19,l),
(36,0,l),
(312,0,l),
(312,19,l),
(206,34,l),
(111,34,l)
);
},
{
closed = 1;
nodes = (
(400,830,o),
(449,796,o),
(449,746,cs),
(449,714,o),
(429,696,o),
(400,696,cs),
(365,696,o),
(356,723,o),
(351,747,cs),
(344,780,o),
(336,799,o),
(306,799,c),
(327,830,l)
);
}
);
width = 682;
}
);
note = f_t;
},
{
glyphname = five;
lastChange = "2024-01-02 02:01:28 +0000";
layers = (
{
hints = (
{
horizontal = 1;
place = (797,-20);
target = down;
type = TopGhost;
},
{
horizontal = 1;
place = (667,90);
type = Stem;
},
{
horizontal = 1;
place = (417,93);
type = Stem;
},
{
horizontal = 1;
place = (-10,184);
type = Stem;
},
{
horizontal = 1;
place = (-10,45);
type = Stem;
},
{
place = (400,94);
type = Stem;
}
);
layerId = m01;
shapes = (
{
closed = 1;
nodes = (
(131,35,o),
(174,174,o),
(88,174,cs),
(55,174,o),
(35,153,o),
(35,116,cs),
(35,44,o),
(113,-10,o),
(217,-10,c),
(243,35,l)
);
}
);
width = 547;
}
);
note = five;
unicode = 53;
},
{
glyphname = five.denominator;
lastChange = "2024-01-02 02:01:34 +0000";
layers = (
{
hints = (
{
horizontal = 1;
place = (471,-20);
target = down;
type = TopGhost;
},
{
horizontal = 1;
place = (361,81);
type = Stem;
},
{
horizontal = 1;
place = (206,86);
type = Stem;
},
{
horizontal = 1;
place = (-10,120);
type = Stem;
},
{
horizontal = 1;
place = (-10,38);
type = Stem;
},
{
place = (242,70);
type = Stem;
}
);
layerId = m01;
shapes = (
{
closed = 1;
nodes = (
(95,28,o),
(122,110,o),
(69,110,cs),
(47,110,o),
(32,92,o),
(32,66,cs),
(32,22,o),
(79,-10,o),
(144,-10,c),
(161,28,l)
);
}
);
width = 357;
}
);
note = five.denominator;
},
{
glyphname = five.numerator;
lastChange = "2024-01-02 02:01:39 +0000";
layers = (
{
hints = (
{
horizontal = 1;
place = (796,-20);
target = down;
type = TopGhost;
},
{
horizontal = 1;
place = (686,81);
type = Stem;
},
{
horizontal = 1;
place = (531,86);
type = Stem;
},
{
horizontal = 1;
place = (315,120);
type = Stem;
},
{
horizontal = 1;
place = (315,38);
type = Stem;
},
{
place = (243,70);
type = Stem;
}
);
layerId = m01;
shapes = (
{
closed = 1;
nodes = (
(96,353,o),
(123,435,o),
(70,435,cs),
(48,435,o),
(33,417,o),
(33,391,cs),
(33,347,o),
(80,315,o),
(145,315,c),
(162,353,l)
);
}
);
width = 358;
}
);
note = five.numerator;
},
{
glyphname = five.oldstyle;
lastChange = "2024-01-02 02:01:45 +0000";
layers = (
{
hints = (
{
horizontal = 1;
place = (560,-20);
target = down;
type = TopGhost;
},
{
horizontal = 1;
place = (430,90);
type = Stem;
},
{
horizontal = 1;
place = (-211,92);
type = Stem;
},
{
horizontal = 1;
place = (-211,45);
type = Stem;
},
{
place = (281,99);
type = Stem;
}
);
layerId = m01;
shapes = (
{
closed = 1;
nodes = (
(107,-166,o),
(89,-119,o),
(53,-119,cs),
(33,-119,o),
(20,-132,o),
(20,-150,cs),
(20,-185,o),
(72,-211,o),
(141,-211,c),
(166,-166,l)
);
}
);
width = 425;
}
);
note = five.oldstyle;
},
{
glyphname = five.tnum;
lastChange = "2024-01-02 02:01:51 +0000";
layers = (
{
hints = (
{
horizontal = 1;
place = (797,-20);
target = down;
type = TopGhost;
},
{
horizontal = 1;
place = (667,90);
type = Stem;
},
{
horizontal = 1;
place = (417,93);
type = Stem;
},
{
horizontal = 1;
place = (-10,184);
type = Stem;
},
{
horizontal = 1;
place = (-10,45);
type = Stem;
},
{
place = (441,94);
type = Stem;
}
);
layerId = m01;
shapes = (
{
closed = 1;
nodes = (
(172,35,o),
(215,174,o),
(129,174,cs),
(96,174,o),
(76,153,o),
(76,116,cs),
(76,44,o),
(154,-10,o),
(258,-10,c),
(284,35,l)
);
}
);
width = 600;
}
);
note = five.tnum;
},
{
glyphname = fiveeighths;
lastChange = "2024-01-02 02:02:00 +0000";
layers = (
{
hints = (
{
horizontal = 1;
place = (796,-20);
target = down;
type = TopGhost;
},
{
horizontal = 1;
place = (770,-20);
target = down;
type = TopGhost;
},
{
horizontal = 1;
place = (686,81);
type = Stem;
},
{
horizontal = 1;
place = (531,86);
type = Stem;
},
{
horizontal = 1;
place = (420,35);
type = Stem;
},
{
horizontal = 1;
place = (315,120);
type = Stem;
},
{
horizontal = 1;
place = (315,38);
type = Stem;
},
{
horizontal = 1;
place = (-10,36);
type = Stem;
},
{
horizontal = 1;
place = (0,21);
target = up;
type = BottomGhost;
},
{
place = (742,71);
type = Stem;
},
{
place = (727,66);
type = Stem;
},
{
place = (529,68);
type = Stem;
},
{
place = (513,84);
type = Stem;
},
{
place = (247,70);
type = Stem;
}
);
layerId = m01;
shapes = (
{
closed = 1;
nodes = (
(223,0,l),
(693,770,l),
(623,770,l),
(154,0,l)
);
},
{
closed = 1;
nodes = (
(100,353,o),
(127,435,o),
(74,435,cs),
(52,435,o),
(37,417,o),
(37,391,cs),
(37,347,o),
(84,315,o),
(149,315,c),
(166,353,l)
);
}
);
width = 859;
}
);
note = fiveeighths;
unicode = 8541;
},
{
glyphname = fiveinferior;
lastChange = "2024-01-02 02:02:08 +0000";
layers = (
{
hints = (
{
horizontal = 1;
place = (374,-20);
target = down;
type = TopGhost;
},
{
horizontal = 1;
place = (251,90);
type = Stem;
},
{
horizontal = 1;
place = (79,94);
type = Stem;
},
{
horizontal = 1;
place = (-161,134);
type = Stem;
},
{
horizontal = 1;
place = (-161,42);
type = Stem;
},
{
place = (263,78);
type = Stem;
}
);
layerId = m01;
shapes = (
{
closed = 1;
nodes = (
(82,-161,o),
(29,-125,o),
(29,-76,cs),
(29,-47,o),
(46,-27,o),
(71,-27,cs),
(129,-27,o),
(100,-119,o),
(173,-119,c),
(154,-161,l)
);
}
);
width = 382;
}
);
note = fiveinferior;
unicode = 8325;
},
{
glyphname = fivesuperior;
lastChange = "2024-01-02 02:02:13 +0000";
layers = (
{
hints = (
{
horizontal = 1;
place = (944,-20);
target = down;
type = TopGhost;
},
{
horizontal = 1;
place = (821,90);
type = Stem;
},
{
horizontal = 1;
place = (649,94);
type = Stem;
},
{
horizontal = 1;
place = (409,134);
type = Stem;
},
{
horizontal = 1;
place = (409,42);
type = Stem;
},
{
place = (263,78);
type = Stem;
}
);
layerId = m01;
shapes = (
{
closed = 1;
nodes = (
(82,409,o),
(29,445,o),
(29,494,cs),
(29,523,o),
(46,543,o),
(71,543,cs),
(129,543,o),
(100,451,o),
(173,451,c),
(154,409,l)
);
}
);
width = 382;
}
);
note = fivesuperior;
unicode = 8309;
},
{
glyphname = florin;
lastChange = "2024-01-02 02:02:29 +0000";
layers = (
{
hints = (
{
horizontal = 1;
place = (749,31);
type = Stem;
},
{
horizontal = 1;
place = (646,134);
type = Stem;
},
{
horizontal = 1;
place = (448,32);
type = Stem;
},
{
horizontal = 1;
place = (-191,142);
type = Stem;
},
{
horizontal = 1;
place = (-191,47);
type = Stem;
}
);
layerId = m01;
shapes = (
{
closed = 1;
nodes = (
(75,-144,o),
(63,-133,o),
(54,-95,cs),
(46,-62,o),
(32,-49,o),
(7,-49,cs),
(-29,-49,o),
(-58,-77,o),
(-58,-115,cs),
(-58,-166,o),
(-12,-191,o),
(43,-191,c),
(94,-144,l)
);
},
{
closed = 1;
nodes = (
(537,749,o),
(548,734,o),
(552,697,cs),
(556,660,o),
(567,646,o),
(593,646,cs),
(627,646,o),
(651,671,o),
(651,705,cs),
(651,751,o),
(609,780,o),
(540,780,c),
(512,749,l)
);
}
);
width = 675;
}
);
note = florin;
unicode = 402;
},
{
glyphname = four;
lastChange = "2024-01-02 02:02:36 +0000";
layers = (
{
hints = (
{
horizontal = 1;
place = (780,-20);
target = down;
type = TopGhost;
},
{
horizontal = 1;
place = (213,76);
type = Stem;
},
{
horizontal = 1;
place = (0,21);
target = up;
type = BottomGhost;
},
{
place = (338,101);
type = Stem;
}
);
layerId = m01;
shapes = (
{
closed = 1;
nodes = (
(218,23,l),
(218,0,l),
(528,0,l),
(528,23,l),
(439,42,l),
(338,42,l)
);
}
);
width = 582;
}
);
note = four;
unicode = 52;
},
{
glyphname = four.denominator;
lastChange = "2024-01-02 02:02:40 +0000";
layers = (
{
hints = (
{
horizontal = 1;
place = (459,-20);
target = down;
type = TopGhost;
},
{
horizontal = 1;
place = (114,57);
type = Stem;
},
{
horizontal = 1;
place = (0,171);
type = Stem;
},
{
place = (196,81);
type = Stem;
}
);
layerId = m01;
shapes = (
{
closed = 1;
nodes = (
(196,36,l),
(126,22,l),
(126,0,l),
(329,0,l),
(329,22,l),
(277,36,l)
);
}
);
width = 376;
}
);
note = four.denominator;
},
{
glyphname = four.numerator;
lastChange = "2024-01-02 02:02:42 +0000";
layers = (
{
hints = (
{
horizontal = 1;
place = (779,-20);
target = down;
type = TopGhost;
},
{
horizontal = 1;
place = (434,57);
type = Stem;
},
{
horizontal = 1;
place = (320,171);
type = Stem;
},
{
place = (196,81);
type = Stem;
}
);
layerId = m01;
shapes = (
{
closed = 1;
nodes = (
(196,356,l),
(126,342,l),
(126,320,l),
(329,320,l),
(329,342,l),
(277,356,l)
);
}
);
width = 376;
}
);
note = four.numerator;
},
{
glyphname = four.tnum;
lastChange = "2024-01-02 02:02:46 +0000";
layers = (
{
hints = (
{
horizontal = 1;
place = (780,-20);
target = down;
type = TopGhost;
},
{
horizontal = 1;
place = (213,76);
type = Stem;
},
{
horizontal = 1;
place = (0,21);
target = up;
type = BottomGhost;
},
{
place = (368,101);
type = Stem;
}
);
layerId = m01;
shapes = (
{
closed = 1;
nodes = (
(368,42,l),
(248,23,l),
(248,0,l),
(558,0,l),
(558,23,l),
(469,42,l)
);
}
);
width = 600;
}
);
note = four.tnum;
},
{
glyphname = fourinferior;
lastChange = "2024-01-02 02:02:48 +0000";
layers = (
{
hints = (
{
horizontal = 1;
place = (356,-20);
target = down;
type = TopGhost;
},
{
horizontal = 1;
place = (-28,64);
type = Stem;
},
{
horizontal = 1;
place = (-154,190);
type = Stem;
},
{
place = (215,89);
type = Stem;
}
);
layerId = m01;
shapes = (
{
closed = 1;
nodes = (
(215,-115,l),
(137,-130,l),
(137,-154,l),
(362,-154,l),
(362,-130,l),
(304,-115,l)
);
}
);
width = 406;
}
);
note = fourinferior;
unicode = 8324;
},
{
glyphname = foursuperior;
lastChange = "2024-01-02 02:02:50 +0000";
layers = (
{
hints = (
{
horizontal = 1;
place = (926,-20);
target = down;
type = TopGhost;
},
{
horizontal = 1;
place = (785,-20);
target = down;
type = TopGhost;
},
{
horizontal = 1;
place = (542,64);
type = Stem;
},
{
horizontal = 1;
place = (416,190);
type = Stem;
},
{
place = (215,89);
type = Stem;
}
);
layerId = m01;
shapes = (
{
closed = 1;
nodes = (
(215,455,l),
(137,440,l),
(137,416,l),
(362,416,l),
(362,440,l),
(304,455,l)
);
}
);
width = 406;
}
);
note = foursuperior;
unicode = 8308;
},
{
glyphname = g;
kernLeft = g;
kernRight = g;
lastChange = "2024-01-02 02:03:00 +0000";
layers = (
{
hints = (
{
horizontal = 1;
place = (545,71);
type = Stem;
},
{
horizontal = 1;
place = (512,28);
type = Stem;
},
{
horizontal = 1;
place = (192,32);
type = Stem;
},
{
horizontal = 1;
place = (-260,32);
type = Stem;
},
{
place = (412,77);
type = Stem;
},
{
place = (352,102);
type = Stem;
},
{
place = (60,103);
type = Stem;
},
{
place = (60,87);
type = Stem;
},
{
place = (7,81);
type = Stem;
}
);
layerId = m01;
shapes = (
{
closed = 1;
nodes = (
(387,556,o),
(418,616,o),
(470,616,cs),
(500,616,o),
(528,597,o),
(528,566,cs),
(528,539,o),
(507,519,o),
(481,519,cs),
(452,519,o),
(455,545,o),
(430,545,cs),
(414,545,o),
(399,521,o),
(392,494,c),
(371,508,l)
);
}
);
width = 514;
}
);
note = g;
unicode = 103;
},
{
glyphname = gbreve;
kernLeft = g;
kernRight = g;
lastChange = "2024-01-02 02:03:04 +0000";
layers = (
{
hints = (
{
horizontal = 1;
place = (651,139);
type = Stem;
},
{
horizontal = 1;
place = (651,74);
type = Stem;
},
{
horizontal = 1;
place = (545,71);
type = Stem;
},
{
horizontal = 1;
place = (512,28);
type = Stem;
},
{
horizontal = 1;
place = (192,32);
type = Stem;
},
{
horizontal = 1;
place = (-260,32);
type = Stem;
},
{
place = (412,77);
type = Stem;
},
{
place = (352,102);
type = Stem;
},
{
place = (60,103);
type = Stem;
},
{
place = (60,87);
type = Stem;
},
{
place = (7,81);
type = Stem;
}
);
layerId = m01;
shapes = (
{
closed = 1;
nodes = (
(141,790,l),
(152,686,o),
(220,651,o),
(278,651,cs),
(321,651,o),
(393,666,o),
(425,790,c),
(391,790,l),
(368,744,o),
(326,725,o),
(282,725,cs),
(235,725,o),
(192,744,o),
(176,790,c)
);
},
{
ref = g;
}
);
width = 514;
}
);
note = gbreve;
unicode = 287;
},
{
glyphname = gcircumflex;
kernLeft = g;
kernRight = g;
lastChange = "2024-01-02 02:03:07 +0000";
layers = (
{
hints = (
{
horizontal = 1;
place = (857,-20);
target = down;
type = TopGhost;
},
{
horizontal = 1;
place = (545,71);
type = Stem;
},
{
horizontal = 1;
place = (512,28);
type = Stem;
},
{
horizontal = 1;
place = (192,32);
type = Stem;
},
{
horizontal = 1;
place = (-260,32);
type = Stem;
},
{
place = (412,77);
type = Stem;
},
{
place = (352,102);
type = Stem;
},
{
place = (60,103);
type = Stem;
},
{
place = (60,87);
type = Stem;
},
{
place = (7,81);
type = Stem;
}
);
layerId = m01;
shapes = (
{
closed = 1;
nodes = (
(244,857,o),
(231,847,o),
(223,828,cs),
(139,640,l),
(265,769,l),
(395,640,l),
(311,828,ls),
(302,847,o),
(291,857,o),
(269,857,cs)
);
},
{
ref = g;
}
);
width = 514;
}
);
note = gcircumflex;
unicode = 285;
},
{
glyphname = gcommaaccent;
kernLeft = g;
kernRight = g;
lastChange = "2024-01-02 02:03:10 +0000";
layers = (
{
hints = (
{
horizontal = 1;
place = (853,-20);
target = down;
type = TopGhost;
},
{
horizontal = 1;
place = (545,71);
type = Stem;
},
{
horizontal = 1;
place = (540,111);
type = Stem;
},
{
horizontal = 1;
place = (512,28);
type = Stem;
},
{
horizontal = 1;
place = (192,32);
type = Stem;
},
{
horizontal = 1;
place = (-260,32);
type = Stem;
},
{
place = (412,77);
type = Stem;
},
{
place = (352,102);
type = Stem;
},
{
place = (213,110);
type = Stem;
},
{
place = (213,61);
type = Stem;
},
{
place = (60,103);
type = Stem;
},
{
place = (60,87);
type = Stem;
},
{
place = (7,81);
type = Stem;
}
);
layerId = m01;
shapes = (
{
closed = 1;
nodes = (
(301,853,l),
(243,819,o),
(213,774,o),
(213,717,cs),
(213,681,o),
(235,651,o),
(267,651,cs),
(299,651,o),
(323,673,o),
(323,702,cs),
(323,749,o),
(274,741,o),
(274,777,cs),
(274,790,o),
(292,812,o),
(317,829,c)
);
},
{
ref = g;
}
);
width = 514;
}
);
note = gcommaaccent;
unicode = 291;
},
{
glyphname = gdotaccent;
kernLeft = g;
kernRight = g;
lastChange = "2024-01-02 02:03:15 +0000";
layers = (
{
hints = (
{
horizontal = 1;
place = (651,129);
type = Stem;
},
{
horizontal = 1;
place = (545,71);
type = Stem;
},
{
horizontal = 1;
place = (512,28);
type = Stem;
},
{
horizontal = 1;
place = (192,32);
type = Stem;
},
{
horizontal = 1;
place = (-260,32);
type = Stem;
},
{
place = (412,77);
type = Stem;
},
{
place = (352,102);
type = Stem;
},
{
place = (208,129);
type = Stem;
},
{
place = (60,103);
type = Stem;
},
{
place = (60,87);
type = Stem;
},
{
place = (7,81);
type = Stem;
}
);
layerId = m01;
shapes = (
{
closed = 1;
nodes = (
(208,680,o),
(233,651,o),
(272,651,cs),
(312,651,o),
(337,680,o),
(337,715,cs),
(337,752,o),
(312,780,o),
(272,780,cs),
(233,780,o),
(208,752,o),
(208,715,cs)
);
},
{
ref = g;
}
);
width = 514;
}
);
note = gdotaccent;
unicode = 289;
},
{
glyphname = germandbls;
kernLeft = f;
lastChange = "2024-01-02 02:03:31 +0000";
layers = (
{
hints = (
{
horizontal = 1;
place = (794,36);
type = Stem;
},
{
horizontal = 1;
place = (478,32);
type = Stem;
},
{
horizontal = 1;
place = (0,20);
type = Stem;
},
{
horizontal = 1;
place = (-10,21);
target = up;
type = BottomGhost;
},
{
place = (591,77);
type = Stem;
},
{
place = (455,86);
type = Stem;
},
{
place = (340,79);
type = Stem;
},
{
place = (340,24);
type = Stem;
},
{
place = (114,95);
type = Stem;
}
);
layerId = m01;
shapes = (
{
closed = 1;
nodes = (
(416,20,o),
(372,73,o),
(364,174,c),
(340,174,l),
(346,12,l),
(385,-1,o),
(442,-10,o),
(484,-10,c),
(491,20,l)
);
},
{
closed = 1;
nodes = (
(39,19,l),
(39,0,l),
(295,0,l),
(295,19,l),
(209,34,l),
(114,34,l)
);
}
);
width = 694;
}
);
note = germandbls;
unicode = 223;
},
{
glyphname = grave;
layers = (
{
hints = (
{
horizontal = 1;
place = (859,-20);
target = down;
type = TopGhost;
},
{
horizontal = 1;
place = (631,21);
target = up;
type = BottomGhost;
}
);
layerId = m01;
shapes = (
{
closed = 1;
nodes = (
(160,642,l),
(104,812,ls),
(94,841,o),
(78,859,o),
(49,859,cs),
(28,859,o),
(10,841,o),
(10,816,cs),
(10,799,o),
(18,782,o),
(40,755,cs),
(139,631,l)
);
}
);
width = 170;
}
);
note = grave;
unicode = 96;
},
{
glyphname = grave.cap;
layers = (
{
hints = (
{
horizontal = 1;
place = (960,-20);
target = down;
type = TopGhost;
},
{
horizontal = 1;
place = (816,21);
target = up;
type = BottomGhost;
}
);
layerId = m01;
shapes = (
{
closed = 1;
nodes = (
(241,837,l),
(97,944,ls),
(82,955,o),
(69,960,o),
(53,960,cs),
(31,960,o),
(10,942,o),
(10,917,cs),
(10,894,o),
(26,875,o),
(78,860,cs),
(230,816,l)
);
}
);
width = 251;
}
);
note = grave.cap;
},
{
glyphname = greater;
layers = (
{
hints = (
{
horizontal = 1;
place = (561,-20);
target = down;
type = TopGhost;
},
{
horizontal = 1;
place = (121,21);
target = up;
type = BottomGhost;
}
);
layerId = m01;
shapes = (
{
closed = 1;
nodes = (
(481,315,l),
(481,366,l),
(72,561,l),
(72,495,l),
(409,341,l),
(409,337,l),
(72,181,l),
(72,121,l)
);
}
);
width = 520;
}
);
note = greater;
unicode = 62;
},
{
glyphname = greater.tnum;
layers = (
{
hints = (
{
horizontal = 1;
place = (561,-20);
target = down;
type = TopGhost;
},
{
horizontal = 1;
place = (121,21);
target = up;
type = BottomGhost;
}
);
layerId = m01;
shapes = (
{
closed = 1;
nodes = (
(506,315,l),
(506,366,l),
(97,561,l),
(97,495,l),
(434,341,l),
(434,337,l),
(97,181,l),
(97,121,l)
);
}
);
width = 600;
}
);
note = greater.tnum;
},
{
glyphname = guillemotleft;
kernLeft = guillemotleft;
kernRight = guillemotleft;
layers = (
{
hints = (
{
horizontal = 1;
place = (436,-20);
target = down;
type = TopGhost;
},
{
horizontal = 1;
place = (53,21);
target = up;
type = BottomGhost;
}
);
layerId = m01;
shapes = (
{
closed = 1;
nodes = (
(209,61,l),
(141,246,l),
(207,431,l),
(195,436,l),
(58,255,l),
(58,236,l),
(197,53,l)
);
},
{
closed = 1;
nodes = (
(365,61,l),
(297,246,l),
(363,431,l),
(351,436,l),
(214,255,l),
(214,236,l),
(353,53,l)
);
}
);
width = 436;
}
);
note = guillemotleft;
unicode = 171;
},
{
glyphname = guillemotright;
kernLeft = guillemotright;
kernRight = guillemotright;
layers = (
{
hints = (
{
horizontal = 1;
place = (436,-20);
target = down;
type = TopGhost;
},
{
horizontal = 1;
place = (53,21);
target = up;
type = BottomGhost;
}
);
layerId = m01;
shapes = (
{
closed = 1;
nodes = (
(239,53,l),
(378,236,l),
(378,255,l),
(241,436,l),
(229,431,l),
(295,246,l),
(227,61,l)
);
},
{
closed = 1;
nodes = (
(83,53,l),
(222,236,l),
(222,255,l),
(85,436,l),
(73,431,l),
(139,246,l),
(71,61,l)
);
}
);
width = 436;
}
);
note = guillemotright;
unicode = 187;
},
{
glyphname = guilsinglleft;
kernLeft = guillemotleft;
kernRight = guillemotleft;
layers = (
{
hints = (
{
horizontal = 1;
place = (436,-20);
target = down;
type = TopGhost;
},
{
horizontal = 1;
place = (53,21);
target = up;
type = BottomGhost;
}
);
layerId = m01;
shapes = (
{
closed = 1;
nodes = (
(209,61,l),
(141,246,l),
(207,431,l),
(195,436,l),
(58,255,l),
(58,236,l),
(197,53,l)
);
}
);
width = 280;
}
);
note = guilsinglleft;
unicode = 8249;
},
{
glyphname = guilsinglright;
kernLeft = guillemotright;
kernRight = guillemotright;
layers = (
{
hints = (
{
horizontal = 1;
place = (436,-20);
target = down;
type = TopGhost;
},
{
horizontal = 1;
place = (53,21);
target = up;
type = BottomGhost;
}
);
layerId = m01;
shapes = (
{
closed = 1;
nodes = (
(83,53,l),
(222,236,l),
(222,255,l),
(85,436,l),
(73,431,l),
(139,246,l),
(71,61,l)
);
}
);
width = 280;
}
);
note = guilsinglright;
unicode = 8250;
},
{
glyphname = h;
kernLeft = h;
kernRight = f_f_h;
lastChange = "2024-01-02 02:03:52 +0000";
layers = (
{
hints = (
{
horizontal = 1;
place = (830,-20);
target = down;
type = TopGhost;
},
{
horizontal = 1;
place = (485,55);
type = Stem;
},
{
horizontal = 1;
place = (0,21);
target = up;
type = BottomGhost;
},
{
place = (428,95);
type = Stem;
},
{
place = (99,95);
type = Stem;
}
);
layerId = m01;
shapes = (
{
closed = 1;
nodes = (
(598,20,l),
(598,0,l),
(353,0,l),
(353,20,l),
(428,34,l),
(523,34,l)
);
},
{
closed = 1;
nodes = (
(23,20,l),
(23,0,l),
(269,0,l),
(269,20,l),
(194,35,l),
(99,35,l)
);
},
{
closed = 1;
nodes = (
(184,830,l),
(25,782,l),
(25,768,l),
(99,741,l),
(194,830,l)
);
}
);
width = 619;
}
);
note = h;
unicode = 104;
},
{
glyphname = hbar;
kernLeft = h;
kernRight = f_f_h;
lastChange = "2024-01-02 02:03:56 +0000";
layers = (
{
hints = (
{
horizontal = 1;
place = (830,-20);
target = down;
type = TopGhost;
},
{
horizontal = 1;
place = (609,65);
type = Stem;
},
{
horizontal = 1;
place = (485,55);
type = Stem;
},
{
horizontal = 1;
place = (0,21);
target = up;
type = BottomGhost;
},
{
place = (428,95);
type = Stem;
},
{
place = (99,95);
type = Stem;
},
{
place = (25,169);
type = Stem;
}
);
layerId = m01;
shapes = (
{
closed = 1;
nodes = (
(194,609,l),
(332,609,l),
(332,674,l),
(194,674,l),
(99,674,l),
(25,674,l),
(25,609,l),
(99,609,l)
);
},
{
ref = h;
}
);
width = 619;
}
);
note = hbar;
unicode = 295;
},
{
glyphname = hcircumflex;
kernLeft = h;
kernRight = f_f_h;
lastChange = "2024-01-02 02:03:59 +0000";
layers = (
{
hints = (
{
horizontal = 1;
place = (857,-20);
target = down;
type = TopGhost;
},
{
horizontal = 1;
place = (830,-20);
target = down;
type = TopGhost;
},
{
horizontal = 1;
place = (485,55);
type = Stem;
},
{
horizontal = 1;
place = (0,21);
target = up;
type = BottomGhost;
},
{
place = (428,95);
type = Stem;
},
{
place = (99,95);
type = Stem;
}
);
layerId = m01;
shapes = (
{
closed = 1;
nodes = (
(373,857,o),
(360,847,o),
(352,828,cs),
(268,640,l),
(288,628,l),
(394,769,l),
(502,628,l),
(524,640,l),
(440,828,ls),
(431,847,o),
(420,857,o),
(398,857,cs)
);
},
{
ref = h;
}
);
width = 619;
}
);
note = hcircumflex;
unicode = 293;
},
{
glyphname = hdotbelow;
kernLeft = h;
kernRight = f_f_h;
lastChange = "2024-01-02 02:04:01 +0000";
layers = (
{
hints = (
{
horizontal = 1;
place = (830,-20);
target = down;
type = TopGhost;
},
{
horizontal = 1;
place = (485,55);
type = Stem;
},
{
horizontal = 1;
place = (-256,129);
type = Stem;
},
{
horizontal = 1;
place = (0,21);
target = up;
type = BottomGhost;
},
{
place = (428,95);
type = Stem;
},
{
place = (249,129);
type = Stem;
},
{
place = (99,95);
type = Stem;
}
);
layerId = m01;
shapes = (
{
closed = 1;
nodes = (
(249,-227,o),
(274,-256,o),
(313,-256,cs),
(353,-256,o),
(378,-227,o),
(378,-192,cs),
(378,-155,o),
(353,-127,o),
(313,-127,cs),
(274,-127,o),
(249,-155,o),
(249,-192,cs)
);
},
{
ref = h;
}
);
width = 619;
}
);
note = hdotbelow;
unicode = 7717;
},
